<?xml version="1.0" encoding="UTF-8"?>
<!-- Created with Inkscape (http://www.inkscape.org/) -->
<svg width="82.248mm" height="68.61mm" version="1.1" viewBox="0 0 82.247955 68.609795" xmlns="http://www.w3.org/2000/svg" xmlns:cc="http://creativecommons.org/ns#" xmlns:dc="http://purl.org/dc/elements/1.1/" xmlns:rdf="http://www.w3.org/1999/02/22-rdf-syntax-ns#">
 <metadata>
  <rdf:RDF>
   <cc:Work rdf:about="">
    <dc:format>image/svg+xml</dc:format>
    <dc:type rdf:resource="http://purl.org/dc/dcmitype/StillImage"/>
    <dc:title/>
   </cc:Work>
  </rdf:RDF>
 </metadata>
 <g transform="translate(-21.885 -46.14)">
  <g fill="#2b2200" stroke="#49baf4" stroke-width="4.465" aria-label="mitchell bartolo dot com">
   <path d="m41.441 63.394c-0.5334 0-0.8128 1.3462-1.3208 1.0922-0.635-0.3048 0.2032-7.0104 0.6096-8.3058 0.2286-0.6858-1.397-1.0668-2.2352-1.0668-0.762 0-1.3462 0.1778-1.8796 0.889-0.9652 1.27-2.032 3.2512-2.794 4.8768 0.1778-1.651 0.4064-3.1242 0.6604-4.191 0.1778-0.762-0.5842-1.1938-1.5748-1.1938-0.9398 0-2.0574 0.3556-2.4384 1.0414-0.6858 1.27-1.6256 3.7084-2.0574 5.1562-0.3556-0.1778 0.1524-4.191 0.3048-4.7244 0.0254-0.2286 0.0762-0.4064 0.0762-0.6096 0-0.9144-0.9144-1.1176-1.8034-1.1176-1.0922 0-2.2098 0.3048-2.3114 1.524-0.2286 2.9464-0.5334 7.4168 0 9.9314 0.3302 1.524 2.9464 1.3462 3.2766 1.3462 0.5334 0 0.762-0.2794 0.889-0.9906 0.2286-0.9144 1.016-2.7432 1.905-4.3942 0.0254 1.7018 0.127 3.683 0.3556 4.2926 0.2032 0.5842 1.5748 1.1938 2.5654 1.1938 0.5588 0 1.2192-3.6576 2.6924-6.2738-0.2794 3.2258 0.3302 6.1976 2.8702 6.1976 1.6764 0 2.4892-2.413 2.4892-4.0386 0-0.3556-0.0762-0.635-0.2794-0.635z"/>
   <path d="m43.435 51.329c0 1.7272 0.7366 2.54 2.3368 2.54 0.3302 0 0.5588-0.127 0.635-0.5334l0.8636-3.2258c0.1778-0.6858-1.27-1.2446-2.3114-1.2446-0.6604 0-1.27 0.1016-1.3462 0.4826-0.1524 0.6858-0.1778 1.3208-0.1778 1.9812zm2.794 16.891c1.6256-0.0254 2.5908-1.4732 2.5654-3.6322-0.0254-1.016-0.254-1.1176-0.5334-1.1176-0.4826 0-0.5842 1.3462-1.2446 1.3716-0.8128 0-0.6604-5.6388 0.0254-8.0264 0.0254-0.1778 0.0762-0.3556 0.0762-0.5334 0-0.889-0.8128-1.27-2.032-1.2446-0.9906 0-2.1082 0.2794-2.1844 0.9652-0.1778 1.4478-0.3302 3.2512-0.3302 4.4958 0.0762 3.81 0.9652 7.7724 3.6576 7.7216z"/>
   <path d="m53.19 68.195c1.1176-0.0508 2.2352-1.3208 2.6924-3.2258 0.2286-1.143-0.0762-1.9812-0.3556-1.9558-0.508 0-0.6858 1.397-1.27 1.397-0.762-0.0254-1.0414-9.2456-0.3302-9.271 0.6604-0.0254 1.905 0 2.2352-0.0254s0.381-0.2032 0.4572-0.762c0.1778-1.7018 0.0508-2.1336-1.9304-2.0828-0.3556 0.0508-0.508-0.2286-0.5334-0.6096-0.0254-1.0414 0.7874-1.651 0.7366-2.1844 0-0.5842-0.9144-0.8128-1.9304-0.762-1.6002 0.0508-2.3876 0.889-2.4892 2.8702-0.0508 1.0414-0.1524 0.6604-1.524 0.7366-0.5588 0.0254-0.8128 0.7874-0.7874 1.1938 0.0508 0.8382 0.8382 1.6256 1.0922 1.6256 0.2032 0 0.762-0.1778 0.635 1.0668-0.0508 0.5588-0.2032 3.683-0.127 5.842 0.1778 3.2766 1.1684 6.2484 3.429 6.1468z"/>
   <path d="m61.356 68.398c2.7686 0 4.2164-2.4384 4.2164-3.8862 0-1.2192-0.8128-1.6002-1.5494-1.6002-0.3048 0-1.0668 0.1016-1.2954 0.3302 0.1778 1.016-0.508 1.8288-0.8636 1.8288-0.7366 0-1.3462-1.3462-1.3462-3.6068 0-1.651 0.508-2.9464 1.2192-2.9464 0.635 0 0.1778 2.286 0.5334 2.667 0.0762 0.0508 0.5842 0.1778 1.1938 0.1778 1.1938 0 1.8034-0.7112 1.8034-2.3114 0-2.5908-0.8128-4.4196-3.2512-4.4196-0.5334 0-1.0922 0.1778-1.6764 0.508-0.2032 0.1524-0.4318 0.1778-0.6858 0.1778-1.7272 0-2.921 3.2766-2.921 6.096 0.0254 5.6642 3.0226 6.985 4.6228 6.985z"/>
   <path d="m70.064 67.992c0.2794 0.0762 0.508 0.127 0.7112 0.127 0.6096 0 0.9398-0.4064 1.0668-1.2446 0.2032-1.0922 0.9652-5.3086 1.3462-5.2578 0.381 0.0762-0.6604 6.477 2.2352 6.477 1.397 0 2.5146-1.4224 2.5146-2.8702 0-0.6604-0.2794-1.524-0.6096-1.524-0.2794 0-0.4572 1.4478-1.0922 1.0668-0.6096-0.381 0.0762-6.2484 0.508-7.6454 0.0762-0.1778 0.0762-0.3556 0.0762-0.4826 0-1.016-1.6002-1.3716-2.9718-1.2446-1.4732 0.2032-2.667 3.3274-3.302 5.5626-0.1524-0.0508-0.2032-0.5334-0.2032-1.3208 0-2.7432 0.7112-8.7884 0.7366-8.9916 0.0508-0.1778 0.0508-0.3556 0.0508-0.4826 0-1.016-1.0922-1.4224-2.1082-1.4224-1.4224 0-1.8796 0.254-1.9812 1.5494-0.0508 1.4986-0.254 5.7912-0.254 8.2042 0 0.4826 0 0.889 0.0254 1.1938 0.0254 0.9144 0 1.8288 0.1016 2.7432 0.127 1.2192 0.1778 2.4638 0.5842 3.6576 0.127 0.4318 0.2286 0.9144 0.7112 1.1176 0.6096 0.2794 1.2192 0.5842 1.8542 0.7874z"/>
   <path d="m78.163 61.235c0.0254 5.2578 3.2258 7.2136 5.2832 7.2136 2.8194 0 5.2324-2.9718 3.0988-4.318-0.0508-0.0508-0.127-0.0254-0.1524 0.0508-0.381 0.7874-1.2446 1.3208-2.0828 1.3208-0.9906 0-1.7526-1.0922-1.7018-2.286 0.0254-0.127 0.0762-0.1524 0.1778-0.0762 0.254 0.254 0.8382 0.7112 1.4224 0.7112 2.667 0 3.0734-2.8448 3.0734-4.7244 0-2.2098-0.6604-4.4958-3.2004-4.4958-0.889 0-1.397 0.3556-2.0574 0.4318-2.921 0.3556-3.8354 2.3368-3.8608 6.1722zm4.5466 0.0508c-0.9906 0-0.6096-3.4798 0.4318-3.4798s0.6096 3.4798-0.4318 3.4798z"/>
   <path d="m92.021 68.322c1.143 0 2.3114-1.27 2.794-3.2258 0.0508-0.2794 0.0762-0.5334 0.0762-0.7874 0-0.7112-0.2286-1.1938-0.4318-1.1684-0.508 0-0.6858 1.397-1.27 1.397-0.4064-0.0254-0.7366-2.6924-0.8128-5.1308 0.6604-2.7686 1.7018-6.1976 1.7018-9.6774 0-0.5588-0.8382-1.016-1.778-1.016-3.175 0-3.7592 4.2926-3.7592 8.509 0 3.302-0.127 11.1 3.4798 11.1z"/>
   <path d="m98.52 68.322c1.143 0 2.3114-1.27 2.794-3.2258 0.0508-0.2794 0.0762-0.5334 0.0762-0.7874 0-0.7112-0.2286-1.1938-0.4318-1.1684-0.508 0-0.6858 1.397-1.27 1.397-0.4064-0.0254-0.7366-2.6924-0.8128-5.1308 0.6604-2.7686 1.7018-6.1976 1.7018-9.6774 0-0.5588-0.8382-1.016-1.778-1.016-3.175 0-3.7592 4.2926-3.7592 8.509 0 3.302-0.127 11.1 3.4798 11.1z"/>
   <path d="m31.662 77.293c-2.159 0-3.302 2.4892-3.7592 3.7846 0.1524-2.1844 1.016-6.858 1.6256-8.8138 0.1778-0.6604-1.1684-0.889-1.9812-0.9144-1.0668 0.0254-2.0066 0.381-2.1844 1.3462-0.9398 3.7846-1.4478 11.074-0.5842 15.062 0.381 1.6256 2.6162 2.7178 5.3848 2.7432 2.8956 0 5.0038-3.683 5.0038-7.747 0-3.0226-0.9906-5.461-3.5052-5.461zm-1.778 9.9568c-1.0668 0.127-0.9398-6.5532 0.6858-6.6802 0.9144-0.0508 0.6858 6.604-0.6858 6.6802zm-2.2098-5.4102v0z"/>
   <path d="m39.395 90.018c2.0066 0 2.7686-1.4732 3.556-3.3274 0.2286 1.6764 1.3716 3.2258 2.6416 3.2004 2.0066-0.0254 2.8448-4.191 2.0066-4.445-0.635-0.2032-0.4572 0.9906-1.0922 0.9906-0.3556 0-0.7112-0.9906-0.7112-3.4798 0-1.2192 0.1524-2.1844 0.635-3.9116 0.0508-0.2032 0.0762-0.4064 0.0762-0.5842 0-0.8636-1.016-1.397-1.8796-1.397s-0.9652 0.3556-1.778 0.3556c-0.3302 0-0.6858-0.3048-1.524-0.3048-3.8354 0-5.1562 3.3274-5.1562 7.493 0 3.2258 1.016 5.4102 3.2258 5.4102zm1.3462-3.4544c-1.0668 0-0.7112-6.5024 0.9906-6.5024 0.9906 0 0.3556 6.5024-0.9906 6.5024z"/>
   <path d="m57.389 83.516c-0.635-0.2286-1.0922-2.5654 0.1016-4.1402 0.1524-0.2032 0.127-0.4318 0.127-0.5842 0-0.4572-1.3208-1.6256-1.905-1.6256-1.0414 0-2.4384 1.905-3.302 3.9624 0.0508-0.762 0.0762-1.4986 0.0762-1.9304 0-0.9144-1.3462-1.7018-2.2606-1.7018-0.889 0-1.9812 0.127-1.6002 1.0414 0.5842 1.397 0.1778 4.8514 0.2286 7.3914 0.0508 2.7178 0 3.2766 2.9464 4.0386 0.4318 0.1016 0.889-0.254 0.7874-0.6604-0.0508-0.2286-0.1016-0.4826-0.1016-0.7874 0-3.4036 0.5588-5.2578 1.4224-6.7818-0.0508 2.032 1.6256 3.0226 3.4544 2.4892 0.254-0.0762 0.4826-0.5334 0.0254-0.7112z"/>
   <path d="m62.616 90.17c1.1176-0.0508 2.2352-1.3208 2.6924-3.2258 0.2286-1.143-0.0762-1.9812-0.3556-1.9558-0.508 0-0.6858 1.397-1.27 1.397-0.762-0.0254-1.0414-9.2456-0.3302-9.271 0.6604-0.0254 1.905 0 2.2352-0.0254s0.381-0.2032 0.4572-0.762c0.1778-1.7018 0.0508-2.1336-1.9304-2.0828-0.3556 0.0508-0.508-0.2286-0.5334-0.6096-0.0254-1.0414 0.7874-1.651 0.7366-2.1844 0-0.5842-0.9144-0.8128-1.9304-0.762-1.6002 0.0508-2.3876 0.889-2.4892 2.8702-0.0508 1.0414-0.1524 0.6604-1.524 0.7366-0.5588 0.0254-0.8128 0.7874-0.7874 1.1938 0.0508 0.8382 0.8382 1.6256 1.0922 1.6256 0.2032 0 0.762-0.1778 0.635 1.0668-0.0508 0.5588-0.2032 3.683-0.127 5.842 0.1778 3.2766 1.1684 6.2484 3.429 6.1468z"/>
   <path d="m65.911 83.998c0.0508 4.1656 1.4732 6.5786 5.8674 6.5024 2.5654-0.0508 3.556-4.7498 3.3782-8.3566-0.1016-2.3368-0.508-4.5466-3.2004-4.8768-0.762-0.0508-0.4572-0.254-1.1684-0.4572-0.1778-0.0762-0.4826-0.0762-0.7112-0.0762-2.8956 0.0762-4.2164 3.7592-4.1656 7.2644zm5.1308-3.8862c0.3556 0 0.635 1.016 0.635 2.3114 0 2.1082-0.5588 4.9022-1.27 4.9022-0.3302 0-0.6604-1.27-0.6604-2.7686 0-2.032 0.4826-4.445 1.2954-4.445z"/>
   <path d="m80.065 90.297c1.143 0 2.3114-1.27 2.794-3.2258 0.0508-0.2794 0.0762-0.5334 0.0762-0.7874 0-0.7112-0.2286-1.1938-0.4318-1.1684-0.508 0-0.6858 1.397-1.27 1.397-0.4064-0.0254-0.7366-2.6924-0.8128-5.1308 0.6604-2.7686 1.7018-6.1976 1.7018-9.6774 0-0.5588-0.8382-1.016-1.778-1.016-3.175 0-3.7592 4.2926-3.7592 8.509 0 3.302-0.127 11.1 3.4798 11.1z"/>
   <path d="m83.472 83.998c0.0508 4.1656 1.4732 6.5786 5.8674 6.5024 2.5654-0.0508 3.556-4.7498 3.3782-8.3566-0.1016-2.3368-0.508-4.5466-3.2004-4.8768-0.762-0.0508-0.4572-0.254-1.1684-0.4572-0.1778-0.0762-0.4826-0.0762-0.7112-0.0762-2.8956 0.0762-4.2164 3.7592-4.1656 7.2644zm5.1308-3.8862c0.3556 0 0.635 1.016 0.635 2.3114 0 2.1082-0.5588 4.9022-1.27 4.9022-0.3302 0-0.6604-1.27-0.6604-2.7686 0-2.032 0.4826-4.445 1.2954-4.445z"/>
   <path d="m35.675 107.23c-0.508 0-0.6604 1.2446-1.0668 1.2446-0.5334 0-0.762-2.0574-0.762-4.5212 0-3.1496 1.2446-8.8138 1.2446-9.271 0-1.1684-1.2954-1.905-2.6924-1.905-0.5842 0.0508-1.016 0.2286-1.143 0.9144-0.3302 1.4224-0.7112 4.2926-0.6096 6.3246-0.6858-0.4826-1.5748-0.889-2.7686-0.889-2.2352 0-3.7592 3.4544-3.7592 7.0358 0 3.1496 1.27 5.8928 4.2164 5.8928 1.2954 0 2.2606-1.0922 2.9464-2.4384 0.3048 0.9906 0.9652 2.4384 2.667 2.4384 2.0828 0 2.8194-4.8514 1.7272-4.826zm-6.7056 1.2446c-0.4826 0-1.0414-1.397-1.0414-2.921 0-1.8796 0.9144-3.7846 1.8034-3.5052 0.5588 0.1778 0.635 1.143 0.635 2.5654 0 1.3208-0.635 3.8608-1.397 3.8608z"/>
   <path d="m36.691 106.01c0.0508 4.1656 1.4732 6.5786 5.8674 6.5024 2.5654-0.0508 3.556-4.7498 3.3782-8.3566-0.1016-2.3368-0.508-4.5466-3.2004-4.8768-0.762-0.0508-0.4572-0.254-1.1684-0.4572-0.1778-0.0762-0.4826-0.0762-0.7112-0.0762-2.8956 0.0762-4.2164 3.7592-4.1656 7.2644zm5.1308-3.8862c0.3556 0 0.635 1.016 0.635 2.3114 0 2.1082-0.5588 4.9022-1.27 4.9022-0.3302 0-0.6604-1.27-0.6604-2.7686 0-2.032 0.4826-4.445 1.2954-4.445z"/>
   <path d="m50.908 112.19c1.1176-0.0508 2.2352-1.3208 2.6924-3.2258 0.2286-1.143-0.0762-1.9812-0.3556-1.9558-0.508 0-0.6858 1.397-1.27 1.397-0.762-0.0254-1.0414-9.2456-0.3302-9.271 0.6604-0.0254 1.905 0 2.2352-0.0254s0.381-0.2032 0.4572-0.762c0.1778-1.7018 0.0508-2.1336-1.9304-2.0828-0.3556 0.0508-0.508-0.2286-0.5334-0.6096-0.0254-1.0414 0.7874-1.651 0.7366-2.1844 0-0.5842-0.9144-0.8128-1.9304-0.762-1.6002 0.0508-2.3876 0.889-2.4892 2.8702-0.0508 1.0414-0.1524 0.6604-1.524 0.7366-0.5588 0.0254-0.8128 0.7874-0.7874 1.1938 0.0508 0.8382 0.8382 1.6256 1.0922 1.6256 0.2032 0 0.762-0.1778 0.635 1.0668-0.0508 0.5588-0.2032 3.683-0.127 5.842 0.1778 3.2766 1.1684 6.2484 3.429 6.1468z"/>
   <path d="m65.424 112.39c2.7686 0 4.2164-2.4384 4.2164-3.8862 0-1.2192-0.8128-1.6002-1.5494-1.6002-0.3048 0-1.0668 0.1016-1.2954 0.3302 0.1778 1.016-0.508 1.8288-0.8636 1.8288-0.7366 0-1.3462-1.3462-1.3462-3.6068 0-1.651 0.508-2.9464 1.2192-2.9464 0.635 0 0.1778 2.286 0.5334 2.667 0.0762 0.0508 0.5842 0.1778 1.1938 0.1778 1.1938 0 1.8034-0.7112 1.8034-2.3114 0-2.5908-0.8128-4.4196-3.2512-4.4196-0.5334 0-1.0922 0.1778-1.6764 0.508-0.2032 0.1524-0.4318 0.1778-0.6858 0.1778-1.7272 0-2.921 3.2766-2.921 6.096 0.0254 5.6642 3.0226 6.985 4.6228 6.985z"/>
   <path d="m70.475 106.01c0.0508 4.1656 1.4732 6.5786 5.8674 6.5024 2.5654-0.0508 3.556-4.7498 3.3782-8.3566-0.1016-2.3368-0.508-4.5466-3.2004-4.8768-0.762-0.0508-0.4572-0.254-1.1684-0.4572-0.1778-0.0762-0.4826-0.0762-0.7112-0.0762-2.8956 0.0762-4.2164 3.7592-4.1656 7.2644zm5.1308-3.8862c0.3556 0 0.635 1.016 0.635 2.3114 0 2.1082-0.5588 4.9022-1.27 4.9022-0.3302 0-0.6604-1.27-0.6604-2.7686 0-2.032 0.4826-4.445 1.2954-4.445z"/>
   <path d="m97.995 107.39c-0.5334 0-0.8128 1.3462-1.3208 1.0922-0.635-0.3048 0.2032-7.0104 0.6096-8.3058 0.2286-0.6858-1.397-1.0668-2.2352-1.0668-0.762 0-1.3462 0.1778-1.8796 0.889-0.9652 1.27-2.032 3.2512-2.794 4.8768 0.1778-1.651 0.4064-3.1242 0.6604-4.191 0.1778-0.762-0.5842-1.1938-1.5748-1.1938-0.9398 0-2.0574 0.3556-2.4384 1.0414-0.6858 1.27-1.6256 3.7084-2.0574 5.1562-0.3556-0.1778 0.1524-4.191 0.3048-4.7244 0.0254-0.2286 0.0762-0.4064 0.0762-0.6096 0-0.9144-0.9144-1.1176-1.8034-1.1176-1.0922 0-2.2098 0.3048-2.3114 1.524-0.2286 2.9464-0.5334 7.4168 0 9.9314 0.3302 1.524 2.9464 1.3462 3.2766 1.3462 0.5334 0 0.762-0.2794 0.889-0.9906 0.2286-0.9144 1.016-2.7432 1.905-4.3942 0.0254 1.7018 0.127 3.683 0.3556 4.2926 0.2032 0.5842 1.5748 1.1938 2.5654 1.1938 0.5588 0 1.2192-3.6576 2.6924-6.2738-0.2794 3.2258 0.3302 6.1976 2.8702 6.1976 1.6764 0 2.4892-2.413 2.4892-4.0386 0-0.3556-0.0762-0.635-0.2794-0.635z"/>
  </g>
  <g stroke="#fd75d5" stroke-width="3.265" aria-label="mitchell bartolo dot com">
   <path d="m42.552 62.463c-0.5334 0-0.8128 1.3462-1.3208 1.0922-0.635-0.3048 0.2032-7.0104 0.6096-8.3058 0.2286-0.6858-1.397-1.0668-2.2352-1.0668-0.762 0-1.3462 0.1778-1.8796 0.889-0.9652 1.27-2.032 3.2512-2.794 4.8768 0.1778-1.651 0.4064-3.1242 0.6604-4.191 0.1778-0.762-0.5842-1.1938-1.5748-1.1938-0.9398 0-2.0574 0.3556-2.4384 1.0414-0.6858 1.27-1.6256 3.7084-2.0574 5.1562-0.3556-0.1778 0.1524-4.191 0.3048-4.7244 0.0254-0.2286 0.0762-0.4064 0.0762-0.6096 0-0.9144-0.9144-1.1176-1.8034-1.1176-1.0922 0-2.2098 0.3048-2.3114 1.524-0.2286 2.9464-0.5334 7.4168 0 9.9314 0.3302 1.524 2.9464 1.3462 3.2766 1.3462 0.5334 0 0.762-0.2794 0.889-0.9906 0.2286-0.9144 1.016-2.7432 1.905-4.3942 0.0254 1.7018 0.127 3.683 0.3556 4.2926 0.2032 0.5842 1.5748 1.1938 2.5654 1.1938 0.5588 0 1.2192-3.6576 2.6924-6.2738-0.2794 3.2258 0.3302 6.1976 2.8702 6.1976 1.6764 0 2.4892-2.413 2.4892-4.0386 0-0.3556-0.0762-0.635-0.2794-0.635z"/>
   <path d="m44.546 50.398c0 1.7272 0.7366 2.54 2.3368 2.54 0.3302 0 0.5588-0.127 0.635-0.5334l0.8636-3.2258c0.1778-0.6858-1.27-1.2446-2.3114-1.2446-0.6604 0-1.27 0.1016-1.3462 0.4826-0.1524 0.6858-0.1778 1.3208-0.1778 1.9812zm2.794 16.891c1.6256-0.0254 2.5908-1.4732 2.5654-3.6322-0.0254-1.016-0.254-1.1176-0.5334-1.1176-0.4826 0-0.5842 1.3462-1.2446 1.3716-0.8128 0-0.6604-5.6388 0.0254-8.0264 0.0254-0.1778 0.0762-0.3556 0.0762-0.5334 0-0.889-0.8128-1.27-2.032-1.2446-0.9906 0-2.1082 0.2794-2.1844 0.9652-0.1778 1.4478-0.3302 3.2512-0.3302 4.4958 0.0762 3.81 0.9652 7.7724 3.6576 7.7216z"/>
   <path d="m54.301 67.264c1.1176-0.0508 2.2352-1.3208 2.6924-3.2258 0.2286-1.143-0.0762-1.9812-0.3556-1.9558-0.508 0-0.6858 1.397-1.27 1.397-0.762-0.0254-1.0414-9.2456-0.3302-9.271 0.6604-0.0254 1.905 0 2.2352-0.0254s0.381-0.2032 0.4572-0.762c0.1778-1.7018 0.0508-2.1336-1.9304-2.0828-0.3556 0.0508-0.508-0.2286-0.5334-0.6096-0.0254-1.0414 0.7874-1.651 0.7366-2.1844 0-0.5842-0.9144-0.8128-1.9304-0.762-1.6002 0.0508-2.3876 0.889-2.4892 2.8702-0.0508 1.0414-0.1524 0.6604-1.524 0.7366-0.5588 0.0254-0.8128 0.7874-0.7874 1.1938 0.0508 0.8382 0.8382 1.6256 1.0922 1.6256 0.2032 0 0.762-0.1778 0.635 1.0668-0.0508 0.5588-0.2032 3.683-0.127 5.842 0.1778 3.2766 1.1684 6.2484 3.429 6.1468z"/>
   <path d="m62.467 67.467c2.7686 0 4.2164-2.4384 4.2164-3.8862 0-1.2192-0.8128-1.6002-1.5494-1.6002-0.3048 0-1.0668 0.1016-1.2954 0.3302 0.1778 1.016-0.508 1.8288-0.8636 1.8288-0.7366 0-1.3462-1.3462-1.3462-3.6068 0-1.651 0.508-2.9464 1.2192-2.9464 0.635 0 0.1778 2.286 0.5334 2.667 0.0762 0.0508 0.5842 0.1778 1.1938 0.1778 1.1938 0 1.8034-0.7112 1.8034-2.3114 0-2.5908-0.8128-4.4196-3.2512-4.4196-0.5334 0-1.0922 0.1778-1.6764 0.508-0.2032 0.1524-0.4318 0.1778-0.6858 0.1778-1.7272 0-2.921 3.2766-2.921 6.096 0.0254 5.6642 3.0226 6.985 4.6228 6.985z"/>
   <path d="m71.175 67.06c0.2794 0.0762 0.508 0.127 0.7112 0.127 0.6096 0 0.9398-0.4064 1.0668-1.2446 0.2032-1.0922 0.9652-5.3086 1.3462-5.2578 0.381 0.0762-0.6604 6.477 2.2352 6.477 1.397 0 2.5146-1.4224 2.5146-2.8702 0-0.6604-0.2794-1.524-0.6096-1.524-0.2794 0-0.4572 1.4478-1.0922 1.0668-0.6096-0.381 0.0762-6.2484 0.508-7.6454 0.0762-0.1778 0.0762-0.3556 0.0762-0.4826 0-1.016-1.6002-1.3716-2.9718-1.2446-1.4732 0.2032-2.667 3.3274-3.302 5.5626-0.1524-0.0508-0.2032-0.5334-0.2032-1.3208 0-2.7432 0.7112-8.7884 0.7366-8.9916 0.0508-0.1778 0.0508-0.3556 0.0508-0.4826 0-1.016-1.0922-1.4224-2.1082-1.4224-1.4224 0-1.8796 0.254-1.9812 1.5494-0.0508 1.4986-0.254 5.7912-0.254 8.2042 0 0.4826 0 0.889 0.0254 1.1938 0.0254 0.9144 0 1.8288 0.1016 2.7432 0.127 1.2192 0.1778 2.4638 0.5842 3.6576 0.127 0.4318 0.2286 0.9144 0.7112 1.1176 0.6096 0.2794 1.2192 0.5842 1.8542 0.7874z"/>
   <path d="m79.274 60.304c0.0254 5.2578 3.2258 7.2136 5.2832 7.2136 2.8194 0 5.2324-2.9718 3.0988-4.318-0.0508-0.0508-0.127-0.0254-0.1524 0.0508-0.381 0.7874-1.2446 1.3208-2.0828 1.3208-0.9906 0-1.7526-1.0922-1.7018-2.286 0.0254-0.127 0.0762-0.1524 0.1778-0.0762 0.254 0.254 0.8382 0.7112 1.4224 0.7112 2.667 0 3.0734-2.8448 3.0734-4.7244 0-2.2098-0.6604-4.4958-3.2004-4.4958-0.889 0-1.397 0.3556-2.0574 0.4318-2.921 0.3556-3.8354 2.3368-3.8608 6.1722zm4.5466 0.0508c-0.9906 0-0.6096-3.4798 0.4318-3.4798s0.6096 3.4798-0.4318 3.4798z"/>
   <path d="m93.132 67.391c1.143 0 2.3114-1.27 2.794-3.2258 0.0508-0.2794 0.0762-0.5334 0.0762-0.7874 0-0.7112-0.2286-1.1938-0.4318-1.1684-0.508 0-0.6858 1.397-1.27 1.397-0.4064-0.0254-0.7366-2.6924-0.8128-5.1308 0.6604-2.7686 1.7018-6.1976 1.7018-9.6774 0-0.5588-0.8382-1.016-1.778-1.016-3.175 0-3.7592 4.2926-3.7592 8.509 0 3.302-0.127 11.1 3.4798 11.1z"/>
   <path d="m99.631 67.391c1.143 0 2.3114-1.27 2.794-3.2258 0.0508-0.2794 0.0762-0.5334 0.0762-0.7874 0-0.7112-0.2286-1.1938-0.4318-1.1684-0.508 0-0.6858 1.397-1.27 1.397-0.4064-0.0254-0.7366-2.6924-0.8128-5.1308 0.6604-2.7686 1.7018-6.1976 1.7018-9.6774 0-0.5588-0.8382-1.016-1.778-1.016-3.175 0-3.7592 4.2926-3.7592 8.509 0 3.302-0.127 11.1 3.4798 11.1z"/>
   <path d="m32.773 76.361c-2.159 0-3.302 2.4892-3.7592 3.7846 0.1524-2.1844 1.016-6.858 1.6256-8.8138 0.1778-0.6604-1.1684-0.889-1.9812-0.9144-1.0668 0.0254-2.0066 0.381-2.1844 1.3462-0.9398 3.7846-1.4478 11.074-0.5842 15.062 0.381 1.6256 2.6162 2.7178 5.3848 2.7432 2.8956 0 5.0038-3.683 5.0038-7.747 0-3.0226-0.9906-5.461-3.5052-5.461zm-1.778 9.9568c-1.0668 0.127-0.9398-6.5532 0.6858-6.6802 0.9144-0.0508 0.6858 6.604-0.6858 6.6802zm-2.2098-5.4102v0z"/>
   <path d="m40.506 89.087c2.0066 0 2.7686-1.4732 3.556-3.3274 0.2286 1.6764 1.3716 3.2258 2.6416 3.2004 2.0066-0.0254 2.8448-4.191 2.0066-4.445-0.635-0.2032-0.4572 0.9906-1.0922 0.9906-0.3556 0-0.7112-0.9906-0.7112-3.4798 0-1.2192 0.1524-2.1844 0.635-3.9116 0.0508-0.2032 0.0762-0.4064 0.0762-0.5842 0-0.8636-1.016-1.397-1.8796-1.397s-0.9652 0.3556-1.778 0.3556c-0.3302 0-0.6858-0.3048-1.524-0.3048-3.8354 0-5.1562 3.3274-5.1562 7.493 0 3.2258 1.016 5.4102 3.2258 5.4102zm1.3462-3.4544c-1.0668 0-0.7112-6.5024 0.9906-6.5024 0.9906 0 0.3556 6.5024-0.9906 6.5024z"/>
   <path d="m58.5 82.584c-0.635-0.2286-1.0922-2.5654 0.1016-4.1402 0.1524-0.2032 0.127-0.4318 0.127-0.5842 0-0.4572-1.3208-1.6256-1.905-1.6256-1.0414 0-2.4384 1.905-3.302 3.9624 0.0508-0.762 0.0762-1.4986 0.0762-1.9304 0-0.9144-1.3462-1.7018-2.2606-1.7018-0.889 0-1.9812 0.127-1.6002 1.0414 0.5842 1.397 0.1778 4.8514 0.2286 7.3914 0.0508 2.7178 0 3.2766 2.9464 4.0386 0.4318 0.1016 0.889-0.254 0.7874-0.6604-0.0508-0.2286-0.1016-0.4826-0.1016-0.7874 0-3.4036 0.5588-5.2578 1.4224-6.7818-0.0508 2.032 1.6256 3.0226 3.4544 2.4892 0.254-0.0762 0.4826-0.5334 0.0254-0.7112z"/>
   <path d="m63.727 89.239c1.1176-0.0508 2.2352-1.3208 2.6924-3.2258 0.2286-1.143-0.0762-1.9812-0.3556-1.9558-0.508 0-0.6858 1.397-1.27 1.397-0.762-0.0254-1.0414-9.2456-0.3302-9.271 0.6604-0.0254 1.905 0 2.2352-0.0254s0.381-0.2032 0.4572-0.762c0.1778-1.7018 0.0508-2.1336-1.9304-2.0828-0.3556 0.0508-0.508-0.2286-0.5334-0.6096-0.0254-1.0414 0.7874-1.651 0.7366-2.1844 0-0.5842-0.9144-0.8128-1.9304-0.762-1.6002 0.0508-2.3876 0.889-2.4892 2.8702-0.0508 1.0414-0.1524 0.6604-1.524 0.7366-0.5588 0.0254-0.8128 0.7874-0.7874 1.1938 0.0508 0.8382 0.8382 1.6256 1.0922 1.6256 0.2032 0 0.762-0.1778 0.635 1.0668-0.0508 0.5588-0.2032 3.683-0.127 5.842 0.1778 3.2766 1.1684 6.2484 3.429 6.1468z"/>
   <path d="m67.022 83.067c0.0508 4.1656 1.4732 6.5786 5.8674 6.5024 2.5654-0.0508 3.556-4.7498 3.3782-8.3566-0.1016-2.3368-0.508-4.5466-3.2004-4.8768-0.762-0.0508-0.4572-0.254-1.1684-0.4572-0.1778-0.0762-0.4826-0.0762-0.7112-0.0762-2.8956 0.0762-4.2164 3.7592-4.1656 7.2644zm5.1308-3.8862c0.3556 0 0.635 1.016 0.635 2.3114 0 2.1082-0.5588 4.9022-1.27 4.9022-0.3302 0-0.6604-1.27-0.6604-2.7686 0-2.032 0.4826-4.445 1.2954-4.445z"/>
   <path d="m81.176 89.366c1.143 0 2.3114-1.27 2.794-3.2258 0.0508-0.2794 0.0762-0.5334 0.0762-0.7874 0-0.7112-0.2286-1.1938-0.4318-1.1684-0.508 0-0.6858 1.397-1.27 1.397-0.4064-0.0254-0.7366-2.6924-0.8128-5.1308 0.6604-2.7686 1.7018-6.1976 1.7018-9.6774 0-0.5588-0.8382-1.016-1.778-1.016-3.175 0-3.7592 4.2926-3.7592 8.509 0 3.302-0.127 11.1 3.4798 11.1z"/>
   <path d="m84.583 83.067c0.0508 4.1656 1.4732 6.5786 5.8674 6.5024 2.5654-0.0508 3.556-4.7498 3.3782-8.3566-0.1016-2.3368-0.508-4.5466-3.2004-4.8768-0.762-0.0508-0.4572-0.254-1.1684-0.4572-0.1778-0.0762-0.4826-0.0762-0.7112-0.0762-2.8956 0.0762-4.2164 3.7592-4.1656 7.2644zm5.1308-3.8862c0.3556 0 0.635 1.016 0.635 2.3114 0 2.1082-0.5588 4.9022-1.27 4.9022-0.3302 0-0.6604-1.27-0.6604-2.7686 0-2.032 0.4826-4.445 1.2954-4.445z"/>
   <path d="m36.786 106.3c-0.508 0-0.6604 1.2446-1.0668 1.2446-0.5334 0-0.762-2.0574-0.762-4.5212 0-3.1496 1.2446-8.8138 1.2446-9.271 0-1.1684-1.2954-1.905-2.6924-1.905-0.5842 0.0508-1.016 0.2286-1.143 0.9144-0.3302 1.4224-0.7112 4.2926-0.6096 6.3246-0.6858-0.4826-1.5748-0.889-2.7686-0.889-2.2352 0-3.7592 3.4544-3.7592 7.0358 0 3.1496 1.27 5.8928 4.2164 5.8928 1.2954 0 2.2606-1.0922 2.9464-2.4384 0.3048 0.9906 0.9652 2.4384 2.667 2.4384 2.0828 0 2.8194-4.8514 1.7272-4.826zm-6.7056 1.2446c-0.4826 0-1.0414-1.397-1.0414-2.921 0-1.8796 0.9144-3.7846 1.8034-3.5052 0.5588 0.1778 0.635 1.143 0.635 2.5654 0 1.3208-0.635 3.8608-1.397 3.8608z"/>
   <path d="m37.802 105.08c0.0508 4.1656 1.4732 6.5786 5.8674 6.5024 2.5654-0.0508 3.556-4.7498 3.3782-8.3566-0.1016-2.3368-0.508-4.5466-3.2004-4.8768-0.762-0.0508-0.4572-0.254-1.1684-0.4572-0.1778-0.0762-0.4826-0.0762-0.7112-0.0762-2.8956 0.0762-4.2164 3.7592-4.1656 7.2644zm5.1308-3.8862c0.3556 0 0.635 1.016 0.635 2.3114 0 2.1082-0.5588 4.9022-1.27 4.9022-0.3302 0-0.6604-1.27-0.6604-2.7686 0-2.032 0.4826-4.445 1.2954-4.445z"/>
   <path d="m52.019 111.25c1.1176-0.0508 2.2352-1.3208 2.6924-3.2258 0.2286-1.143-0.0762-1.9812-0.3556-1.9558-0.508 0-0.6858 1.397-1.27 1.397-0.762-0.0254-1.0414-9.2456-0.3302-9.271 0.6604-0.0254 1.905 0 2.2352-0.0254s0.381-0.2032 0.4572-0.762c0.1778-1.7018 0.0508-2.1336-1.9304-2.0828-0.3556 0.0508-0.508-0.2286-0.5334-0.6096-0.0254-1.0414 0.7874-1.651 0.7366-2.1844 0-0.5842-0.9144-0.8128-1.9304-0.762-1.6002 0.0508-2.3876 0.889-2.4892 2.8702-0.0508 1.0414-0.1524 0.6604-1.524 0.7366-0.5588 0.0254-0.8128 0.7874-0.7874 1.1938 0.0508 0.8382 0.8382 1.6256 1.0922 1.6256 0.2032 0 0.762-0.1778 0.635 1.0668-0.0508 0.5588-0.2032 3.683-0.127 5.842 0.1778 3.2766 1.1684 6.2484 3.429 6.1468z"/>
   <path d="m66.535 111.46c2.7686 0 4.2164-2.4384 4.2164-3.8862 0-1.2192-0.8128-1.6002-1.5494-1.6002-0.3048 0-1.0668 0.1016-1.2954 0.3302 0.1778 1.016-0.508 1.8288-0.8636 1.8288-0.7366 0-1.3462-1.3462-1.3462-3.6068 0-1.651 0.508-2.9464 1.2192-2.9464 0.635 0 0.1778 2.286 0.5334 2.667 0.0762 0.0508 0.5842 0.1778 1.1938 0.1778 1.1938 0 1.8034-0.7112 1.8034-2.3114 0-2.5908-0.8128-4.4196-3.2512-4.4196-0.5334 0-1.0922 0.1778-1.6764 0.508-0.2032 0.1524-0.4318 0.1778-0.6858 0.1778-1.7272 0-2.921 3.2766-2.921 6.096 0.0254 5.6642 3.0226 6.985 4.6228 6.985z"/>
   <path d="m71.586 105.08c0.0508 4.1656 1.4732 6.5786 5.8674 6.5024 2.5654-0.0508 3.556-4.7498 3.3782-8.3566-0.1016-2.3368-0.508-4.5466-3.2004-4.8768-0.762-0.0508-0.4572-0.254-1.1684-0.4572-0.1778-0.0762-0.4826-0.0762-0.7112-0.0762-2.8956 0.0762-4.2164 3.7592-4.1656 7.2644zm5.1308-3.8862c0.3556 0 0.635 1.016 0.635 2.3114 0 2.1082-0.5588 4.9022-1.27 4.9022-0.3302 0-0.6604-1.27-0.6604-2.7686 0-2.032 0.4826-4.445 1.2954-4.445z"/>
   <path d="m99.106 106.45c-0.5334 0-0.8128 1.3462-1.3208 1.0922-0.635-0.3048 0.2032-7.0104 0.6096-8.3058 0.2286-0.6858-1.397-1.0668-2.2352-1.0668-0.762 0-1.3462 0.1778-1.8796 0.889-0.9652 1.27-2.032 3.2512-2.794 4.8768 0.1778-1.651 0.4064-3.1242 0.6604-4.191 0.1778-0.762-0.5842-1.1938-1.5748-1.1938-0.9398 0-2.0574 0.3556-2.4384 1.0414-0.6858 1.27-1.6256 3.7084-2.0574 5.1562-0.3556-0.1778 0.1524-4.191 0.3048-4.7244 0.0254-0.2286 0.0762-0.4064 0.0762-0.6096 0-0.9144-0.9144-1.1176-1.8034-1.1176-1.0922 0-2.2098 0.3048-2.3114 1.524-0.2286 2.9464-0.5334 7.4168 0 9.9314 0.3302 1.524 2.9464 1.3462 3.2766 1.3462 0.5334 0 0.762-0.2794 0.889-0.9906 0.2286-0.9144 1.016-2.7432 1.905-4.3942 0.0254 1.7018 0.127 3.683 0.3556 4.2926 0.2032 0.5842 1.5748 1.1938 2.5654 1.1938 0.5588 0 1.2192-3.6576 2.6924-6.2738-0.2794 3.2258 0.3302 6.1976 2.8702 6.1976 1.6764 0 2.4892-2.413 2.4892-4.0386 0-0.3556-0.0762-0.635-0.2794-0.635z"/>
  </g>
  <g fill="#eef627" stroke-width=".26458" aria-label="mitchell bartolo dot com">
   <path d="m42.418 62.408c-0.5334 0-0.8128 1.3462-1.3208 1.0922-0.635-0.3048 0.2032-7.0104 0.6096-8.3058 0.2286-0.6858-1.397-1.0668-2.2352-1.0668-0.762 0-1.3462 0.1778-1.8796 0.889-0.9652 1.27-2.032 3.2512-2.794 4.8768 0.1778-1.651 0.4064-3.1242 0.6604-4.191 0.1778-0.762-0.5842-1.1938-1.5748-1.1938-0.9398 0-2.0574 0.3556-2.4384 1.0414-0.6858 1.27-1.6256 3.7084-2.0574 5.1562-0.3556-0.1778 0.1524-4.191 0.3048-4.7244 0.0254-0.2286 0.0762-0.4064 0.0762-0.6096 0-0.9144-0.9144-1.1176-1.8034-1.1176-1.0922 0-2.2098 0.3048-2.3114 1.524-0.2286 2.9464-0.5334 7.4168 0 9.9314 0.3302 1.524 2.9464 1.3462 3.2766 1.3462 0.5334 0 0.762-0.2794 0.889-0.9906 0.2286-0.9144 1.016-2.7432 1.905-4.3942 0.0254 1.7018 0.127 3.683 0.3556 4.2926 0.2032 0.5842 1.5748 1.1938 2.5654 1.1938 0.5588 0 1.2192-3.6576 2.6924-6.2738-0.2794 3.2258 0.3302 6.1976 2.8702 6.1976 1.6764 0 2.4892-2.413 2.4892-4.0386 0-0.3556-0.0762-0.635-0.2794-0.635z"/>
   <path d="m44.412 50.343c0 1.7272 0.7366 2.54 2.3368 2.54 0.3302 0 0.5588-0.127 0.635-0.5334l0.8636-3.2258c0.1778-0.6858-1.27-1.2446-2.3114-1.2446-0.6604 0-1.27 0.1016-1.3462 0.4826-0.1524 0.6858-0.1778 1.3208-0.1778 1.9812zm2.794 16.891c1.6256-0.0254 2.5908-1.4732 2.5654-3.6322-0.0254-1.016-0.254-1.1176-0.5334-1.1176-0.4826 0-0.5842 1.3462-1.2446 1.3716-0.8128 0-0.6604-5.6388 0.0254-8.0264 0.0254-0.1778 0.0762-0.3556 0.0762-0.5334 0-0.889-0.8128-1.27-2.032-1.2446-0.9906 0-2.1082 0.2794-2.1844 0.9652-0.1778 1.4478-0.3302 3.2512-0.3302 4.4958 0.0762 3.81 0.9652 7.7724 3.6576 7.7216z"/>
   <path d="m54.167 67.208c1.1176-0.0508 2.2352-1.3208 2.6924-3.2258 0.2286-1.143-0.0762-1.9812-0.3556-1.9558-0.508 0-0.6858 1.397-1.27 1.397-0.762-0.0254-1.0414-9.2456-0.3302-9.271 0.6604-0.0254 1.905 0 2.2352-0.0254s0.381-0.2032 0.4572-0.762c0.1778-1.7018 0.0508-2.1336-1.9304-2.0828-0.3556 0.0508-0.508-0.2286-0.5334-0.6096-0.0254-1.0414 0.7874-1.651 0.7366-2.1844 0-0.5842-0.9144-0.8128-1.9304-0.762-1.6002 0.0508-2.3876 0.889-2.4892 2.8702-0.0508 1.0414-0.1524 0.6604-1.524 0.7366-0.5588 0.0254-0.8128 0.7874-0.7874 1.1938 0.0508 0.8382 0.8382 1.6256 1.0922 1.6256 0.2032 0 0.762-0.1778 0.635 1.0668-0.0508 0.5588-0.2032 3.683-0.127 5.842 0.1778 3.2766 1.1684 6.2484 3.429 6.1468z"/>
   <path d="m62.333 67.411c2.7686 0 4.2164-2.4384 4.2164-3.8862 0-1.2192-0.8128-1.6002-1.5494-1.6002-0.3048 0-1.0668 0.1016-1.2954 0.3302 0.1778 1.016-0.508 1.8288-0.8636 1.8288-0.7366 0-1.3462-1.3462-1.3462-3.6068 0-1.651 0.508-2.9464 1.2192-2.9464 0.635 0 0.1778 2.286 0.5334 2.667 0.0762 0.0508 0.5842 0.1778 1.1938 0.1778 1.1938 0 1.8034-0.7112 1.8034-2.3114 0-2.5908-0.8128-4.4196-3.2512-4.4196-0.5334 0-1.0922 0.1778-1.6764 0.508-0.2032 0.1524-0.4318 0.1778-0.6858 0.1778-1.7272 0-2.921 3.2766-2.921 6.096 0.0254 5.6642 3.0226 6.985 4.6228 6.985z"/>
   <path d="m71.042 67.005c0.2794 0.0762 0.508 0.127 0.7112 0.127 0.6096 0 0.9398-0.4064 1.0668-1.2446 0.2032-1.0922 0.9652-5.3086 1.3462-5.2578 0.381 0.0762-0.6604 6.477 2.2352 6.477 1.397 0 2.5146-1.4224 2.5146-2.8702 0-0.6604-0.2794-1.524-0.6096-1.524-0.2794 0-0.4572 1.4478-1.0922 1.0668-0.6096-0.381 0.0762-6.2484 0.508-7.6454 0.0762-0.1778 0.0762-0.3556 0.0762-0.4826 0-1.016-1.6002-1.3716-2.9718-1.2446-1.4732 0.2032-2.667 3.3274-3.302 5.5626-0.1524-0.0508-0.2032-0.5334-0.2032-1.3208 0-2.7432 0.7112-8.7884 0.7366-8.9916 0.0508-0.1778 0.0508-0.3556 0.0508-0.4826 0-1.016-1.0922-1.4224-2.1082-1.4224-1.4224 0-1.8796 0.254-1.9812 1.5494-0.0508 1.4986-0.254 5.7912-0.254 8.2042 0 0.4826 0 0.889 0.0254 1.1938 0.0254 0.9144 0 1.8288 0.1016 2.7432 0.127 1.2192 0.1778 2.4638 0.5842 3.6576 0.127 0.4318 0.2286 0.9144 0.7112 1.1176 0.6096 0.2794 1.2192 0.5842 1.8542 0.7874z"/>
   <path d="m79.14 60.249c0.0254 5.2578 3.2258 7.2136 5.2832 7.2136 2.8194 0 5.2324-2.9718 3.0988-4.318-0.0508-0.0508-0.127-0.0254-0.1524 0.0508-0.381 0.7874-1.2446 1.3208-2.0828 1.3208-0.9906 0-1.7526-1.0922-1.7018-2.286 0.0254-0.127 0.0762-0.1524 0.1778-0.0762 0.254 0.254 0.8382 0.7112 1.4224 0.7112 2.667 0 3.0734-2.8448 3.0734-4.7244 0-2.2098-0.6604-4.4958-3.2004-4.4958-0.889 0-1.397 0.3556-2.0574 0.4318-2.921 0.3556-3.8354 2.3368-3.8608 6.1722zm4.5466 0.0508c-0.9906 0-0.6096-3.4798 0.4318-3.4798s0.6096 3.4798-0.4318 3.4798z"/>
   <path d="m92.998 67.335c1.143 0 2.3114-1.27 2.794-3.2258 0.0508-0.2794 0.0762-0.5334 0.0762-0.7874 0-0.7112-0.2286-1.1938-0.4318-1.1684-0.508 0-0.6858 1.397-1.27 1.397-0.4064-0.0254-0.7366-2.6924-0.8128-5.1308 0.6604-2.7686 1.7018-6.1976 1.7018-9.6774 0-0.5588-0.8382-1.016-1.778-1.016-3.175 0-3.7592 4.2926-3.7592 8.509 0 3.302-0.127 11.1 3.4798 11.1z"/>
   <path d="m99.497 67.335c1.143 0 2.3114-1.27 2.794-3.2258 0.0508-0.2794 0.0762-0.5334 0.0762-0.7874 0-0.7112-0.2286-1.1938-0.4318-1.1684-0.508 0-0.6858 1.397-1.27 1.397-0.4064-0.0254-0.7366-2.6924-0.8128-5.1308 0.6604-2.7686 1.7018-6.1976 1.7018-9.6774 0-0.5588-0.8382-1.016-1.778-1.016-3.175 0-3.7592 4.2926-3.7592 8.509 0 3.302-0.127 11.1 3.4798 11.1z"/>
   <path d="m32.639 76.306c-2.159 0-3.302 2.4892-3.7592 3.7846 0.1524-2.1844 1.016-6.858 1.6256-8.8138 0.1778-0.6604-1.1684-0.889-1.9812-0.9144-1.0668 0.0254-2.0066 0.381-2.1844 1.3462-0.9398 3.7846-1.4478 11.074-0.5842 15.062 0.381 1.6256 2.6162 2.7178 5.3848 2.7432 2.8956 0 5.0038-3.683 5.0038-7.747 0-3.0226-0.9906-5.461-3.5052-5.461zm-1.778 9.9568c-1.0668 0.127-0.9398-6.5532 0.6858-6.6802 0.9144-0.0508 0.6858 6.604-0.6858 6.6802zm-2.2098-5.4102v0z"/>
   <path d="m40.373 89.031c2.0066 0 2.7686-1.4732 3.556-3.3274 0.2286 1.6764 1.3716 3.2258 2.6416 3.2004 2.0066-0.0254 2.8448-4.191 2.0066-4.445-0.635-0.2032-0.4572 0.9906-1.0922 0.9906-0.3556 0-0.7112-0.9906-0.7112-3.4798 0-1.2192 0.1524-2.1844 0.635-3.9116 0.0508-0.2032 0.0762-0.4064 0.0762-0.5842 0-0.8636-1.016-1.397-1.8796-1.397s-0.9652 0.3556-1.778 0.3556c-0.3302 0-0.6858-0.3048-1.524-0.3048-3.8354 0-5.1562 3.3274-5.1562 7.493 0 3.2258 1.016 5.4102 3.2258 5.4102zm1.3462-3.4544c-1.0668 0-0.7112-6.5024 0.9906-6.5024 0.9906 0 0.3556 6.5024-0.9906 6.5024z"/>
   <path d="m58.366 82.529c-0.635-0.2286-1.0922-2.5654 0.1016-4.1402 0.1524-0.2032 0.127-0.4318 0.127-0.5842 0-0.4572-1.3208-1.6256-1.905-1.6256-1.0414 0-2.4384 1.905-3.302 3.9624 0.0508-0.762 0.0762-1.4986 0.0762-1.9304 0-0.9144-1.3462-1.7018-2.2606-1.7018-0.889 0-1.9812 0.127-1.6002 1.0414 0.5842 1.397 0.1778 4.8514 0.2286 7.3914 0.0508 2.7178 0 3.2766 2.9464 4.0386 0.4318 0.1016 0.889-0.254 0.7874-0.6604-0.0508-0.2286-0.1016-0.4826-0.1016-0.7874 0-3.4036 0.5588-5.2578 1.4224-6.7818-0.0508 2.032 1.6256 3.0226 3.4544 2.4892 0.254-0.0762 0.4826-0.5334 0.0254-0.7112z"/>
   <path d="m63.593 89.184c1.1176-0.0508 2.2352-1.3208 2.6924-3.2258 0.2286-1.143-0.0762-1.9812-0.3556-1.9558-0.508 0-0.6858 1.397-1.27 1.397-0.762-0.0254-1.0414-9.2456-0.3302-9.271 0.6604-0.0254 1.905 0 2.2352-0.0254s0.381-0.2032 0.4572-0.762c0.1778-1.7018 0.0508-2.1336-1.9304-2.0828-0.3556 0.0508-0.508-0.2286-0.5334-0.6096-0.0254-1.0414 0.7874-1.651 0.7366-2.1844 0-0.5842-0.9144-0.8128-1.9304-0.762-1.6002 0.0508-2.3876 0.889-2.4892 2.8702-0.0508 1.0414-0.1524 0.6604-1.524 0.7366-0.5588 0.0254-0.8128 0.7874-0.7874 1.1938 0.0508 0.8382 0.8382 1.6256 1.0922 1.6256 0.2032 0 0.762-0.1778 0.635 1.0668-0.0508 0.5588-0.2032 3.683-0.127 5.842 0.1778 3.2766 1.1684 6.2484 3.429 6.1468z"/>
   <path d="m66.888 83.011c0.0508 4.1656 1.4732 6.5786 5.8674 6.5024 2.5654-0.0508 3.556-4.7498 3.3782-8.3566-0.1016-2.3368-0.508-4.5466-3.2004-4.8768-0.762-0.0508-0.4572-0.254-1.1684-0.4572-0.1778-0.0762-0.4826-0.0762-0.7112-0.0762-2.8956 0.0762-4.2164 3.7592-4.1656 7.2644zm5.1308-3.8862c0.3556 0 0.635 1.016 0.635 2.3114 0 2.1082-0.5588 4.9022-1.27 4.9022-0.3302 0-0.6604-1.27-0.6604-2.7686 0-2.032 0.4826-4.445 1.2954-4.445z"/>
   <path d="m81.042 89.311c1.143 0 2.3114-1.27 2.794-3.2258 0.0508-0.2794 0.0762-0.5334 0.0762-0.7874 0-0.7112-0.2286-1.1938-0.4318-1.1684-0.508 0-0.6858 1.397-1.27 1.397-0.4064-0.0254-0.7366-2.6924-0.8128-5.1308 0.6604-2.7686 1.7018-6.1976 1.7018-9.6774 0-0.5588-0.8382-1.016-1.778-1.016-3.175 0-3.7592 4.2926-3.7592 8.509 0 3.302-0.127 11.1 3.4798 11.1z"/>
   <path d="m84.45 83.011c0.0508 4.1656 1.4732 6.5786 5.8674 6.5024 2.5654-0.0508 3.556-4.7498 3.3782-8.3566-0.1016-2.3368-0.508-4.5466-3.2004-4.8768-0.762-0.0508-0.4572-0.254-1.1684-0.4572-0.1778-0.0762-0.4826-0.0762-0.7112-0.0762-2.8956 0.0762-4.2164 3.7592-4.1656 7.2644zm5.1308-3.8862c0.3556 0 0.635 1.016 0.635 2.3114 0 2.1082-0.5588 4.9022-1.27 4.9022-0.3302 0-0.6604-1.27-0.6604-2.7686 0-2.032 0.4826-4.445 1.2954-4.445z"/>
   <path d="m36.652 106.25c-0.508 0-0.6604 1.2446-1.0668 1.2446-0.5334 0-0.762-2.0574-0.762-4.5212 0-3.1496 1.2446-8.8138 1.2446-9.271 0-1.1684-1.2954-1.905-2.6924-1.905-0.5842 0.0508-1.016 0.2286-1.143 0.9144-0.3302 1.4224-0.7112 4.2926-0.6096 6.3246-0.6858-0.4826-1.5748-0.889-2.7686-0.889-2.2352 0-3.7592 3.4544-3.7592 7.0358 0 3.1496 1.27 5.8928 4.2164 5.8928 1.2954 0 2.2606-1.0922 2.9464-2.4384 0.3048 0.9906 0.9652 2.4384 2.667 2.4384 2.0828 0 2.8194-4.8514 1.7272-4.826zm-6.7056 1.2446c-0.4826 0-1.0414-1.397-1.0414-2.921 0-1.8796 0.9144-3.7846 1.8034-3.5052 0.5588 0.1778 0.635 1.143 0.635 2.5654 0 1.3208-0.635 3.8608-1.397 3.8608z"/>
   <path d="m37.668 105.03c0.0508 4.1656 1.4732 6.5786 5.8674 6.5024 2.5654-0.0508 3.556-4.7498 3.3782-8.3566-0.1016-2.3368-0.508-4.5466-3.2004-4.8768-0.762-0.0508-0.4572-0.254-1.1684-0.4572-0.1778-0.0762-0.4826-0.0762-0.7112-0.0762-2.8956 0.0762-4.2164 3.7592-4.1656 7.2644zm5.1308-3.8862c0.3556 0 0.635 1.016 0.635 2.3114 0 2.1082-0.5588 4.9022-1.27 4.9022-0.3302 0-0.6604-1.27-0.6604-2.7686 0-2.032 0.4826-4.445 1.2954-4.445z"/>
   <path d="m51.885 111.2c1.1176-0.0508 2.2352-1.3208 2.6924-3.2258 0.2286-1.143-0.0762-1.9812-0.3556-1.9558-0.508 0-0.6858 1.397-1.27 1.397-0.762-0.0254-1.0414-9.2456-0.3302-9.271 0.6604-0.0254 1.905 0 2.2352-0.0254s0.381-0.2032 0.4572-0.762c0.1778-1.7018 0.0508-2.1336-1.9304-2.0828-0.3556 0.0508-0.508-0.2286-0.5334-0.6096-0.0254-1.0414 0.7874-1.651 0.7366-2.1844 0-0.5842-0.9144-0.8128-1.9304-0.762-1.6002 0.0508-2.3876 0.889-2.4892 2.8702-0.0508 1.0414-0.1524 0.6604-1.524 0.7366-0.5588 0.0254-0.8128 0.7874-0.7874 1.1938 0.0508 0.8382 0.8382 1.6256 1.0922 1.6256 0.2032 0 0.762-0.1778 0.635 1.0668-0.0508 0.5588-0.2032 3.683-0.127 5.842 0.1778 3.2766 1.1684 6.2484 3.429 6.1468z"/>
   <path d="m66.401 111.4c2.7686 0 4.2164-2.4384 4.2164-3.8862 0-1.2192-0.8128-1.6002-1.5494-1.6002-0.3048 0-1.0668 0.1016-1.2954 0.3302 0.1778 1.016-0.508 1.8288-0.8636 1.8288-0.7366 0-1.3462-1.3462-1.3462-3.6068 0-1.651 0.508-2.9464 1.2192-2.9464 0.635 0 0.1778 2.286 0.5334 2.667 0.0762 0.0508 0.5842 0.1778 1.1938 0.1778 1.1938 0 1.8034-0.7112 1.8034-2.3114 0-2.5908-0.8128-4.4196-3.2512-4.4196-0.5334 0-1.0922 0.1778-1.6764 0.508-0.2032 0.1524-0.4318 0.1778-0.6858 0.1778-1.7272 0-2.921 3.2766-2.921 6.096 0.0254 5.6642 3.0226 6.985 4.6228 6.985z"/>
   <path d="m71.452 105.03c0.0508 4.1656 1.4732 6.5786 5.8674 6.5024 2.5654-0.0508 3.556-4.7498 3.3782-8.3566-0.1016-2.3368-0.508-4.5466-3.2004-4.8768-0.762-0.0508-0.4572-0.254-1.1684-0.4572-0.1778-0.0762-0.4826-0.0762-0.7112-0.0762-2.8956 0.0762-4.2164 3.7592-4.1656 7.2644zm5.1308-3.8862c0.3556 0 0.635 1.016 0.635 2.3114 0 2.1082-0.5588 4.9022-1.27 4.9022-0.3302 0-0.6604-1.27-0.6604-2.7686 0-2.032 0.4826-4.445 1.2954-4.445z"/>
   <path d="m98.973 106.4c-0.5334 0-0.8128 1.3462-1.3208 1.0922-0.635-0.3048 0.2032-7.0104 0.6096-8.3058 0.2286-0.6858-1.397-1.0668-2.2352-1.0668-0.762 0-1.3462 0.1778-1.8796 0.889-0.9652 1.27-2.032 3.2512-2.794 4.8768 0.1778-1.651 0.4064-3.1242 0.6604-4.191 0.1778-0.762-0.5842-1.1938-1.5748-1.1938-0.9398 0-2.0574 0.3556-2.4384 1.0414-0.6858 1.27-1.6256 3.7084-2.0574 5.1562-0.3556-0.1778 0.1524-4.191 0.3048-4.7244 0.0254-0.2286 0.0762-0.4064 0.0762-0.6096 0-0.9144-0.9144-1.1176-1.8034-1.1176-1.0922 0-2.2098 0.3048-2.3114 1.524-0.2286 2.9464-0.5334 7.4168 0 9.9314 0.3302 1.524 2.9464 1.3462 3.2766 1.3462 0.5334 0 0.762-0.2794 0.889-0.9906 0.2286-0.9144 1.016-2.7432 1.905-4.3942 0.0254 1.7018 0.127 3.683 0.3556 4.2926 0.2032 0.5842 1.5748 1.1938 2.5654 1.1938 0.5588 0 1.2192-3.6576 2.6924-6.2738-0.2794 3.2258 0.3302 6.1976 2.8702 6.1976 1.6764 0 2.4892-2.413 2.4892-4.0386 0-0.3556-0.0762-0.635-0.2794-0.635z"/>
  </g>
 </g>
</svg>
