<?xml version="1.0" encoding="UTF-8" standalone="no"?>
<!-- Created with Inkscape (http://www.inkscape.org/) -->

<svg
   xmlns:dc="http://purl.org/dc/elements/1.1/"
   xmlns:cc="http://creativecommons.org/ns#"
   xmlns:rdf="http://www.w3.org/1999/02/22-rdf-syntax-ns#"
   xmlns:svg="http://www.w3.org/2000/svg"
   xmlns="http://www.w3.org/2000/svg"
   xmlns:sodipodi="http://sodipodi.sourceforge.net/DTD/sodipodi-0.dtd"
   xmlns:inkscape="http://www.inkscape.org/namespaces/inkscape"
   width="82.247955mm"
   height="68.609795mm"
   viewBox="0 0 82.247955 68.609795"
   version="1.1"
   id="svg8"
   inkscape:version="0.92.0 r15299"
   sodipodi:docname="logo-opcc.svg">
  <defs
     id="defs2" />
  <sodipodi:namedview
     id="base"
     pagecolor="#ffffff"
     bordercolor="#666666"
     borderopacity="1.0"
     inkscape:pageopacity="0.0"
     inkscape:pageshadow="2"
     inkscape:zoom="1.979899"
     inkscape:cx="106.63806"
     inkscape:cy="128.81594"
     inkscape:document-units="mm"
     inkscape:current-layer="layer1"
     showgrid="false"
     inkscape:window-width="1920"
     inkscape:window-height="1017"
     inkscape:window-x="1912"
     inkscape:window-y="-8"
     inkscape:window-maximized="1"
     fit-margin-top="0"
     fit-margin-left="0"
     fit-margin-right="0"
     fit-margin-bottom="0">
    <inkscape:grid
       type="xygrid"
       id="grid4485"
       originx="-21.885354"
       originy="-182.24997" />
  </sodipodi:namedview>
  <metadata
     id="metadata5">
    <rdf:RDF>
      <cc:Work
         rdf:about="">
        <dc:format>image/svg+xml</dc:format>
        <dc:type
           rdf:resource="http://purl.org/dc/dcmitype/StillImage" />
        <dc:title></dc:title>
      </cc:Work>
    </rdf:RDF>
  </metadata>
  <g
     inkscape:label="Layer 1"
     inkscape:groupmode="layer"
     id="layer1"
     transform="translate(-21.885355,-46.140227)">
    <g
       aria-label="mitchell
bartolo
dot com"
       style="font-style:normal;font-weight:normal;font-size:10.58444302px;line-height:6.61458302px;font-family:sans-serif;letter-spacing:0px;word-spacing:0px;fill:#2b2200;fill-opacity:1;stroke:#444;stroke-width:4.46500015;stroke-miterlimit:4;stroke-dasharray:none;stroke-opacity:1"
       id="text4489">
      <path
         d="m 41.440654,63.394456 c -0.5334,0 -0.8128,1.3462 -1.3208,1.0922 -0.635,-0.3048 0.2032,-7.0104 0.6096,-8.3058 0.2286,-0.6858 -1.397,-1.0668 -2.2352,-1.0668 -0.762,0 -1.3462,0.1778 -1.8796,0.889 -0.9652,1.27 -2.031999,3.2512 -2.793999,4.8768 0.1778,-1.651 0.4064,-3.1242 0.6604,-4.191 0.1778,-0.762 -0.5842,-1.1938 -1.5748,-1.1938 -0.9398,0 -2.0574,0.3556 -2.4384,1.0414 -0.6858,1.27 -1.6256,3.7084 -2.0574,5.1562 -0.3556,-0.1778 0.1524,-4.191 0.3048,-4.7244 0.0254,-0.2286 0.0762,-0.4064 0.0762,-0.6096 0,-0.9144 -0.9144,-1.1176 -1.8034,-1.1176 -1.0922,0 -2.2098,0.3048 -2.3114,1.524 -0.2286,2.9464 -0.5334,7.4168 0,9.9314 0.3302,1.524 2.9464,1.3462 3.2766,1.3462 0.5334,0 0.762,-0.2794 0.889,-0.9906 0.2286,-0.9144 1.016,-2.7432 1.905,-4.3942 0.0254,1.7018 0.127,3.683 0.3556,4.2926 0.2032,0.5842 1.5748,1.1938 2.5654,1.1938 0.5588,0 1.2192,-3.6576 2.692399,-6.2738 -0.2794,3.2258 0.3302,6.1976 2.8702,6.1976 1.6764,0 2.4892,-2.413 2.4892,-4.0386 0,-0.3556 -0.0762,-0.635 -0.2794,-0.635 z"
         style="font-style:normal;font-variant:normal;font-weight:normal;font-stretch:normal;font-size:25.39999962px;font-family:Signorita;-inkscape-font-specification:Signorita;stroke:#444;stroke-width:4.46500015;stroke-miterlimit:4;stroke-dasharray:none;stroke-opacity:1;fill:#2b2200"
         id="path4653"
         inkscape:connector-curvature="0" />
      <path
         d="m 43.434952,51.329456 c 0,1.7272 0.7366,2.54 2.3368,2.54 0.3302,0 0.5588,-0.127 0.635,-0.5334 l 0.8636,-3.2258 c 0.1778,-0.6858 -1.27,-1.2446 -2.3114,-1.2446 -0.6604,0 -1.27,0.1016 -1.3462,0.4826 -0.1524,0.6858 -0.1778,1.3208 -0.1778,1.9812 z m 2.794,16.891 c 1.6256,-0.0254 2.5908,-1.4732 2.5654,-3.6322 -0.0254,-1.016 -0.254,-1.1176 -0.5334,-1.1176 -0.4826,0 -0.5842,1.3462 -1.2446,1.3716 -0.8128,0 -0.6604,-5.6388 0.0254,-8.0264 0.0254,-0.1778 0.0762,-0.3556 0.0762,-0.5334 0,-0.889 -0.8128,-1.27 -2.032,-1.2446 -0.9906,0 -2.1082,0.2794 -2.1844,0.9652 -0.1778,1.4478 -0.3302,3.2512 -0.3302,4.4958 0.0762,3.81 0.9652,7.7724 3.6576,7.7216 z"
         style="font-style:normal;font-variant:normal;font-weight:normal;font-stretch:normal;font-size:25.39999962px;font-family:Signorita;-inkscape-font-specification:Signorita;stroke:#444;stroke-width:4.46500015;stroke-miterlimit:4;stroke-dasharray:none;stroke-opacity:1;fill:#2b2200"
         id="path4655"
         inkscape:connector-curvature="0" />
      <path
         d="m 53.189742,68.195056 c 1.1176,-0.0508 2.2352,-1.3208 2.6924,-3.2258 0.2286,-1.143 -0.0762,-1.9812 -0.3556,-1.9558 -0.508,0 -0.6858,1.397 -1.27,1.397 -0.762,-0.0254 -1.0414,-9.2456 -0.3302,-9.271 0.6604,-0.0254 1.905,0 2.2352,-0.0254 0.3302,-0.0254 0.381,-0.2032 0.4572,-0.762 0.1778,-1.7018 0.0508,-2.1336 -1.9304,-2.0828 -0.3556,0.0508 -0.508,-0.2286 -0.5334,-0.6096 -0.0254,-1.0414 0.7874,-1.651 0.7366,-2.1844 0,-0.5842 -0.9144,-0.8128 -1.9304,-0.762 -1.6002,0.0508 -2.3876,0.889 -2.4892,2.8702 -0.0508,1.0414 -0.1524,0.6604 -1.524,0.7366 -0.5588,0.0254 -0.8128,0.7874 -0.7874,1.1938 0.0508,0.8382 0.8382,1.6256 1.0922,1.6256 0.2032,0 0.762,-0.1778 0.635,1.0668 -0.0508,0.5588 -0.2032,3.683 -0.127,5.842 0.1778,3.2766 1.1684,6.2484 3.429,6.1468 z"
         style="font-style:normal;font-variant:normal;font-weight:normal;font-stretch:normal;font-size:25.39999962px;font-family:Signorita;-inkscape-font-specification:Signorita;stroke:#444;stroke-width:4.46500015;stroke-miterlimit:4;stroke-dasharray:none;stroke-opacity:1;fill:#2b2200"
         id="path4657"
         inkscape:connector-curvature="0" />
      <path
         d="m 61.355842,68.398256 c 2.7686,0 4.2164,-2.4384 4.2164,-3.8862 0,-1.2192 -0.8128,-1.6002 -1.5494,-1.6002 -0.3048,0 -1.0668,0.1016 -1.2954,0.3302 0.1778,1.016 -0.508,1.8288 -0.8636,1.8288 -0.7366,0 -1.3462,-1.3462 -1.3462,-3.6068 0,-1.651 0.508,-2.9464 1.2192,-2.9464 0.635,0 0.1778,2.286 0.5334,2.667 0.0762,0.0508 0.5842,0.1778 1.1938,0.1778 1.1938,0 1.8034,-0.7112 1.8034,-2.3114 0,-2.5908 -0.8128,-4.4196 -3.2512,-4.4196 -0.5334,0 -1.0922,0.1778 -1.6764,0.508 -0.2032,0.1524 -0.4318,0.1778 -0.6858,0.1778 -1.7272,0 -2.921,3.2766 -2.921,6.096 0.0254,5.6642 3.0226,6.985 4.6228,6.985 z"
         style="font-style:normal;font-variant:normal;font-weight:normal;font-stretch:normal;font-size:25.39999962px;font-family:Signorita;-inkscape-font-specification:Signorita;stroke:#444;stroke-width:4.46500015;stroke-miterlimit:4;stroke-dasharray:none;stroke-opacity:1;fill:#2b2200"
         id="path4659"
         inkscape:connector-curvature="0" />
      <path
         d="m 70.06447,67.991856 c 0.2794,0.0762 0.508,0.127 0.7112,0.127 0.6096,0 0.9398,-0.4064 1.0668,-1.2446 0.2032,-1.0922 0.9652,-5.3086 1.3462,-5.2578 0.381,0.0762 -0.6604,6.477 2.2352,6.477 1.397,0 2.5146,-1.4224 2.5146,-2.8702 0,-0.6604 -0.2794,-1.524 -0.6096,-1.524 -0.2794,0 -0.4572,1.4478 -1.0922,1.0668 -0.6096,-0.381 0.0762,-6.2484 0.508,-7.6454 0.0762,-0.1778 0.0762,-0.3556 0.0762,-0.4826 0,-1.016 -1.6002,-1.3716 -2.9718,-1.2446 -1.4732,0.2032 -2.667,3.3274 -3.302,5.5626 -0.1524,-0.0508 -0.2032,-0.5334 -0.2032,-1.3208 0,-2.7432 0.7112,-8.7884 0.7366,-8.9916 0.0508,-0.1778 0.0508,-0.3556 0.0508,-0.4826 0,-1.016 -1.0922,-1.4224 -2.1082,-1.4224 -1.4224,0 -1.8796,0.254 -1.9812,1.5494 -0.0508,1.4986 -0.254,5.7912 -0.254,8.2042 0,0.4826 0,0.889 0.0254,1.1938 0.0254,0.9144 0,1.8288 0.1016,2.7432 0.127,1.2192 0.1778,2.4638 0.5842,3.6576 0.127,0.4318 0.2286,0.9144 0.7112,1.1176 0.6096,0.2794 1.2192,0.5842 1.8542,0.7874 z"
         style="font-style:normal;font-variant:normal;font-weight:normal;font-stretch:normal;font-size:25.39999962px;font-family:Signorita;-inkscape-font-specification:Signorita;stroke:#444;stroke-width:4.46500015;stroke-miterlimit:4;stroke-dasharray:none;stroke-opacity:1;fill:#2b2200"
         id="path4661"
         inkscape:connector-curvature="0" />
      <path
         d="m 78.1631,61.235456 c 0.0254,5.2578 3.2258,7.2136 5.2832,7.2136 2.8194,0 5.2324,-2.9718 3.0988,-4.318 -0.0508,-0.0508 -0.127,-0.0254 -0.1524,0.0508 -0.381,0.7874 -1.2446,1.3208 -2.0828,1.3208 -0.9906,0 -1.7526,-1.0922 -1.7018,-2.286 0.0254,-0.127 0.0762,-0.1524 0.1778,-0.0762 0.254,0.254 0.8382,0.7112 1.4224,0.7112 2.667,0 3.0734,-2.8448 3.0734,-4.7244 0,-2.2098 -0.6604,-4.4958 -3.2004,-4.4958 -0.889,0 -1.397,0.3556 -2.0574,0.4318 -2.921,0.3556 -3.8354,2.3368 -3.8608,6.1722 z m 4.5466,0.0508 c -0.9906,0 -0.6096,-3.4798 0.4318,-3.4798 1.0414,0 0.6096,3.4798 -0.4318,3.4798 z"
         style="font-style:normal;font-variant:normal;font-weight:normal;font-stretch:normal;font-size:25.39999962px;font-family:Signorita;-inkscape-font-specification:Signorita;stroke:#444;stroke-width:4.46500015;stroke-miterlimit:4;stroke-dasharray:none;stroke-opacity:1;fill:#2b2200"
         id="path4663"
         inkscape:connector-curvature="0" />
      <path
         d="m 92.020789,68.322056 c 1.143,0 2.3114,-1.27 2.794,-3.2258 0.0508,-0.2794 0.0762,-0.5334 0.0762,-0.7874 0,-0.7112 -0.2286,-1.1938 -0.4318,-1.1684 -0.508,0 -0.6858,1.397 -1.27,1.397 -0.4064,-0.0254 -0.7366,-2.6924 -0.8128,-5.1308 0.6604,-2.7686 1.7018,-6.1976 1.7018,-9.6774 0,-0.5588 -0.8382,-1.016 -1.778,-1.016 -3.175,0 -3.7592,4.2926 -3.7592,8.509 0,3.302 -0.127,11.0998 3.4798,11.0998 z"
         style="font-style:normal;font-variant:normal;font-weight:normal;font-stretch:normal;font-size:25.39999962px;font-family:Signorita;-inkscape-font-specification:Signorita;stroke:#444;stroke-width:4.46500015;stroke-miterlimit:4;stroke-dasharray:none;stroke-opacity:1;fill:#2b2200"
         id="path4665"
         inkscape:connector-curvature="0" />
      <path
         d="m 98.519614,68.322056 c 1.143,0 2.311396,-1.27 2.793996,-3.2258 0.0508,-0.2794 0.0762,-0.5334 0.0762,-0.7874 0,-0.7112 -0.2286,-1.1938 -0.4318,-1.1684 -0.508,0 -0.6858,1.397 -1.269996,1.397 -0.4064,-0.0254 -0.7366,-2.6924 -0.8128,-5.1308 0.6604,-2.7686 1.701796,-6.1976 1.701796,-9.6774 0,-0.5588 -0.838196,-1.016 -1.777996,-1.016 -3.175,0 -3.7592,4.2926 -3.7592,8.509 0,3.302 -0.127,11.0998 3.4798,11.0998 z"
         style="font-style:normal;font-variant:normal;font-weight:normal;font-stretch:normal;font-size:25.39999962px;font-family:Signorita;-inkscape-font-specification:Signorita;stroke:#444;stroke-width:4.46500015;stroke-miterlimit:4;stroke-dasharray:none;stroke-opacity:1;fill:#2b2200"
         id="path4667"
         inkscape:connector-curvature="0" />
      <path
         d="m 31.661655,77.29265 c -2.159,0 -3.302,2.4892 -3.7592,3.7846 0.1524,-2.1844 1.016,-6.858 1.6256,-8.8138 0.1778,-0.6604 -1.1684,-0.889 -1.9812,-0.9144 -1.0668,0.0254 -2.0066,0.381 -2.1844,1.3462 -0.9398,3.7846 -1.4478,11.0744 -0.5842,15.0622 0.381,1.6256 2.6162,2.7178 5.3848,2.7432 2.8956,0 5.0038,-3.683 5.0038,-7.747 0,-3.0226 -0.9906,-5.461 -3.5052,-5.461 z m -1.778,9.9568 c -1.0668,0.127 -0.9398,-6.5532 0.6858,-6.6802 0.9144,-0.0508 0.6858,6.604 -0.6858,6.6802 z m -2.2098,-5.4102 c 0,0.0254 0,0.0254 0,0 z"
         style="font-style:normal;font-variant:normal;font-weight:normal;font-stretch:normal;font-size:25.39999962px;font-family:Signorita;-inkscape-font-specification:Signorita;stroke:#444;stroke-width:4.46500015;stroke-miterlimit:4;stroke-dasharray:none;stroke-opacity:1;fill:#2b2200"
         id="path4669"
         inkscape:connector-curvature="0" />
      <path
         d="m 39.395161,90.01805 c 2.0066,0 2.7686,-1.4732 3.556,-3.3274 0.2286,1.6764 1.3716,3.2258 2.6416,3.2004 2.0066,-0.0254 2.8448,-4.191 2.0066,-4.445 -0.635,-0.2032 -0.4572,0.9906 -1.0922,0.9906 -0.3556,0 -0.7112,-0.9906 -0.7112,-3.4798 0,-1.2192 0.1524,-2.1844 0.635,-3.9116 0.0508,-0.2032 0.0762,-0.4064 0.0762,-0.5842 0,-0.8636 -1.016,-1.397 -1.8796,-1.397 -0.8636,0 -0.9652,0.3556 -1.778,0.3556 -0.3302,0 -0.6858,-0.3048 -1.524,-0.3048 -3.8354,0 -5.1562,3.3274 -5.1562,7.493 0,3.2258 1.016,5.4102 3.2258,5.4102 z m 1.3462,-3.4544 c -1.0668,0 -0.7112,-6.5024 0.9906,-6.5024 0.9906,0 0.3556,6.5024 -0.9906,6.5024 z"
         style="font-style:normal;font-variant:normal;font-weight:normal;font-stretch:normal;font-size:25.39999962px;font-family:Signorita;-inkscape-font-specification:Signorita;stroke:#444;stroke-width:4.46500015;stroke-miterlimit:4;stroke-dasharray:none;stroke-opacity:1;fill:#2b2200"
         id="path4671"
         inkscape:connector-curvature="0" />
      <path
         d="m 57.389075,83.51565 c -0.635,-0.2286 -1.0922,-2.5654 0.1016,-4.1402 0.1524,-0.2032 0.127,-0.4318 0.127,-0.5842 0,-0.4572 -1.3208,-1.6256 -1.905,-1.6256 -1.0414,0 -2.4384,1.905 -3.302,3.9624 0.0508,-0.762 0.0762,-1.4986 0.0762,-1.9304 0,-0.9144 -1.3462,-1.7018 -2.2606,-1.7018 -0.889,0 -1.9812,0.127 -1.6002,1.0414 0.5842,1.397 0.1778,4.8514 0.2286,7.3914 0.0508,2.7178 0,3.2766 2.9464,4.0386 0.4318,0.1016 0.889,-0.254 0.7874,-0.6604 -0.0508,-0.2286 -0.1016,-0.4826 -0.1016,-0.7874 0,-3.4036 0.5588,-5.2578 1.4224,-6.7818 -0.0508,2.032 1.6256,3.0226 3.4544,2.4892 0.254,-0.0762 0.4826,-0.5334 0.0254,-0.7112 z"
         style="font-style:normal;font-variant:normal;font-weight:normal;font-stretch:normal;font-size:25.39999962px;font-family:Signorita;-inkscape-font-specification:Signorita;stroke:#444;stroke-width:4.46500015;stroke-miterlimit:4;stroke-dasharray:none;stroke-opacity:1;fill:#2b2200"
         id="path4673"
         inkscape:connector-curvature="0" />
      <path
         d="m 62.615523,90.17045 c 1.1176,-0.0508 2.2352,-1.3208 2.6924,-3.2258 0.2286,-1.143 -0.0762,-1.9812 -0.3556,-1.9558 -0.508,0 -0.6858,1.397 -1.27,1.397 -0.762,-0.0254 -1.0414,-9.2456 -0.3302,-9.271 0.6604,-0.0254 1.905,0 2.2352,-0.0254 0.3302,-0.0254 0.381,-0.2032 0.4572,-0.762 0.1778,-1.7018 0.0508,-2.1336 -1.9304,-2.0828 -0.3556,0.0508 -0.508,-0.2286 -0.5334,-0.6096 -0.0254,-1.0414 0.7874,-1.651 0.7366,-2.1844 0,-0.5842 -0.9144,-0.8128 -1.9304,-0.762 -1.6002,0.0508 -2.3876,0.889 -2.4892,2.8702 -0.0508,1.0414 -0.1524,0.6604 -1.524,0.7366 -0.5588,0.0254 -0.8128,0.7874 -0.7874,1.1938 0.0508,0.8382 0.8382,1.6256 1.0922,1.6256 0.2032,0 0.762,-0.1778 0.635,1.0668 -0.0508,0.5588 -0.2032,3.683 -0.127,5.842 0.1778,3.2766 1.1684,6.2484 3.429,6.1468 z"
         style="font-style:normal;font-variant:normal;font-weight:normal;font-stretch:normal;font-size:25.39999962px;font-family:Signorita;-inkscape-font-specification:Signorita;stroke:#444;stroke-width:4.46500015;stroke-miterlimit:4;stroke-dasharray:none;stroke-opacity:1;fill:#2b2200"
         id="path4675"
         inkscape:connector-curvature="0" />
      <path
         d="m 65.910777,83.99825 c 0.0508,4.1656 1.4732,6.5786 5.867399,6.5024 2.5654,-0.0508 3.556,-4.7498 3.3782,-8.3566 -0.1016,-2.3368 -0.508,-4.5466 -3.2004,-4.8768 -0.762,-0.0508 -0.4572,-0.254 -1.1684,-0.4572 -0.1778,-0.0762 -0.4826,-0.0762 -0.7112,-0.0762 -2.895599,0.0762 -4.216399,3.7592 -4.165599,7.2644 z m 5.130799,-3.8862 c 0.3556,0 0.635,1.016 0.635,2.3114 0,2.1082 -0.5588,4.9022 -1.27,4.9022 -0.3302,0 -0.6604,-1.27 -0.6604,-2.7686 0,-2.032 0.4826,-4.445 1.2954,-4.445 z"
         style="font-style:normal;font-variant:normal;font-weight:normal;font-stretch:normal;font-size:25.39999962px;font-family:Signorita;-inkscape-font-specification:Signorita;stroke:#444;stroke-width:4.46500015;stroke-miterlimit:4;stroke-dasharray:none;stroke-opacity:1;fill:#2b2200"
         id="path4677"
         inkscape:connector-curvature="0" />
      <path
         d="m 80.064925,90.29745 c 1.143,0 2.3114,-1.27 2.794,-3.2258 0.0508,-0.2794 0.0762,-0.5334 0.0762,-0.7874 0,-0.7112 -0.2286,-1.1938 -0.4318,-1.1684 -0.508,0 -0.6858,1.397 -1.27,1.397 -0.4064,-0.0254 -0.7366,-2.6924 -0.8128,-5.1308 0.6604,-2.7686 1.7018,-6.1976 1.7018,-9.6774 0,-0.5588 -0.8382,-1.016 -1.778,-1.016 -3.175,0 -3.7592,4.2926 -3.7592,8.509 0,3.302 -0.127,11.0998 3.4798,11.0998 z"
         style="font-style:normal;font-variant:normal;font-weight:normal;font-stretch:normal;font-size:25.39999962px;font-family:Signorita;-inkscape-font-specification:Signorita;stroke:#444;stroke-width:4.46500015;stroke-miterlimit:4;stroke-dasharray:none;stroke-opacity:1;fill:#2b2200"
         id="path4679"
         inkscape:connector-curvature="0" />
      <path
         d="m 83.472495,83.99825 c 0.0508,4.1656 1.4732,6.5786 5.867399,6.5024 2.5654,-0.0508 3.556,-4.7498 3.3782,-8.3566 -0.1016,-2.3368 -0.508,-4.5466 -3.2004,-4.8768 -0.762,-0.0508 -0.4572,-0.254 -1.1684,-0.4572 -0.1778,-0.0762 -0.4826,-0.0762 -0.7112,-0.0762 -2.895599,0.0762 -4.216399,3.7592 -4.165599,7.2644 z m 5.130799,-3.8862 c 0.3556,0 0.635,1.016 0.635,2.3114 0,2.1082 -0.5588,4.9022 -1.27,4.9022 -0.3302,0 -0.6604,-1.27 -0.6604,-2.7686 0,-2.032 0.4826,-4.445 1.2954,-4.445 z"
         style="font-style:normal;font-variant:normal;font-weight:normal;font-stretch:normal;font-size:25.39999962px;font-family:Signorita;-inkscape-font-specification:Signorita;stroke:#444;stroke-width:4.46500015;stroke-miterlimit:4;stroke-dasharray:none;stroke-opacity:1;fill:#2b2200"
         id="path4681"
         inkscape:connector-curvature="0" />
      <path
         d="m 35.674854,107.23285 c -0.507999,0 -0.660399,1.2446 -1.066799,1.2446 -0.5334,0 -0.762,-2.0574 -0.762,-4.5212 0,-3.1496 1.2446,-8.813804 1.2446,-9.271004 0,-1.1684 -1.2954,-1.905 -2.6924,-1.905 -0.5842,0.0508 -1.016,0.2286 -1.143,0.9144 -0.3302,1.4224 -0.7112,4.292599 -0.6096,6.324604 -0.6858,-0.482605 -1.5748,-0.889005 -2.7686,-0.889005 -2.2352,0 -3.7592,3.454405 -3.7592,7.035805 0,3.1496 1.27,5.8928 4.2164,5.8928 1.2954,0 2.2606,-1.0922 2.9464,-2.4384 0.3048,0.9906 0.9652,2.4384 2.667,2.4384 2.082799,0 2.819399,-4.8514 1.727199,-4.826 z m -6.705599,1.2446 c -0.4826,0 -1.0414,-1.397 -1.0414,-2.921 0,-1.8796 0.9144,-3.7846 1.8034,-3.5052 0.5588,0.1778 0.635,1.143 0.635,2.5654 0,1.3208 -0.635,3.8608 -1.397,3.8608 z"
         style="font-style:normal;font-variant:normal;font-weight:normal;font-stretch:normal;font-size:25.39999962px;font-family:Signorita;-inkscape-font-specification:Signorita;stroke:#444;stroke-width:4.46500015;stroke-miterlimit:4;stroke-dasharray:none;stroke-opacity:1;fill:#2b2200"
         id="path4683"
         inkscape:connector-curvature="0" />
      <path
         d="m 36.690854,106.01365 c 0.0508,4.1656 1.4732,6.5786 5.8674,6.5024 2.5654,-0.0508 3.556,-4.7498 3.3782,-8.3566 -0.1016,-2.3368 -0.508,-4.546605 -3.2004,-4.876805 -0.762,-0.0508 -0.4572,-0.254 -1.1684,-0.4572 -0.1778,-0.0762 -0.4826,-0.0762 -0.7112,-0.0762 -2.8956,0.0762 -4.2164,3.759205 -4.1656,7.264405 z m 5.1308,-3.8862 c 0.3556,0 0.635,1.016 0.635,2.3114 0,2.1082 -0.5588,4.9022 -1.27,4.9022 -0.3302,0 -0.6604,-1.27 -0.6604,-2.7686 0,-2.032 0.4826,-4.445 1.2954,-4.445 z"
         style="font-style:normal;font-variant:normal;font-weight:normal;font-stretch:normal;font-size:25.39999962px;font-family:Signorita;-inkscape-font-specification:Signorita;stroke:#444;stroke-width:4.46500015;stroke-miterlimit:4;stroke-dasharray:none;stroke-opacity:1;fill:#2b2200"
         id="path4685"
         inkscape:connector-curvature="0" />
      <path
         d="m 50.90771,112.18585 c 1.1176,-0.0508 2.2352,-1.3208 2.6924,-3.2258 0.2286,-1.143 -0.0762,-1.9812 -0.3556,-1.9558 -0.508,0 -0.6858,1.397 -1.27,1.397 -0.762,-0.0254 -1.0414,-9.245605 -0.3302,-9.271005 0.6604,-0.0254 1.905,0 2.2352,-0.0254 0.3302,-0.0254 0.381,-0.2032 0.4572,-0.762 0.1778,-1.701799 0.0508,-2.133599 -1.9304,-2.082799 -0.3556,0.0508 -0.508,-0.2286 -0.5334,-0.6096 -0.0254,-1.0414 0.7874,-1.651 0.7366,-2.1844 0,-0.5842 -0.9144,-0.8128 -1.9304,-0.762 -1.6002,0.0508 -2.3876,0.889 -2.4892,2.8702 -0.0508,1.0414 -0.1524,0.6604 -1.524,0.7366 -0.5588,0.0254 -0.8128,0.787399 -0.7874,1.193799 0.0508,0.8382 0.8382,1.6256 1.0922,1.6256 0.2032,0 0.762,-0.1778 0.635,1.066805 -0.0508,0.5588 -0.2032,3.683 -0.127,5.842 0.1778,3.2766 1.1684,6.2484 3.429,6.1468 z"
         style="font-style:normal;font-variant:normal;font-weight:normal;font-stretch:normal;font-size:25.39999962px;font-family:Signorita;-inkscape-font-specification:Signorita;stroke:#444;stroke-width:4.46500015;stroke-miterlimit:4;stroke-dasharray:none;stroke-opacity:1;fill:#2b2200"
         id="path4687"
         inkscape:connector-curvature="0" />
      <path
         d="m 65.423809,112.38905 c 2.7686,0 4.2164,-2.4384 4.2164,-3.8862 0,-1.2192 -0.8128,-1.6002 -1.5494,-1.6002 -0.3048,0 -1.0668,0.1016 -1.2954,0.3302 0.1778,1.016 -0.508,1.8288 -0.8636,1.8288 -0.7366,0 -1.3462,-1.3462 -1.3462,-3.6068 0,-1.651 0.508,-2.9464 1.2192,-2.9464 0.635,0 0.1778,2.286 0.5334,2.667 0.0762,0.0508 0.5842,0.1778 1.1938,0.1778 1.1938,0 1.8034,-0.7112 1.8034,-2.3114 0,-2.5908 -0.8128,-4.419605 -3.2512,-4.419605 -0.5334,0 -1.0922,0.1778 -1.6764,0.508 -0.2032,0.1524 -0.4318,0.1778 -0.6858,0.1778 -1.7272,0 -2.921,3.276605 -2.921,6.096005 0.0254,5.6642 3.0226,6.985 4.6228,6.985 z"
         style="font-style:normal;font-variant:normal;font-weight:normal;font-stretch:normal;font-size:25.39999962px;font-family:Signorita;-inkscape-font-specification:Signorita;stroke:#444;stroke-width:4.46500015;stroke-miterlimit:4;stroke-dasharray:none;stroke-opacity:1;fill:#2b2200"
         id="path4689"
         inkscape:connector-curvature="0" />
      <path
         d="m 70.474837,106.01365 c 0.0508,4.1656 1.4732,6.5786 5.8674,6.5024 2.5654,-0.0508 3.556,-4.7498 3.3782,-8.3566 -0.1016,-2.3368 -0.508,-4.546605 -3.2004,-4.876805 -0.762,-0.0508 -0.4572,-0.254 -1.1684,-0.4572 -0.1778,-0.0762 -0.4826,-0.0762 -0.7112,-0.0762 -2.8956,0.0762 -4.2164,3.759205 -4.1656,7.264405 z m 5.1308,-3.8862 c 0.3556,0 0.635,1.016 0.635,2.3114 0,2.1082 -0.5588,4.9022 -1.27,4.9022 -0.3302,0 -0.6604,-1.27 -0.6604,-2.7686 0,-2.032 0.4826,-4.445 1.2954,-4.445 z"
         style="font-style:normal;font-variant:normal;font-weight:normal;font-stretch:normal;font-size:25.39999962px;font-family:Signorita;-inkscape-font-specification:Signorita;stroke:#444;stroke-width:4.46500015;stroke-miterlimit:4;stroke-dasharray:none;stroke-opacity:1;fill:#2b2200"
         id="path4691"
         inkscape:connector-curvature="0" />
      <path
         d="m 97.995342,107.38525 c -0.5334,0 -0.8128,1.3462 -1.3208,1.0922 -0.635,-0.3048 0.2032,-7.0104 0.6096,-8.3058 0.2286,-0.685805 -1.397,-1.066805 -2.2352,-1.066805 -0.762,0 -1.3462,0.1778 -1.8796,0.889 -0.9652,1.270005 -2.032,3.251205 -2.794,4.876805 0.1778,-1.651 0.4064,-3.1242 0.6604,-4.191 0.1778,-0.762005 -0.5842,-1.193805 -1.5748,-1.193805 -0.9398,0 -2.0574,0.3556 -2.4384,1.041405 -0.6858,1.27 -1.6256,3.7084 -2.0574,5.1562 -0.3556,-0.1778 0.1524,-4.191 0.3048,-4.7244 0.0254,-0.2286 0.0762,-0.4064 0.0762,-0.6096 0,-0.914405 -0.9144,-1.117605 -1.8034,-1.117605 -1.0922,0 -2.2098,0.3048 -2.3114,1.524005 -0.2286,2.9464 -0.5334,7.4168 0,9.9314 0.3302,1.524 2.9464,1.3462 3.2766,1.3462 0.5334,0 0.762,-0.2794 0.889,-0.9906 0.2286,-0.9144 1.016,-2.7432 1.905,-4.3942 0.0254,1.7018 0.127,3.683 0.3556,4.2926 0.2032,0.5842 1.5748,1.1938 2.5654,1.1938 0.5588,0 1.2192,-3.6576 2.6924,-6.2738 -0.2794,3.2258 0.3302,6.1976 2.8702,6.1976 1.6764,0 2.4892,-2.413 2.4892,-4.0386 0,-0.3556 -0.0762,-0.635 -0.2794,-0.635 z"
         style="font-style:normal;font-variant:normal;font-weight:normal;font-stretch:normal;font-size:25.39999962px;font-family:Signorita;-inkscape-font-specification:Signorita;stroke:#444;stroke-width:4.46500015;stroke-miterlimit:4;stroke-dasharray:none;stroke-opacity:1;fill:#2b2200"
         id="path4693"
         inkscape:connector-curvature="0" />
    </g>
    <g
       aria-label="mitchell
bartolo
dot com"
       style="font-style:normal;font-weight:normal;font-size:10.58444302px;line-height:6.61458349px;font-family:sans-serif;letter-spacing:0px;word-spacing:0px;fill:#000000;fill-opacity:1;stroke:#111111;stroke-width:3.2650001;stroke-miterlimit:4;stroke-dasharray:none;stroke-opacity:1"
       id="text4489-4">
      <path
         d="m 42.551653,62.462937 c -0.5334,0 -0.8128,1.3462 -1.3208,1.0922 -0.635,-0.3048 0.2032,-7.010399 0.6096,-8.305799 0.2286,-0.6858 -1.397,-1.0668 -2.2352,-1.0668 -0.762,0 -1.3462,0.1778 -1.8796,0.889 -0.9652,1.27 -2.032,3.2512 -2.794,4.876799 0.1778,-1.650999 0.4064,-3.124199 0.6604,-4.190999 0.1778,-0.762 -0.5842,-1.1938 -1.5748,-1.1938 -0.9398,0 -2.0574,0.3556 -2.4384,1.0414 -0.6858,1.27 -1.6256,3.708399 -2.0574,5.156199 -0.3556,-0.1778 0.1524,-4.190999 0.3048,-4.724399 0.0254,-0.2286 0.0762,-0.4064 0.0762,-0.6096 0,-0.9144 -0.9144,-1.1176 -1.8034,-1.1176 -1.0922,0 -2.2098,0.3048 -2.3114,1.524 -0.2286,2.946399 -0.5334,7.416799 0,9.931399 0.3302,1.524 2.9464,1.3462 3.2766,1.3462 0.5334,0 0.762,-0.2794 0.889,-0.9906 0.2286,-0.9144 1.016,-2.7432 1.905,-4.3942 0.0254,1.7018 0.127,3.683 0.3556,4.2926 0.2032,0.5842 1.5748,1.1938 2.5654,1.1938 0.5588,0 1.2192,-3.6576 2.6924,-6.2738 -0.2794,3.2258 0.3302,6.1976 2.8702,6.1976 1.6764,0 2.4892,-2.413 2.4892,-4.0386 0,-0.3556 -0.0762,-0.635 -0.2794,-0.635 z"
         style="font-style:normal;font-variant:normal;font-weight:normal;font-stretch:normal;font-size:25.39999962px;font-family:Signorita;-inkscape-font-specification:Signorita;stroke:#111111;stroke-width:3.2650001;stroke-miterlimit:4;stroke-dasharray:none;stroke-opacity:1"
         id="path4610"
         inkscape:connector-curvature="0" />
      <path
         d="m 44.54595,50.397938 c 0,1.7272 0.7366,2.54 2.3368,2.54 0.3302,0 0.5588,-0.127 0.635,-0.5334 l 0.8636,-3.2258 c 0.1778,-0.6858 -1.27,-1.2446 -2.3114,-1.2446 -0.6604,0 -1.27,0.1016 -1.3462,0.4826 -0.1524,0.6858 -0.1778,1.3208 -0.1778,1.9812 z m 2.794,16.890999 c 1.6256,-0.0254 2.5908,-1.4732 2.5654,-3.6322 -0.0254,-1.016 -0.254,-1.1176 -0.5334,-1.1176 -0.4826,0 -0.5842,1.3462 -1.2446,1.3716 -0.8128,0 -0.6604,-5.638799 0.0254,-8.026399 0.0254,-0.1778 0.0762,-0.3556 0.0762,-0.5334 0,-0.889 -0.8128,-1.27 -2.032,-1.2446 -0.9906,0 -2.1082,0.2794 -2.1844,0.9652 -0.1778,1.4478 -0.3302,3.2512 -0.3302,4.495799 0.0762,3.81 0.9652,7.7724 3.6576,7.7216 z"
         style="font-style:normal;font-variant:normal;font-weight:normal;font-stretch:normal;font-size:25.39999962px;font-family:Signorita;-inkscape-font-specification:Signorita;stroke:#111111;stroke-width:3.2650001;stroke-miterlimit:4;stroke-dasharray:none;stroke-opacity:1"
         id="path4612"
         inkscape:connector-curvature="0" />
      <path
         d="m 54.30074,67.263537 c 1.1176,-0.0508 2.2352,-1.3208 2.6924,-3.2258 0.2286,-1.143 -0.0762,-1.9812 -0.3556,-1.9558 -0.508,0 -0.6858,1.397 -1.27,1.397 -0.762,-0.0254 -1.0414,-9.245599 -0.3302,-9.270999 0.6604,-0.0254 1.905,0 2.2352,-0.0254 0.3302,-0.0254 0.381,-0.2032 0.4572,-0.762 0.1778,-1.7018 0.0508,-2.1336 -1.9304,-2.0828 -0.3556,0.0508 -0.508,-0.2286 -0.5334,-0.6096 -0.0254,-1.0414 0.7874,-1.651 0.7366,-2.1844 0,-0.5842 -0.9144,-0.8128 -1.9304,-0.762 -1.6002,0.0508 -2.3876,0.889 -2.4892,2.8702 -0.0508,1.0414 -0.1524,0.6604 -1.524,0.7366 -0.5588,0.0254 -0.8128,0.7874 -0.7874,1.1938 0.0508,0.8382 0.8382,1.6256 1.0922,1.6256 0.2032,0 0.762,-0.1778 0.635,1.0668 -0.0508,0.5588 -0.2032,3.682999 -0.127,5.841999 0.1778,3.2766 1.1684,6.2484 3.429,6.1468 z"
         style="font-style:normal;font-variant:normal;font-weight:normal;font-stretch:normal;font-size:25.39999962px;font-family:Signorita;-inkscape-font-specification:Signorita;stroke:#111111;stroke-width:3.2650001;stroke-miterlimit:4;stroke-dasharray:none;stroke-opacity:1"
         id="path4614"
         inkscape:connector-curvature="0" />
      <path
         d="m 62.46684,67.466737 c 2.7686,0 4.2164,-2.4384 4.2164,-3.8862 0,-1.2192 -0.8128,-1.6002 -1.5494,-1.6002 -0.3048,0 -1.0668,0.1016 -1.2954,0.3302 0.1778,1.016 -0.508,1.8288 -0.8636,1.8288 -0.7366,0 -1.3462,-1.3462 -1.3462,-3.6068 0,-1.651 0.508,-2.946399 1.2192,-2.946399 0.635,0 0.1778,2.285999 0.5334,2.666999 0.0762,0.0508 0.5842,0.1778 1.1938,0.1778 1.1938,0 1.8034,-0.7112 1.8034,-2.311399 0,-2.5908 -0.8128,-4.4196 -3.2512,-4.4196 -0.5334,0 -1.0922,0.1778 -1.6764,0.508 -0.2032,0.1524 -0.4318,0.1778 -0.6858,0.1778 -1.7272,0 -2.921,3.2766 -2.921,6.095999 0.0254,5.6642 3.0226,6.985 4.6228,6.985 z"
         style="font-style:normal;font-variant:normal;font-weight:normal;font-stretch:normal;font-size:25.39999962px;font-family:Signorita;-inkscape-font-specification:Signorita;stroke:#111111;stroke-width:3.2650001;stroke-miterlimit:4;stroke-dasharray:none;stroke-opacity:1"
         id="path4616"
         inkscape:connector-curvature="0" />
      <path
         d="m 71.175468,67.060337 c 0.2794,0.0762 0.508,0.127 0.7112,0.127 0.6096,0 0.9398,-0.4064 1.0668,-1.2446 0.2032,-1.0922 0.9652,-5.3086 1.3462,-5.2578 0.381,0.0762 -0.6604,6.477 2.2352,6.477 1.397,0 2.5146,-1.4224 2.5146,-2.8702 0,-0.6604 -0.2794,-1.524 -0.6096,-1.524 -0.2794,0 -0.4572,1.4478 -1.0922,1.0668 -0.6096,-0.381 0.0762,-6.248399 0.508,-7.645399 0.0762,-0.1778 0.0762,-0.3556 0.0762,-0.4826 0,-1.016 -1.6002,-1.3716 -2.9718,-1.2446 -1.4732,0.2032 -2.667,3.3274 -3.302,5.562599 -0.1524,-0.0508 -0.2032,-0.5334 -0.2032,-1.3208 0,-2.743199 0.7112,-8.788399 0.7366,-8.991599 0.0508,-0.1778 0.0508,-0.3556 0.0508,-0.4826 0,-1.016 -1.0922,-1.4224 -2.1082,-1.4224 -1.4224,0 -1.8796,0.254 -1.9812,1.5494 -0.0508,1.4986 -0.254,5.7912 -0.254,8.2042 0,0.4826 0,0.889 0.0254,1.193799 0.0254,0.9144 0,1.8288 0.1016,2.7432 0.127,1.2192 0.1778,2.4638 0.5842,3.6576 0.127,0.4318 0.2286,0.9144 0.7112,1.1176 0.6096,0.2794 1.2192,0.5842 1.8542,0.7874 z"
         style="font-style:normal;font-variant:normal;font-weight:normal;font-stretch:normal;font-size:25.39999962px;font-family:Signorita;-inkscape-font-specification:Signorita;stroke:#111111;stroke-width:3.2650001;stroke-miterlimit:4;stroke-dasharray:none;stroke-opacity:1"
         id="path4618"
         inkscape:connector-curvature="0" />
      <path
         d="m 79.274098,60.303937 c 0.0254,5.2578 3.2258,7.2136 5.2832,7.2136 2.8194,0 5.2324,-2.9718 3.0988,-4.318 -0.0508,-0.0508 -0.127,-0.0254 -0.1524,0.0508 -0.381,0.7874 -1.2446,1.3208 -2.0828,1.3208 -0.9906,0 -1.7526,-1.0922 -1.7018,-2.286 0.0254,-0.127 0.0762,-0.1524 0.1778,-0.0762 0.254,0.254 0.8382,0.7112 1.4224,0.7112 2.667,0 3.0734,-2.8448 3.0734,-4.724399 0,-2.2098 -0.6604,-4.4958 -3.2004,-4.4958 -0.889,0 -1.397,0.3556 -2.0574,0.4318 -2.921,0.3556 -3.8354,2.3368 -3.8608,6.172199 z m 4.5466,0.0508 c -0.9906,0 -0.6096,-3.479799 0.4318,-3.479799 1.0414,0 0.6096,3.479799 -0.4318,3.479799 z"
         style="font-style:normal;font-variant:normal;font-weight:normal;font-stretch:normal;font-size:25.39999962px;font-family:Signorita;-inkscape-font-specification:Signorita;stroke:#111111;stroke-width:3.2650001;stroke-miterlimit:4;stroke-dasharray:none;stroke-opacity:1"
         id="path4620"
         inkscape:connector-curvature="0" />
      <path
         d="m 93.131787,67.390537 c 1.143,0 2.3114,-1.27 2.794,-3.2258 0.0508,-0.2794 0.0762,-0.5334 0.0762,-0.7874 0,-0.7112 -0.2286,-1.1938 -0.4318,-1.1684 -0.508,0 -0.6858,1.397 -1.27,1.397 -0.4064,-0.0254 -0.7366,-2.6924 -0.8128,-5.130799 0.6604,-2.7686 1.7018,-6.1976 1.7018,-9.6774 0,-0.5588 -0.8382,-1.016 -1.778,-1.016 -3.175,0 -3.7592,4.2926 -3.7592,8.509 0,3.301999 -0.127,11.099799 3.4798,11.099799 z"
         style="font-style:normal;font-variant:normal;font-weight:normal;font-stretch:normal;font-size:25.39999962px;font-family:Signorita;-inkscape-font-specification:Signorita;stroke:#111111;stroke-width:3.2650001;stroke-miterlimit:4;stroke-dasharray:none;stroke-opacity:1"
         id="path4622"
         inkscape:connector-curvature="0" />
      <path
         d="m 99.630612,67.390537 c 1.142998,0 2.311398,-1.27 2.793998,-3.2258 0.0508,-0.2794 0.0762,-0.5334 0.0762,-0.7874 0,-0.7112 -0.2286,-1.1938 -0.4318,-1.1684 -0.508,0 -0.6858,1.397 -1.27,1.397 -0.4064,-0.0254 -0.7366,-2.6924 -0.812798,-5.130799 0.660398,-2.7686 1.701798,-6.1976 1.701798,-9.6774 0,-0.5588 -0.8382,-1.016 -1.777998,-1.016 -3.175,0 -3.7592,4.2926 -3.7592,8.509 0,3.301999 -0.127,11.099799 3.4798,11.099799 z"
         style="font-style:normal;font-variant:normal;font-weight:normal;font-stretch:normal;font-size:25.39999962px;font-family:Signorita;-inkscape-font-specification:Signorita;stroke:#111111;stroke-width:3.2650001;stroke-miterlimit:4;stroke-dasharray:none;stroke-opacity:1"
         id="path4624"
         inkscape:connector-curvature="0" />
      <path
         d="m 32.772653,76.361132 c -2.159,0 -3.302,2.4892 -3.7592,3.7846 0.1524,-2.1844 1.016,-6.857999 1.6256,-8.813799 0.1778,-0.6604 -1.1684,-0.889 -1.9812,-0.9144 -1.0668,0.0254 -2.0066,0.381 -2.1844,1.3462 -0.9398,3.784599 -1.4478,11.074399 -0.5842,15.062199 0.381,1.6256 2.6162,2.7178 5.3848,2.7432 2.8956,0 5.0038,-3.683 5.0038,-7.747 0,-3.0226 -0.9906,-5.461 -3.5052,-5.461 z m -1.778,9.9568 c -1.0668,0.127 -0.9398,-6.5532 0.6858,-6.6802 0.9144,-0.0508 0.6858,6.604 -0.6858,6.6802 z m -2.2098,-5.4102 c 0,0.0254 0,0.0254 0,0 z"
         style="font-style:normal;font-variant:normal;font-weight:normal;font-stretch:normal;font-size:25.39999962px;font-family:Signorita;-inkscape-font-specification:Signorita;stroke:#111111;stroke-width:3.2650001;stroke-miterlimit:4;stroke-dasharray:none;stroke-opacity:1"
         id="path4626"
         inkscape:connector-curvature="0" />
      <path
         d="m 40.506159,89.086532 c 2.0066,0 2.7686,-1.4732 3.556,-3.3274 0.2286,1.6764 1.3716,3.2258 2.6416,3.2004 2.0066,-0.0254 2.8448,-4.191 2.0066,-4.445 -0.635,-0.2032 -0.4572,0.9906 -1.0922,0.9906 -0.3556,0 -0.7112,-0.9906 -0.7112,-3.4798 0,-1.2192 0.1524,-2.1844 0.635,-3.9116 0.0508,-0.2032 0.0762,-0.4064 0.0762,-0.5842 0,-0.8636 -1.016,-1.397 -1.8796,-1.397 -0.8636,0 -0.9652,0.3556 -1.778,0.3556 -0.3302,0 -0.6858,-0.3048 -1.524,-0.3048 -3.8354,0 -5.1562,3.3274 -5.1562,7.493 0,3.2258 1.016,5.4102 3.2258,5.4102 z m 1.3462,-3.4544 c -1.0668,0 -0.7112,-6.5024 0.9906,-6.5024 0.9906,0 0.3556,6.5024 -0.9906,6.5024 z"
         style="font-style:normal;font-variant:normal;font-weight:normal;font-stretch:normal;font-size:25.39999962px;font-family:Signorita;-inkscape-font-specification:Signorita;stroke:#111111;stroke-width:3.2650001;stroke-miterlimit:4;stroke-dasharray:none;stroke-opacity:1"
         id="path4628"
         inkscape:connector-curvature="0" />
      <path
         d="m 58.500073,82.584132 c -0.635,-0.2286 -1.0922,-2.5654 0.1016,-4.1402 0.1524,-0.2032 0.127,-0.4318 0.127,-0.5842 0,-0.4572 -1.3208,-1.6256 -1.905,-1.6256 -1.0414,0 -2.4384,1.905 -3.302,3.9624 0.0508,-0.762 0.0762,-1.4986 0.0762,-1.9304 0,-0.9144 -1.3462,-1.7018 -2.2606,-1.7018 -0.889,0 -1.9812,0.127 -1.6002,1.0414 0.5842,1.397 0.1778,4.8514 0.2286,7.3914 0.0508,2.7178 0,3.2766 2.9464,4.0386 0.4318,0.1016 0.889,-0.254 0.7874,-0.6604 -0.0508,-0.2286 -0.1016,-0.4826 -0.1016,-0.7874 0,-3.4036 0.5588,-5.2578 1.4224,-6.7818 -0.0508,2.032 1.6256,3.0226 3.4544,2.4892 0.254,-0.0762 0.4826,-0.5334 0.0254,-0.7112 z"
         style="font-style:normal;font-variant:normal;font-weight:normal;font-stretch:normal;font-size:25.39999962px;font-family:Signorita;-inkscape-font-specification:Signorita;stroke:#111111;stroke-width:3.2650001;stroke-miterlimit:4;stroke-dasharray:none;stroke-opacity:1"
         id="path4630"
         inkscape:connector-curvature="0" />
      <path
         d="m 63.726522,89.238932 c 1.117599,-0.0508 2.235199,-1.3208 2.692399,-3.2258 0.2286,-1.143 -0.0762,-1.9812 -0.3556,-1.9558 -0.508,0 -0.6858,1.397 -1.27,1.397 -0.761999,-0.0254 -1.041399,-9.2456 -0.330199,-9.271 0.660399,-0.0254 1.904999,0 2.235199,-0.0254 0.3302,-0.0254 0.381,-0.2032 0.4572,-0.762 0.1778,-1.701799 0.0508,-2.133599 -1.9304,-2.082799 -0.3556,0.0508 -0.508,-0.2286 -0.5334,-0.6096 -0.0254,-1.0414 0.7874,-1.651 0.7366,-2.1844 0,-0.5842 -0.9144,-0.8128 -1.930399,-0.762 -1.6002,0.0508 -2.3876,0.889 -2.4892,2.8702 -0.0508,1.0414 -0.1524,0.6604 -1.524,0.7366 -0.5588,0.0254 -0.8128,0.7874 -0.7874,1.193799 0.0508,0.8382 0.8382,1.6256 1.0922,1.6256 0.2032,0 0.762,-0.1778 0.635,1.0668 -0.0508,0.5588 -0.2032,3.683 -0.127,5.842 0.1778,3.2766 1.1684,6.2484 3.429,6.1468 z"
         style="font-style:normal;font-variant:normal;font-weight:normal;font-stretch:normal;font-size:25.39999962px;font-family:Signorita;-inkscape-font-specification:Signorita;stroke:#111111;stroke-width:3.2650001;stroke-miterlimit:4;stroke-dasharray:none;stroke-opacity:1"
         id="path4632"
         inkscape:connector-curvature="0" />
      <path
         d="m 67.021775,83.066732 c 0.0508,4.1656 1.4732,6.5786 5.8674,6.5024 2.5654,-0.0508 3.556,-4.7498 3.3782,-8.3566 -0.1016,-2.3368 -0.508,-4.5466 -3.2004,-4.8768 -0.762,-0.0508 -0.4572,-0.254 -1.1684,-0.4572 -0.1778,-0.0762 -0.4826,-0.0762 -0.7112,-0.0762 -2.8956,0.0762 -4.2164,3.7592 -4.1656,7.2644 z m 5.1308,-3.8862 c 0.3556,0 0.635,1.016 0.635,2.3114 0,2.1082 -0.5588,4.9022 -1.27,4.9022 -0.3302,0 -0.6604,-1.27 -0.6604,-2.7686 0,-2.032 0.4826,-4.445 1.2954,-4.445 z"
         style="font-style:normal;font-variant:normal;font-weight:normal;font-stretch:normal;font-size:25.39999962px;font-family:Signorita;-inkscape-font-specification:Signorita;stroke:#111111;stroke-width:3.2650001;stroke-miterlimit:4;stroke-dasharray:none;stroke-opacity:1"
         id="path4634"
         inkscape:connector-curvature="0" />
      <path
         d="m 81.175923,89.365932 c 1.143,0 2.3114,-1.27 2.794,-3.2258 0.0508,-0.2794 0.0762,-0.5334 0.0762,-0.7874 0,-0.7112 -0.2286,-1.1938 -0.4318,-1.1684 -0.508,0 -0.6858,1.397 -1.27,1.397 -0.4064,-0.0254 -0.7366,-2.6924 -0.8128,-5.1308 0.6604,-2.7686 1.7018,-6.197599 1.7018,-9.677399 0,-0.5588 -0.8382,-1.016 -1.778,-1.016 -3.175,0 -3.7592,4.2926 -3.7592,8.508999 0,3.302 -0.127,11.0998 3.4798,11.0998 z"
         style="font-style:normal;font-variant:normal;font-weight:normal;font-stretch:normal;font-size:25.39999962px;font-family:Signorita;-inkscape-font-specification:Signorita;stroke:#111111;stroke-width:3.2650001;stroke-miterlimit:4;stroke-dasharray:none;stroke-opacity:1"
         id="path4636"
         inkscape:connector-curvature="0" />
      <path
         d="m 84.583493,83.066732 c 0.0508,4.1656 1.4732,6.5786 5.8674,6.5024 2.5654,-0.0508 3.556,-4.7498 3.3782,-8.3566 -0.1016,-2.3368 -0.508,-4.5466 -3.2004,-4.8768 -0.762,-0.0508 -0.4572,-0.254 -1.1684,-0.4572 -0.1778,-0.0762 -0.4826,-0.0762 -0.7112,-0.0762 -2.8956,0.0762 -4.2164,3.7592 -4.1656,7.2644 z m 5.1308,-3.8862 c 0.3556,0 0.635,1.016 0.635,2.3114 0,2.1082 -0.5588,4.9022 -1.27,4.9022 -0.3302,0 -0.6604,-1.27 -0.6604,-2.7686 0,-2.032 0.4826,-4.445 1.2954,-4.445 z"
         style="font-style:normal;font-variant:normal;font-weight:normal;font-stretch:normal;font-size:25.39999962px;font-family:Signorita;-inkscape-font-specification:Signorita;stroke:#111111;stroke-width:3.2650001;stroke-miterlimit:4;stroke-dasharray:none;stroke-opacity:1"
         id="path4638"
         inkscape:connector-curvature="0" />
      <path
         d="m 36.785853,106.30133 c -0.508,0 -0.6604,1.2446 -1.0668,1.2446 -0.5334,0 -0.762,-2.0574 -0.762,-4.5212 0,-3.149602 1.2446,-8.813802 1.2446,-9.271002 0,-1.1684 -1.2954,-1.905 -2.6924,-1.905 -0.5842,0.0508 -1.016,0.2286 -1.143,0.9144 -0.3302,1.4224 -0.7112,4.2926 -0.6096,6.3246 -0.6858,-0.4826 -1.5748,-0.889 -2.7686,-0.889 -2.2352,0 -3.7592,3.454402 -3.7592,7.035802 0,3.1496 1.27,5.8928 4.2164,5.8928 1.2954,0 2.2606,-1.0922 2.9464,-2.4384 0.3048,0.9906 0.9652,2.4384 2.667,2.4384 2.0828,0 2.8194,-4.8514 1.7272,-4.826 z m -6.7056,1.2446 c -0.4826,0 -1.0414,-1.397 -1.0414,-2.921 0,-1.8796 0.9144,-3.7846 1.8034,-3.5052 0.5588,0.1778 0.635,1.143 0.635,2.5654 0,1.3208 -0.635,3.8608 -1.397,3.8608 z"
         style="font-style:normal;font-variant:normal;font-weight:normal;font-stretch:normal;font-size:25.39999962px;font-family:Signorita;-inkscape-font-specification:Signorita;stroke:#111111;stroke-width:3.2650001;stroke-miterlimit:4;stroke-dasharray:none;stroke-opacity:1"
         id="path4640"
         inkscape:connector-curvature="0" />
      <path
         d="m 37.801853,105.08213 c 0.0508,4.1656 1.4732,6.5786 5.8674,6.5024 2.5654,-0.0508 3.555999,-4.7498 3.378199,-8.3566 -0.1016,-2.3368 -0.507999,-4.546602 -3.200399,-4.876802 -0.762,-0.0508 -0.4572,-0.254 -1.1684,-0.4572 -0.1778,-0.0762 -0.4826,-0.0762 -0.7112,-0.0762 -2.8956,0.0762 -4.2164,3.759202 -4.1656,7.264402 z m 5.1308,-3.8862 c 0.3556,0 0.635,1.016 0.635,2.3114 0,2.1082 -0.5588,4.9022 -1.27,4.9022 -0.3302,0 -0.6604,-1.27 -0.6604,-2.7686 0,-2.032 0.4826,-4.445 1.2954,-4.445 z"
         style="font-style:normal;font-variant:normal;font-weight:normal;font-stretch:normal;font-size:25.39999962px;font-family:Signorita;-inkscape-font-specification:Signorita;stroke:#111111;stroke-width:3.2650001;stroke-miterlimit:4;stroke-dasharray:none;stroke-opacity:1"
         id="path4642"
         inkscape:connector-curvature="0" />
      <path
         d="m 52.018708,111.25433 c 1.1176,-0.0508 2.2352,-1.3208 2.6924,-3.2258 0.2286,-1.143 -0.0762,-1.9812 -0.3556,-1.9558 -0.508,0 -0.6858,1.397 -1.27,1.397 -0.762,-0.0254 -1.0414,-9.245602 -0.3302,-9.271002 0.6604,-0.0254 1.905,0 2.2352,-0.0254 0.3302,-0.0254 0.381,-0.2032 0.4572,-0.762 0.1778,-1.7018 0.0508,-2.1336 -1.9304,-2.0828 -0.3556,0.0508 -0.508,-0.2286 -0.5334,-0.6096 -0.0254,-1.0414 0.7874,-1.651 0.7366,-2.1844 0,-0.5842 -0.9144,-0.8128 -1.9304,-0.762 -1.6002,0.0508 -2.3876,0.889 -2.4892,2.8702 -0.0508,1.0414 -0.1524,0.6604 -1.524,0.7366 -0.5588,0.0254 -0.8128,0.7874 -0.7874,1.1938 0.0508,0.8382 0.8382,1.6256 1.0922,1.6256 0.2032,0 0.762,-0.1778 0.635,1.0668 -0.0508,0.5588 -0.2032,3.683002 -0.127,5.842002 0.1778,3.2766 1.1684,6.2484 3.429,6.1468 z"
         style="font-style:normal;font-variant:normal;font-weight:normal;font-stretch:normal;font-size:25.39999962px;font-family:Signorita;-inkscape-font-specification:Signorita;stroke:#111111;stroke-width:3.2650001;stroke-miterlimit:4;stroke-dasharray:none;stroke-opacity:1"
         id="path4644"
         inkscape:connector-curvature="0" />
      <path
         d="m 66.534807,111.45753 c 2.7686,0 4.2164,-2.4384 4.2164,-3.8862 0,-1.2192 -0.8128,-1.6002 -1.5494,-1.6002 -0.3048,0 -1.0668,0.1016 -1.2954,0.3302 0.1778,1.016 -0.508,1.8288 -0.8636,1.8288 -0.7366,0 -1.3462,-1.3462 -1.3462,-3.6068 0,-1.651 0.508,-2.9464 1.2192,-2.9464 0.635,0 0.1778,2.286 0.5334,2.667 0.0762,0.0508 0.5842,0.1778 1.1938,0.1778 1.1938,0 1.8034,-0.7112 1.8034,-2.3114 0,-2.590802 -0.8128,-4.419602 -3.2512,-4.419602 -0.5334,0 -1.0922,0.1778 -1.6764,0.508 -0.2032,0.1524 -0.4318,0.1778 -0.6858,0.1778 -1.7272,0 -2.921,3.276602 -2.921,6.096002 0.0254,5.6642 3.0226,6.985 4.6228,6.985 z"
         style="font-style:normal;font-variant:normal;font-weight:normal;font-stretch:normal;font-size:25.39999962px;font-family:Signorita;-inkscape-font-specification:Signorita;stroke:#111111;stroke-width:3.2650001;stroke-miterlimit:4;stroke-dasharray:none;stroke-opacity:1"
         id="path4646"
         inkscape:connector-curvature="0" />
      <path
         d="m 71.585835,105.08213 c 0.0508,4.1656 1.4732,6.5786 5.8674,6.5024 2.5654,-0.0508 3.556,-4.7498 3.3782,-8.3566 -0.1016,-2.3368 -0.508,-4.546602 -3.2004,-4.876802 -0.762,-0.0508 -0.4572,-0.254 -1.1684,-0.4572 -0.1778,-0.0762 -0.4826,-0.0762 -0.7112,-0.0762 -2.8956,0.0762 -4.2164,3.759202 -4.1656,7.264402 z m 5.1308,-3.8862 c 0.3556,0 0.635,1.016 0.635,2.3114 0,2.1082 -0.5588,4.9022 -1.27,4.9022 -0.3302,0 -0.6604,-1.27 -0.6604,-2.7686 0,-2.032 0.4826,-4.445 1.2954,-4.445 z"
         style="font-style:normal;font-variant:normal;font-weight:normal;font-stretch:normal;font-size:25.39999962px;font-family:Signorita;-inkscape-font-specification:Signorita;stroke:#111111;stroke-width:3.2650001;stroke-miterlimit:4;stroke-dasharray:none;stroke-opacity:1"
         id="path4648"
         inkscape:connector-curvature="0" />
      <path
         d="m 99.10634,106.45373 c -0.5334,0 -0.8128,1.3462 -1.3208,1.0922 -0.635,-0.3048 0.2032,-7.0104 0.6096,-8.305802 0.2286,-0.6858 -1.397,-1.0668 -2.2352,-1.0668 -0.762,0 -1.3462,0.1778 -1.8796,0.889 -0.9652,1.270002 -2.032,3.251202 -2.794,4.876802 0.1778,-1.651 0.4064,-3.1242 0.6604,-4.191002 0.1778,-0.762 -0.5842,-1.1938 -1.5748,-1.1938 -0.9398,0 -2.0574,0.3556 -2.4384,1.0414 -0.6858,1.270002 -1.6256,3.708402 -2.0574,5.156202 -0.3556,-0.1778 0.1524,-4.191 0.3048,-4.7244 0.0254,-0.228602 0.0762,-0.406402 0.0762,-0.609602 0,-0.9144 -0.9144,-1.1176 -1.8034,-1.1176 -1.0922,0 -2.2098,0.3048 -2.3114,1.524 -0.2286,2.946402 -0.5334,7.416802 0,9.931402 0.3302,1.524 2.9464,1.3462 3.2766,1.3462 0.5334,0 0.762,-0.2794 0.889,-0.9906 0.2286,-0.9144 1.016,-2.7432 1.905,-4.3942 0.0254,1.7018 0.127,3.683 0.3556,4.2926 0.2032,0.5842 1.5748,1.1938 2.5654,1.1938 0.5588,0 1.2192,-3.6576 2.6924,-6.2738 -0.2794,3.2258 0.3302,6.1976 2.8702,6.1976 1.6764,0 2.4892,-2.413 2.4892,-4.0386 0,-0.3556 -0.0762,-0.635 -0.2794,-0.635 z"
         style="font-style:normal;font-variant:normal;font-weight:normal;font-stretch:normal;font-size:25.39999962px;font-family:Signorita;-inkscape-font-specification:Signorita;stroke:#111111;stroke-width:3.2650001;stroke-miterlimit:4;stroke-dasharray:none;stroke-opacity:1"
         id="path4650"
         inkscape:connector-curvature="0" />
    </g>
    <g
       aria-label="mitchell
bartolo
dot com"
       style="font-style:normal;font-weight:normal;font-size:10.58444302px;line-height:6.61458349px;font-family:sans-serif;letter-spacing:0px;word-spacing:0px;fill:#FFDC00;fill-opacity:1;stroke:none;stroke-width:0.26458332"
       id="text4489-1-9">
      <path
         d="m 42.418026,62.407601 c -0.5334,0 -0.8128,1.3462 -1.3208,1.0922 -0.635,-0.3048 0.2032,-7.010399 0.6096,-8.305799 0.2286,-0.6858 -1.397,-1.0668 -2.2352,-1.0668 -0.762,0 -1.3462,0.1778 -1.8796,0.889 -0.9652,1.27 -2.032,3.2512 -2.794,4.876799 0.1778,-1.650999 0.4064,-3.124199 0.6604,-4.190999 0.1778,-0.762 -0.5842,-1.1938 -1.5748,-1.1938 -0.9398,0 -2.0574,0.3556 -2.4384,1.0414 -0.6858,1.27 -1.6256,3.708399 -2.0574,5.156199 -0.3556,-0.1778 0.1524,-4.190999 0.3048,-4.724399 0.0254,-0.2286 0.0762,-0.4064 0.0762,-0.6096 0,-0.9144 -0.9144,-1.1176 -1.8034,-1.1176 -1.0922,0 -2.2098,0.3048 -2.3114,1.524 -0.2286,2.946399 -0.5334,7.416799 0,9.931399 0.3302,1.524 2.9464,1.3462 3.2766,1.3462 0.5334,0 0.762,-0.2794 0.889,-0.9906 0.2286,-0.9144 1.016,-2.7432 1.905,-4.3942 0.0254,1.7018 0.127,3.683 0.3556,4.2926 0.2032,0.5842 1.5748,1.1938 2.5654,1.1938 0.5588,0 1.2192,-3.6576 2.6924,-6.2738 -0.2794,3.2258 0.3302,6.1976 2.8702,6.1976 1.6764,0 2.4892,-2.413 2.4892,-4.0386 0,-0.3556 -0.0762,-0.635 -0.2794,-0.635 z"
         style="font-style:normal;font-variant:normal;font-weight:normal;font-stretch:normal;font-size:25.39999962px;font-family:Signorita;-inkscape-font-specification:Signorita;fill:#FFDC00;fill-opacity:1;stroke-width:0.26458332"
         id="path4567"
         inkscape:connector-curvature="0" />
      <path
         d="m 44.412323,50.342602 c 0,1.7272 0.7366,2.54 2.3368,2.54 0.3302,0 0.5588,-0.127 0.635,-0.5334 l 0.8636,-3.2258 c 0.1778,-0.6858 -1.27,-1.2446 -2.3114,-1.2446 -0.6604,0 -1.27,0.1016 -1.3462,0.4826 -0.1524,0.6858 -0.1778,1.3208 -0.1778,1.9812 z m 2.794,16.890999 c 1.6256,-0.0254 2.5908,-1.4732 2.5654,-3.6322 -0.0254,-1.016 -0.254,-1.1176 -0.5334,-1.1176 -0.4826,0 -0.5842,1.3462 -1.2446,1.3716 -0.8128,0 -0.6604,-5.638799 0.0254,-8.026399 0.0254,-0.1778 0.0762,-0.3556 0.0762,-0.5334 0,-0.889 -0.8128,-1.27 -2.032,-1.2446 -0.9906,0 -2.1082,0.2794 -2.1844,0.9652 -0.1778,1.4478 -0.3302,3.2512 -0.3302,4.495799 0.0762,3.81 0.9652,7.7724 3.6576,7.7216 z"
         style="font-style:normal;font-variant:normal;font-weight:normal;font-stretch:normal;font-size:25.39999962px;font-family:Signorita;-inkscape-font-specification:Signorita;fill:#FFDC00;fill-opacity:1;stroke-width:0.26458332"
         id="path4569"
         inkscape:connector-curvature="0" />
      <path
         d="m 54.167113,67.208201 c 1.1176,-0.0508 2.2352,-1.3208 2.6924,-3.2258 0.2286,-1.143 -0.0762,-1.9812 -0.3556,-1.9558 -0.508,0 -0.6858,1.397 -1.27,1.397 -0.762,-0.0254 -1.0414,-9.245599 -0.3302,-9.270999 0.6604,-0.0254 1.905,0 2.2352,-0.0254 0.3302,-0.0254 0.381,-0.2032 0.4572,-0.762 0.1778,-1.7018 0.0508,-2.1336 -1.9304,-2.0828 -0.3556,0.0508 -0.508,-0.2286 -0.5334,-0.6096 -0.0254,-1.0414 0.7874,-1.651 0.7366,-2.1844 0,-0.5842 -0.9144,-0.8128 -1.9304,-0.762 -1.6002,0.0508 -2.3876,0.889 -2.4892,2.8702 -0.0508,1.0414 -0.1524,0.6604 -1.524,0.7366 -0.5588,0.0254 -0.8128,0.7874 -0.7874,1.1938 0.0508,0.8382 0.8382,1.6256 1.0922,1.6256 0.2032,0 0.762,-0.1778 0.635,1.0668 -0.0508,0.5588 -0.2032,3.682999 -0.127,5.841999 0.1778,3.2766 1.1684,6.2484 3.429,6.1468 z"
         style="font-style:normal;font-variant:normal;font-weight:normal;font-stretch:normal;font-size:25.39999962px;font-family:Signorita;-inkscape-font-specification:Signorita;fill:#FFDC00;fill-opacity:1;stroke-width:0.26458332"
         id="path4571"
         inkscape:connector-curvature="0" />
      <path
         d="m 62.444213,67.411401 c 2.7686,0 4.2164,-2.4384 4.2164,-3.8862 0,-1.2192 -0.8128,-1.6002 -1.5494,-1.6002 -0.3048,0 -1.0668,0.1016 -1.2954,0.3302 0.1778,1.016 -0.508,1.8288 -0.8636,1.8288 -0.7366,0 -1.3462,-1.3462 -1.3462,-3.6068 0,-1.651 0.508,-2.946399 1.2192,-2.946399 0.635,0 0.1778,2.285999 0.5334,2.666999 0.0762,0.0508 0.5842,0.1778 1.1938,0.1778 1.1938,0 1.8034,-0.7112 1.8034,-2.311399 0,-2.5908 -0.8128,-4.4196 -3.2512,-4.4196 -0.5334,0 -1.0922,0.1778 -1.6764,0.508 -0.2032,0.1524 -0.4318,0.1778 -0.6858,0.1778 -1.7272,0 -2.921,3.2766 -2.921,6.095999 0.0254,5.6642 3.0226,6.985 4.6228,6.985 z"
         style="font-style:normal;font-variant:normal;font-weight:normal;font-stretch:normal;font-size:25.39999962px;font-family:Signorita;-inkscape-font-specification:Signorita;fill:#FFDC00;fill-opacity:1;stroke-width:0.26458332"
         id="path4573"
         inkscape:connector-curvature="0" />
      <path
         d="m 71.041841,67.005001 c 0.2794,0.0762 0.508,0.127 0.7112,0.127 0.6096,0 0.9398,-0.4064 1.0668,-1.2446 0.2032,-1.0922 0.9652,-5.3086 1.3462,-5.2578 0.381,0.0762 -0.6604,6.477 2.2352,6.477 1.397,0 2.5146,-1.4224 2.5146,-2.8702 0,-0.6604 -0.2794,-1.524 -0.6096,-1.524 -0.2794,0 -0.4572,1.4478 -1.0922,1.0668 -0.6096,-0.381 0.0762,-6.248399 0.508,-7.645399 0.0762,-0.1778 0.0762,-0.3556 0.0762,-0.4826 0,-1.016 -1.6002,-1.3716 -2.9718,-1.2446 -1.4732,0.2032 -2.667,3.3274 -3.302,5.562599 -0.1524,-0.0508 -0.2032,-0.5334 -0.2032,-1.3208 0,-2.743199 0.7112,-8.788399 0.7366,-8.991599 0.0508,-0.1778 0.0508,-0.3556 0.0508,-0.4826 0,-1.016 -1.0922,-1.4224 -2.1082,-1.4224 -1.4224,0 -1.879599,0.254 -1.981199,1.5494 -0.0508,1.4986 -0.254,5.7912 -0.254,8.2042 0,0.4826 0,0.889 0.0254,1.193799 0.0254,0.9144 0,1.8288 0.1016,2.7432 0.127,1.2192 0.1778,2.4638 0.584199,3.6576 0.127,0.4318 0.2286,0.9144 0.7112,1.1176 0.6096,0.2794 1.2192,0.5842 1.8542,0.7874 z"
         style="font-style:normal;font-variant:normal;font-weight:normal;font-stretch:normal;font-size:25.39999962px;font-family:Signorita;-inkscape-font-specification:Signorita;fill:#FFDC00;fill-opacity:1;stroke-width:0.26458332"
         id="path4575"
         inkscape:connector-curvature="0" />
      <path
         d="m 79.140471,60.248601 c 0.0254,5.2578 3.2258,7.2136 5.2832,7.2136 2.8194,0 5.2324,-2.9718 3.0988,-4.318 -0.0508,-0.0508 -0.127,-0.0254 -0.1524,0.0508 -0.381,0.7874 -1.2446,1.3208 -2.0828,1.3208 -0.9906,0 -1.7526,-1.0922 -1.7018,-2.286 0.0254,-0.127 0.0762,-0.1524 0.1778,-0.0762 0.254,0.254 0.8382,0.7112 1.4224,0.7112 2.667,0 3.0734,-2.8448 3.0734,-4.724399 0,-2.2098 -0.6604,-4.4958 -3.2004,-4.4958 -0.889,0 -1.397,0.3556 -2.0574,0.4318 -2.921,0.3556 -3.8354,2.3368 -3.8608,6.172199 z m 4.5466,0.0508 c -0.9906,0 -0.6096,-3.479799 0.4318,-3.479799 1.0414,0 0.6096,3.479799 -0.4318,3.479799 z"
         style="font-style:normal;font-variant:normal;font-weight:normal;font-stretch:normal;font-size:25.39999962px;font-family:Signorita;-inkscape-font-specification:Signorita;fill:#FFDC00;fill-opacity:1;stroke-width:0.26458332"
         id="path4577"
         inkscape:connector-curvature="0" />
      <path
         d="m 92.99816,67.335201 c 1.143,0 2.3114,-1.27 2.794,-3.2258 0.0508,-0.2794 0.0762,-0.5334 0.0762,-0.7874 0,-0.7112 -0.2286,-1.1938 -0.4318,-1.1684 -0.508,0 -0.6858,1.397 -1.27,1.397 -0.4064,-0.0254 -0.7366,-2.6924 -0.8128,-5.130799 0.6604,-2.7686 1.7018,-6.1976 1.7018,-9.6774 0,-0.5588 -0.8382,-1.016 -1.778,-1.016 -3.175,0 -3.7592,4.2926 -3.7592,8.509 0,3.301999 -0.127,11.099799 3.4798,11.099799 z"
         style="font-style:normal;font-variant:normal;font-weight:normal;font-stretch:normal;font-size:25.39999962px;font-family:Signorita;-inkscape-font-specification:Signorita;fill:#FFDC00;fill-opacity:1;stroke-width:0.26458332"
         id="path4579"
         inkscape:connector-curvature="0" />
      <path
         d="m 99.496985,67.335201 c 1.143005,0 2.311405,-1.27 2.794005,-3.2258 0.0508,-0.2794 0.0762,-0.5334 0.0762,-0.7874 0,-0.7112 -0.2286,-1.1938 -0.4318,-1.1684 -0.508,0 -0.6858,1.397 -1.27,1.397 -0.4064,-0.0254 -0.736605,-2.6924 -0.812805,-5.130799 0.660405,-2.7686 1.701805,-6.1976 1.701805,-9.6774 0,-0.5588 -0.8382,-1.016 -1.778005,-1.016 -3.175,0 -3.7592,4.2926 -3.7592,8.509 0,3.301999 -0.127,11.099799 3.4798,11.099799 z"
         style="font-style:normal;font-variant:normal;font-weight:normal;font-stretch:normal;font-size:25.39999962px;font-family:Signorita;-inkscape-font-specification:Signorita;fill:#FFDC00;fill-opacity:1;stroke-width:0.26458332"
         id="path4581"
         inkscape:connector-curvature="0" />
      <path
         d="m 32.639026,76.305796 c -2.159,0 -3.302,2.4892 -3.7592,3.7846 0.1524,-2.1844 1.016,-6.857999 1.6256,-8.813799 0.1778,-0.6604 -1.1684,-0.889 -1.9812,-0.9144 -1.0668,0.0254 -2.0066,0.381 -2.1844,1.3462 -0.9398,3.784599 -1.4478,11.074399 -0.5842,15.062199 0.381,1.6256 2.6162,2.7178 5.3848,2.7432 2.8956,0 5.0038,-3.683 5.0038,-7.747 0,-3.0226 -0.9906,-5.461 -3.5052,-5.461 z m -1.778,9.9568 c -1.0668,0.127 -0.9398,-6.5532 0.6858,-6.6802 0.9144,-0.0508 0.6858,6.604 -0.6858,6.6802 z m -2.2098,-5.4102 c 0,0.0254 0,0.0254 0,0 z"
         style="font-style:normal;font-variant:normal;font-weight:normal;font-stretch:normal;font-size:25.39999962px;font-family:Signorita;-inkscape-font-specification:Signorita;fill:#FFDC00;fill-opacity:1;stroke-width:0.26458332"
         id="path4583"
         inkscape:connector-curvature="0" />
      <path
         d="m 40.372532,89.031196 c 2.0066,0 2.7686,-1.4732 3.556,-3.3274 0.2286,1.6764 1.3716,3.2258 2.6416,3.2004 2.0066,-0.0254 2.8448,-4.191 2.0066,-4.445 -0.635,-0.2032 -0.4572,0.9906 -1.0922,0.9906 -0.3556,0 -0.7112,-0.9906 -0.7112,-3.4798 0,-1.2192 0.1524,-2.1844 0.635,-3.9116 0.0508,-0.2032 0.0762,-0.4064 0.0762,-0.5842 0,-0.8636 -1.016,-1.397 -1.8796,-1.397 -0.8636,0 -0.9652,0.3556 -1.778,0.3556 -0.3302,0 -0.6858,-0.3048 -1.524,-0.3048 -3.8354,0 -5.1562,3.3274 -5.1562,7.493 0,3.2258 1.016,5.4102 3.2258,5.4102 z m 1.3462,-3.4544 c -1.0668,0 -0.7112,-6.5024 0.9906,-6.5024 0.9906,0 0.3556,6.5024 -0.9906,6.5024 z"
         style="font-style:normal;font-variant:normal;font-weight:normal;font-stretch:normal;font-size:25.39999962px;font-family:Signorita;-inkscape-font-specification:Signorita;fill:#FFDC00;fill-opacity:1;stroke-width:0.26458332"
         id="path4585"
         inkscape:connector-curvature="0" />
      <path
         d="m 58.366446,82.528796 c -0.635,-0.2286 -1.0922,-2.5654 0.1016,-4.1402 0.1524,-0.2032 0.127,-0.4318 0.127,-0.5842 0,-0.4572 -1.3208,-1.6256 -1.905,-1.6256 -1.0414,0 -2.4384,1.905 -3.302,3.9624 0.0508,-0.762 0.0762,-1.4986 0.0762,-1.9304 0,-0.9144 -1.3462,-1.7018 -2.2606,-1.7018 -0.889,0 -1.9812,0.127 -1.6002,1.0414 0.5842,1.397 0.1778,4.8514 0.2286,7.3914 0.0508,2.7178 0,3.2766 2.9464,4.0386 0.4318,0.1016 0.889,-0.254 0.7874,-0.6604 -0.0508,-0.2286 -0.1016,-0.4826 -0.1016,-0.7874 0,-3.4036 0.5588,-5.2578 1.4224,-6.7818 -0.0508,2.032 1.6256,3.0226 3.4544,2.4892 0.254,-0.0762 0.4826,-0.5334 0.0254,-0.7112 z"
         style="font-style:normal;font-variant:normal;font-weight:normal;font-stretch:normal;font-size:25.39999962px;font-family:Signorita;-inkscape-font-specification:Signorita;fill:#FFDC00;fill-opacity:1;stroke-width:0.26458332"
         id="path4587"
         inkscape:connector-curvature="0" />
      <path
         d="m 63.592895,89.183596 c 1.1176,-0.0508 2.2352,-1.3208 2.6924,-3.2258 0.2286,-1.143 -0.0762,-1.9812 -0.3556,-1.9558 -0.508,0 -0.6858,1.397 -1.27,1.397 -0.762,-0.0254 -1.0414,-9.2456 -0.3302,-9.271 0.6604,-0.0254 1.905,0 2.2352,-0.0254 0.3302,-0.0254 0.381,-0.2032 0.4572,-0.762 0.1778,-1.701799 0.0508,-2.133599 -1.9304,-2.082799 -0.3556,0.0508 -0.508,-0.2286 -0.5334,-0.6096 -0.0254,-1.0414 0.7874,-1.651 0.7366,-2.1844 0,-0.5842 -0.9144,-0.8128 -1.9304,-0.762 -1.6002,0.0508 -2.3876,0.889 -2.4892,2.8702 -0.0508,1.0414 -0.1524,0.6604 -1.524,0.7366 -0.5588,0.0254 -0.8128,0.7874 -0.7874,1.193799 0.0508,0.8382 0.8382,1.6256 1.0922,1.6256 0.2032,0 0.762,-0.1778 0.635,1.0668 -0.0508,0.5588 -0.2032,3.683 -0.127,5.842 0.1778,3.2766 1.1684,6.2484 3.429,6.1468 z"
         style="font-style:normal;font-variant:normal;font-weight:normal;font-stretch:normal;font-size:25.39999962px;font-family:Signorita;-inkscape-font-specification:Signorita;fill:#FFDC00;fill-opacity:1;stroke-width:0.26458332"
         id="path4589"
         inkscape:connector-curvature="0" />
      <path
         d="m 66.888148,83.011396 c 0.0508,4.1656 1.4732,6.5786 5.8674,6.5024 2.5654,-0.0508 3.556,-4.7498 3.3782,-8.3566 -0.1016,-2.3368 -0.508,-4.5466 -3.2004,-4.8768 -0.762,-0.0508 -0.4572,-0.254 -1.1684,-0.4572 -0.1778,-0.0762 -0.4826,-0.0762 -0.7112,-0.0762 -2.8956,0.0762 -4.2164,3.7592 -4.1656,7.2644 z m 5.1308,-3.8862 c 0.3556,0 0.635,1.016 0.635,2.3114 0,2.1082 -0.5588,4.9022 -1.27,4.9022 -0.3302,0 -0.6604,-1.27 -0.6604,-2.7686 0,-2.032 0.4826,-4.445 1.2954,-4.445 z"
         style="font-style:normal;font-variant:normal;font-weight:normal;font-stretch:normal;font-size:25.39999962px;font-family:Signorita;-inkscape-font-specification:Signorita;fill:#FFDC00;fill-opacity:1;stroke-width:0.26458332"
         id="path4591"
         inkscape:connector-curvature="0" />
      <path
         d="m 81.042296,89.310596 c 1.143,0 2.3114,-1.27 2.794,-3.2258 0.0508,-0.2794 0.0762,-0.5334 0.0762,-0.7874 0,-0.7112 -0.2286,-1.1938 -0.4318,-1.1684 -0.508,0 -0.6858,1.397 -1.27,1.397 -0.4064,-0.0254 -0.7366,-2.6924 -0.8128,-5.1308 0.6604,-2.7686 1.7018,-6.197599 1.7018,-9.677399 0,-0.5588 -0.8382,-1.016 -1.778,-1.016 -3.175,0 -3.7592,4.2926 -3.7592,8.508999 0,3.302 -0.127,11.0998 3.4798,11.0998 z"
         style="font-style:normal;font-variant:normal;font-weight:normal;font-stretch:normal;font-size:25.39999962px;font-family:Signorita;-inkscape-font-specification:Signorita;fill:#FFDC00;fill-opacity:1;stroke-width:0.26458332"
         id="path4593"
         inkscape:connector-curvature="0" />
      <path
         d="m 84.449866,83.011396 c 0.0508,4.1656 1.4732,6.5786 5.8674,6.5024 2.5654,-0.0508 3.556,-4.7498 3.3782,-8.3566 -0.1016,-2.3368 -0.508,-4.5466 -3.2004,-4.8768 -0.762,-0.0508 -0.4572,-0.254 -1.1684,-0.4572 -0.1778,-0.0762 -0.4826,-0.0762 -0.7112,-0.0762 -2.8956,0.0762 -4.2164,3.7592 -4.1656,7.2644 z m 5.1308,-3.8862 c 0.3556,0 0.635,1.016 0.635,2.3114 0,2.1082 -0.5588,4.9022 -1.27,4.9022 -0.3302,0 -0.6604,-1.27 -0.6604,-2.7686 0,-2.032 0.4826,-4.445 1.2954,-4.445 z"
         style="font-style:normal;font-variant:normal;font-weight:normal;font-stretch:normal;font-size:25.39999962px;font-family:Signorita;-inkscape-font-specification:Signorita;fill:#FFDC00;fill-opacity:1;stroke-width:0.26458332"
         id="path4595"
         inkscape:connector-curvature="0" />
      <path
         d="m 36.652226,106.24599 c -0.508,0 -0.6604,1.2446 -1.0668,1.2446 -0.5334,0 -0.762,-2.0574 -0.762,-4.5212 0,-3.149598 1.2446,-8.813798 1.2446,-9.270998 0,-1.1684 -1.2954,-1.905 -2.6924,-1.905 -0.5842,0.0508 -1.016,0.2286 -1.143,0.9144 -0.3302,1.4224 -0.7112,4.2926 -0.6096,6.3246 -0.6858,-0.4826 -1.5748,-0.889 -2.7686,-0.889 -2.2352,0 -3.7592,3.454398 -3.7592,7.035798 0,3.1496 1.27,5.8928 4.2164,5.8928 1.2954,0 2.2606,-1.0922 2.9464,-2.4384 0.3048,0.9906 0.9652,2.4384 2.667,2.4384 2.0828,0 2.8194,-4.8514 1.7272,-4.826 z m -6.7056,1.2446 c -0.4826,0 -1.0414,-1.397 -1.0414,-2.921 0,-1.8796 0.9144,-3.7846 1.8034,-3.5052 0.5588,0.1778 0.635,1.143 0.635,2.5654 0,1.3208 -0.635,3.8608 -1.397,3.8608 z"
         style="font-style:normal;font-variant:normal;font-weight:normal;font-stretch:normal;font-size:25.39999962px;font-family:Signorita;-inkscape-font-specification:Signorita;fill:#FFDC00;fill-opacity:1;stroke-width:0.26458332"
         id="path4597"
         inkscape:connector-curvature="0" />
      <path
         d="m 37.668226,105.02679 c 0.0508,4.1656 1.4732,6.5786 5.8674,6.5024 2.5654,-0.0508 3.556,-4.7498 3.3782,-8.3566 -0.1016,-2.3368 -0.508,-4.546598 -3.2004,-4.876798 -0.762,-0.0508 -0.4572,-0.254 -1.1684,-0.4572 -0.1778,-0.0762 -0.4826,-0.0762 -0.7112,-0.0762 -2.8956,0.0762 -4.2164,3.759198 -4.1656,7.264398 z m 5.1308,-3.8862 c 0.3556,0 0.635,1.016 0.635,2.3114 0,2.1082 -0.5588,4.9022 -1.27,4.9022 -0.3302,0 -0.6604,-1.27 -0.6604,-2.7686 0,-2.032 0.4826,-4.445 1.2954,-4.445 z"
         style="font-style:normal;font-variant:normal;font-weight:normal;font-stretch:normal;font-size:25.39999962px;font-family:Signorita;-inkscape-font-specification:Signorita;fill:#FFDC00;fill-opacity:1;stroke-width:0.26458332"
         id="path4599"
         inkscape:connector-curvature="0" />
      <path
         d="m 51.885081,111.19899 c 1.1176,-0.0508 2.2352,-1.3208 2.6924,-3.2258 0.2286,-1.143 -0.0762,-1.9812 -0.3556,-1.9558 -0.508,0 -0.6858,1.397 -1.27,1.397 -0.762,-0.0254 -1.0414,-9.245598 -0.3302,-9.270998 0.6604,-0.0254 1.905,0 2.2352,-0.0254 0.3302,-0.0254 0.381,-0.2032 0.4572,-0.762 0.1778,-1.7018 0.0508,-2.1336 -1.9304,-2.0828 -0.3556,0.0508 -0.508,-0.2286 -0.5334,-0.6096 -0.0254,-1.0414 0.7874,-1.651 0.7366,-2.1844 0,-0.5842 -0.9144,-0.8128 -1.9304,-0.762 -1.6002,0.0508 -2.3876,0.889 -2.4892,2.8702 -0.0508,1.0414 -0.1524,0.6604 -1.524,0.7366 -0.5588,0.0254 -0.8128,0.7874 -0.7874,1.1938 0.0508,0.8382 0.8382,1.6256 1.0922,1.6256 0.2032,0 0.762,-0.1778 0.635,1.0668 -0.0508,0.5588 -0.2032,3.682998 -0.127,5.841998 0.1778,3.2766 1.1684,6.2484 3.429,6.1468 z"
         style="font-style:normal;font-variant:normal;font-weight:normal;font-stretch:normal;font-size:25.39999962px;font-family:Signorita;-inkscape-font-specification:Signorita;fill:#FFDC00;fill-opacity:1;stroke-width:0.26458332"
         id="path4601"
         inkscape:connector-curvature="0" />
      <path
         d="m 66.40118,111.40219 c 2.7686,0 4.2164,-2.4384 4.2164,-3.8862 0,-1.2192 -0.8128,-1.6002 -1.5494,-1.6002 -0.3048,0 -1.0668,0.1016 -1.2954,0.3302 0.1778,1.016 -0.508,1.8288 -0.8636,1.8288 -0.7366,0 -1.3462,-1.3462 -1.3462,-3.6068 0,-1.651 0.508,-2.9464 1.2192,-2.9464 0.635,0 0.1778,2.286 0.5334,2.667 0.0762,0.0508 0.5842,0.1778 1.1938,0.1778 1.1938,0 1.8034,-0.7112 1.8034,-2.3114 0,-2.590798 -0.8128,-4.419598 -3.2512,-4.419598 -0.5334,0 -1.0922,0.1778 -1.6764,0.508 -0.2032,0.1524 -0.4318,0.1778 -0.6858,0.1778 -1.7272,0 -2.921,3.276598 -2.921,6.095998 0.0254,5.6642 3.0226,6.985 4.6228,6.985 z"
         style="font-style:normal;font-variant:normal;font-weight:normal;font-stretch:normal;font-size:25.39999962px;font-family:Signorita;-inkscape-font-specification:Signorita;fill:#FFDC00;fill-opacity:1;stroke-width:0.26458332"
         id="path4603"
         inkscape:connector-curvature="0" />
      <path
         d="m 71.452208,105.02679 c 0.0508,4.1656 1.4732,6.5786 5.8674,6.5024 2.5654,-0.0508 3.556,-4.7498 3.3782,-8.3566 -0.1016,-2.3368 -0.508,-4.546598 -3.2004,-4.876798 -0.762,-0.0508 -0.4572,-0.254 -1.1684,-0.4572 -0.1778,-0.0762 -0.4826,-0.0762 -0.7112,-0.0762 -2.8956,0.0762 -4.2164,3.759198 -4.1656,7.264398 z m 5.1308,-3.8862 c 0.3556,0 0.635,1.016 0.635,2.3114 0,2.1082 -0.5588,4.9022 -1.27,4.9022 -0.3302,0 -0.6604,-1.27 -0.6604,-2.7686 0,-2.032 0.4826,-4.445 1.2954,-4.445 z"
         style="font-style:normal;font-variant:normal;font-weight:normal;font-stretch:normal;font-size:25.39999962px;font-family:Signorita;-inkscape-font-specification:Signorita;fill:#FFDC00;fill-opacity:1;stroke-width:0.26458332"
         id="path4605"
         inkscape:connector-curvature="0" />
      <path
         d="m 98.972713,106.39839 c -0.5334,0 -0.8128,1.3462 -1.3208,1.0922 -0.635,-0.3048 0.2032,-7.0104 0.6096,-8.305798 0.2286,-0.6858 -1.397,-1.0668 -2.2352,-1.0668 -0.762,0 -1.3462,0.1778 -1.8796,0.889 -0.9652,1.269998 -2.032,3.251198 -2.794,4.876798 0.1778,-1.651 0.4064,-3.1242 0.6604,-4.190998 0.1778,-0.762 -0.5842,-1.1938 -1.5748,-1.1938 -0.9398,0 -2.0574,0.3556 -2.4384,1.0414 -0.6858,1.269998 -1.6256,3.708398 -2.0574,5.156198 -0.3556,-0.1778 0.1524,-4.191 0.3048,-4.724398 0.0254,-0.2286 0.0762,-0.4064 0.0762,-0.6096 0,-0.9144 -0.9144,-1.1176 -1.8034,-1.1176 -1.0922,0 -2.2098,0.3048 -2.3114,1.524 -0.2286,2.946398 -0.5334,7.416798 0,9.931398 0.3302,1.524 2.9464,1.3462 3.2766,1.3462 0.5334,0 0.762,-0.2794 0.889,-0.9906 0.2286,-0.9144 1.016,-2.7432 1.905,-4.3942 0.0254,1.7018 0.127,3.683 0.3556,4.2926 0.2032,0.5842 1.5748,1.1938 2.5654,1.1938 0.5588,0 1.2192,-3.6576 2.6924,-6.2738 -0.2794,3.2258 0.3302,6.1976 2.8702,6.1976 1.6764,0 2.4892,-2.413 2.4892,-4.0386 0,-0.3556 -0.0762,-0.635 -0.2794,-0.635 z"
         style="font-style:normal;font-variant:normal;font-weight:normal;font-stretch:normal;font-size:25.39999962px;font-family:Signorita;-inkscape-font-specification:Signorita;fill:#FFDC00;fill-opacity:1;stroke-width:0.26458332"
         id="path4607"
         inkscape:connector-curvature="0" />
    </g>
  </g>
</svg>
