<?xml version="1.0" encoding="UTF-8" standalone="no"?>
<svg
   xmlns:dc="http://purl.org/dc/elements/1.1/"
   xmlns:cc="http://creativecommons.org/ns#"
   xmlns:rdf="http://www.w3.org/1999/02/22-rdf-syntax-ns#"
   xmlns:svg="http://www.w3.org/2000/svg"
   xmlns="http://www.w3.org/2000/svg"
   id="svg22"
   viewBox="0 0 49.727032 51.452351"
   version="1.1"
   height="51.452351mm"
   width="49.727032mm">
  <defs
     id="defs26" />
  <metadata
     id="metadata2">
    <rdf:RDF>
      <cc:Work
         rdf:about="">
        <dc:format>image/svg+xml</dc:format>
        <dc:type
           rdf:resource="http://purl.org/dc/dcmitype/StillImage" />
        <dc:title></dc:title>
      </cc:Work>
    </rdf:RDF>
  </metadata>
  <g
     style="font-size:16.93300056px;font-family:Signorita;letter-spacing:0px;word-spacing:0px"
     transform="translate(-82.015618,-74.515808)"
     id="g20"
     word-spacing="0px"
     letter-spacing="0px"
     font-size="16.933px">
    <g
       id="text10"
       style="line-height:6.61458302px;fill:#d6b3b4;fill-opacity:1;stroke:#181744;stroke-width:2.32066035;stroke-miterlimit:4;stroke-dasharray:none;stroke-opacity:1;paint-order:stroke markers fill"
       aria-label="yobeets.github.io">
      <path
         id="path4548"
         style="fill:#d6b3b4;fill-opacity:1;stroke:#181744;stroke-width:2.32066035;stroke-miterlimit:4;stroke-dasharray:none;stroke-opacity:1;paint-order:stroke markers fill"
         d="m 87.830995,93.495763 c 2.489151,-0.03387 2.743146,-3.251136 2.743146,-6.688535 0,-1.845697 -0.118531,-3.04794 -0.118531,-4.521111 0,-0.457191 0.01693,-0.880516 0.03387,-1.269975 0.0508,-0.711186 -0.491057,-0.812784 -1.253042,-0.812784 -0.761985,0 -1.35464,0.16933 -1.405439,1.032913 -0.135464,2.03196 -0.778918,4.080853 -1.269975,4.080853 -0.457191,0 0.06773,-3.335801 0.355593,-4.216317 0.270928,-0.863583 -0.728119,-1.01598 -1.405439,-1.01598 -1.100645,0 -1.473171,0.389459 -1.473171,0.660387 0,0.0508 0.01693,0.101598 0.0508,0.16933 0.03387,0.06773 0.03387,0.16933 0.03387,0.321727 0,0.643454 -0.186263,2.87861 -0.186263,3.572863 0,2.133558 0.491057,3.115672 1.930362,3.115672 1.18531,0 2.03196,-2.269022 2.20129,-2.793945 0.03387,-0.101598 0.253995,0.423325 0.253995,0.897449 0,0.33866 -0.0508,0.711186 -0.287861,0.914382 -1.473171,1.540903 -2.167424,3.200337 -2.167424,4.453379 0,1.253042 0.694253,2.116625 1.964228,2.099692 z m 0.06773,-1.52397 C 87.661665,91.920994 87.577,91.565401 87.577,91.10821 c 0,-0.880516 0.372526,-2.150491 0.931315,-2.065826 0.101598,0.03387 0.118531,0.186263 0.118531,0.423325 0,0.812784 -0.423325,2.53995 -0.728119,2.506084 z" />
      <path
         id="path4550"
         style="fill:#d6b3b4;fill-opacity:1;stroke:#181744;stroke-width:2.32066035;stroke-miterlimit:4;stroke-dasharray:none;stroke-opacity:1;paint-order:stroke markers fill"
         d="m 91.53747,84.555139 c 0.03387,2.777012 0.982114,4.385647 3.911523,4.334848 1.710233,-0.03387 2.37062,-3.166471 2.252089,-5.570957 -0.06773,-1.557836 -0.33866,-3.031007 -2.133558,-3.251136 -0.50799,-0.03387 -0.304794,-0.16933 -0.778918,-0.304794 -0.118531,-0.0508 -0.321727,-0.0508 -0.474124,-0.0508 -1.930362,0.0508 -2.810878,2.506084 -2.777012,4.842839 z m 3.420466,-2.590749 c 0.237062,0 0.423325,0.67732 0.423325,1.540903 0,1.405439 -0.372526,3.268069 -0.84665,3.268069 -0.220129,0 -0.440258,-0.84665 -0.440258,-1.845697 0,-1.35464 0.321727,-2.963275 0.863583,-2.963275 z" />
      <path
         id="path4552"
         style="fill:#d6b3b4;fill-opacity:1;stroke:#181744;stroke-width:2.32066035;stroke-miterlimit:4;stroke-dasharray:none;stroke-opacity:1;paint-order:stroke markers fill"
         d="m 103.36491,80.084827 c -1.43931,0 -2.20129,1.659434 -2.50609,2.523017 0.1016,-1.456238 0.67732,-4.57191 1.08372,-5.875751 0.11853,-0.440258 -0.77892,-0.592655 -1.32078,-0.609588 -0.711185,0.01693 -1.337706,0.253995 -1.456237,0.897449 -0.626521,2.523017 -0.965181,7.382788 -0.389459,10.041269 0.253995,1.083712 1.744096,1.811831 3.589796,1.828764 1.93036,0 3.3358,-2.455285 3.3358,-5.164565 0,-2.015027 -0.66039,-3.640595 -2.33675,-3.640595 z m -1.18531,6.637736 c -0.71119,0.08467 -0.62652,-4.368714 0.45719,-4.453379 0.60959,-0.03387 0.45719,4.40258 -0.45719,4.453379 z m -1.47317,-3.606729 c 0,0.01693 0,0.01693 0,0 z" />
      <path
         id="path4554"
         style="fill:#d6b3b4;fill-opacity:1;stroke:#181744;stroke-width:2.32066035;stroke-miterlimit:4;stroke-dasharray:none;stroke-opacity:1;paint-order:stroke markers fill"
         d="m 106.35305,84.030216 c 0.0169,3.505131 2.15049,4.808972 3.52207,4.808972 1.87956,0 3.48819,-1.981161 2.06582,-2.87861 -0.0339,-0.03387 -0.0847,-0.01693 -0.1016,0.03387 -0.25399,0.524923 -0.82971,0.880516 -1.3885,0.880516 -0.66039,0 -1.16838,-0.728119 -1.13451,-1.52397 0.0169,-0.08467 0.0508,-0.101598 0.11853,-0.0508 0.16933,0.16933 0.55879,0.474124 0.94825,0.474124 1.77796,0 2.04889,-1.896496 2.04889,-3.149538 0,-1.473171 -0.44026,-2.997141 -2.13356,-2.997141 -0.59265,0 -0.93131,0.237062 -1.37157,0.287861 -1.9473,0.237062 -2.55689,1.557836 -2.57382,4.114719 z m 3.03101,0.03387 c -0.66039,0 -0.40639,-2.319821 0.28786,-2.319821 0.69425,0 0.40639,2.319821 -0.28786,2.319821 z" />
      <path
         id="path4556"
         style="fill:#d6b3b4;fill-opacity:1;stroke:#181744;stroke-width:2.32066035;stroke-miterlimit:4;stroke-dasharray:none;stroke-opacity:1;paint-order:stroke markers fill"
         d="m 113.00058,84.030216 c 0.0169,3.505131 2.15049,4.808972 3.52206,4.808972 1.87956,0 3.4882,-1.981161 2.06583,-2.87861 -0.0339,-0.03387 -0.0847,-0.01693 -0.1016,0.03387 -0.254,0.524923 -0.82972,0.880516 -1.38851,0.880516 -0.66038,0 -1.16837,-0.728119 -1.13451,-1.52397 0.0169,-0.08467 0.0508,-0.101598 0.11853,-0.0508 0.16933,0.16933 0.55879,0.474124 0.94825,0.474124 1.77797,0 2.04889,-1.896496 2.04889,-3.149538 0,-1.473171 -0.44025,-2.997141 -2.13355,-2.997141 -0.59266,0 -0.93132,0.237062 -1.37158,0.287861 -1.94729,0.237062 -2.55688,1.557836 -2.57381,4.114719 z m 3.031,0.03387 c -0.66038,0 -0.40639,-2.319821 0.28787,-2.319821 0.69425,0 0.40639,2.319821 -0.28787,2.319821 z" />
      <path
         id="path4558"
         style="fill:#d6b3b4;fill-opacity:1;stroke:#181744;stroke-width:2.32066035;stroke-miterlimit:4;stroke-dasharray:none;stroke-opacity:1;paint-order:stroke markers fill"
         d="m 122.44602,88.669858 c 0.74505,-0.03387 1.4901,-0.880516 1.79489,-2.150491 0.1524,-0.761985 -0.0508,-1.320774 -0.23706,-1.303841 -0.33866,0 -0.45719,0.931315 -0.84665,0.931315 -0.50799,-0.01693 -0.69425,-6.163612 -0.22013,-6.180545 0.44026,-0.01693 1.26998,0 1.49011,-0.01693 0.22013,-0.01693 0.25399,-0.135464 0.30479,-0.50799 0.11853,-1.134511 0.0339,-1.422372 -1.28691,-1.388506 -0.23706,0.03387 -0.33866,-0.152397 -0.35559,-0.406392 -0.0169,-0.694253 0.52492,-1.100645 0.49106,-1.456238 0,-0.389459 -0.60959,-0.541856 -1.28691,-0.50799 -1.06678,0.03387 -1.5917,0.592655 -1.65943,1.913429 -0.0339,0.694253 -0.1016,0.440258 -1.01598,0.491057 -0.37253,0.01693 -0.54186,0.524923 -0.52493,0.795851 0.0339,0.558789 0.55879,1.083712 0.72812,1.083712 0.13547,0 0.50799,-0.118531 0.42333,0.711186 -0.0339,0.372526 -0.13547,2.455285 -0.0847,3.89459 0.11853,2.184357 0.77892,4.165518 2.28596,4.097786 z" />
      <path
         id="path4560"
         style="fill:#d6b3b4;fill-opacity:1;stroke:#181744;stroke-width:2.32066035;stroke-miterlimit:4;stroke-dasharray:none;stroke-opacity:1;paint-order:stroke markers fill"
         d="m 127.29732,83.556092 c -0.13546,-0.0508 -0.23706,-0.186263 -0.23706,-0.304794 0,-0.152397 0.30479,-0.931315 0.74505,-1.253042 0.16933,0.982114 0.64345,1.490104 1.4393,1.490104 0.3048,0 0.82972,-0.08467 0.82972,-0.372526 0,-0.253995 -0.22013,-0.321727 -0.22013,-0.84665 0,-2.03196 -0.30479,-2.556883 -1.62557,-2.556883 -0.15239,0 -0.30479,0.01693 -0.45719,0.08467 -0.23706,-0.03387 -0.27092,-0.06773 -0.47412,-0.06773 -1.26998,0 -2.67541,2.218223 -2.67541,3.589796 0,1.303841 3.25113,1.879563 3.25113,2.53995 0,0.304794 -0.50799,0.745052 -1.18531,0.745052 -0.64345,0 -0.45719,-0.999047 -0.96518,-0.914382 -0.33866,0.0508 -0.74505,0.67732 -0.74505,1.083712 0,0.778918 1.11758,2.218223 2.62461,2.218223 1.03292,0 2.98021,-1.117578 2.98021,-2.70928 0,-1.507037 -1.50704,-1.981161 -3.285,-2.726213 z" />
      <path
         id="path4562"
         style="fill:#d6b3b4;fill-opacity:1;stroke:#181744;stroke-width:2.32066035;stroke-miterlimit:4;stroke-dasharray:none;stroke-opacity:1;paint-order:stroke markers fill"
         d="m 86.171561,103.05022 c 0,-0.50799 -0.795851,-0.96518 -1.456238,-1.10064 -0.33866,-0.0508 -0.694253,-0.0847 -0.829717,0.20319 -0.304794,0.67732 -0.524923,1.21918 -0.694253,1.76104 -0.135464,0.45719 0.829717,1.18531 1.439305,1.18531 0.660387,0 1.540903,-1.28691 1.540903,-2.0489 z" />
      <path
         id="path4564"
         style="fill:#d6b3b4;fill-opacity:1;stroke:#181744;stroke-width:2.32066035;stroke-miterlimit:4;stroke-dasharray:none;stroke-opacity:1;paint-order:stroke markers fill"
         d="m 93.579749,96.344754 c 0,-0.643454 -0.728119,-1.117578 -1.320774,-1.117578 -0.220129,0 -0.423325,0.118531 -0.643454,0.118531 -0.270928,0 -1.659434,-0.186263 -1.998094,-0.186263 -2.302888,0 -2.624615,2.963276 -2.624615,5.232296 0,1.77797 0.795851,3.04794 1.811831,3.16647 -0.643454,0.77892 -1.236109,1.77797 -1.236109,2.74315 0,0.30479 0.0508,0.62652 0.16933,0.98211 0.474124,1.33771 1.6933,1.81183 3.04794,1.81183 1.981161,0 2.70928,-0.86358 2.70928,-2.96327 0,-1.37157 -0.270928,-3.2342 -0.270928,-5.50323 0,-1.930358 0.355593,-3.792988 0.355593,-4.284046 z m -3.21727,0.880517 c 0.897449,0 0.406392,4.436449 -0.372526,4.385649 -0.897449,-0.0677 -0.643454,-4.385649 0.372526,-4.385649 z m 0.06773,10.430729 c -0.440258,0 -0.728119,-0.69425 -0.728119,-1.5917 0,-0.76199 0.931315,-2.60769 1.303841,-2.42142 0.101598,0.0508 0.220129,0.69425 0.220129,1.4901 0,0.76199 -0.186263,2.52302 -0.795851,2.52302 z" />
      <path
         id="path4566"
         style="fill:#d6b3b4;fill-opacity:1;stroke:#181744;stroke-width:2.32066035;stroke-miterlimit:4;stroke-dasharray:none;stroke-opacity:1;paint-order:stroke markers fill"
         d="m 94.90899,92.975087 c 0,1.151444 0.491057,1.6933 1.557836,1.6933 0.220129,0 0.372526,-0.08467 0.423325,-0.355593 l 0.575722,-2.150491 c 0.118531,-0.457191 -0.84665,-0.829717 -1.540903,-0.829717 -0.440258,0 -0.84665,0.06773 -0.897449,0.321727 -0.101598,0.457191 -0.118531,0.880516 -0.118531,1.320774 z m 1.86263,11.260443 c 1.083712,-0.0169 1.727166,-0.98211 1.710233,-2.42142 -0.01693,-0.67732 -0.16933,-0.74505 -0.355593,-0.74505 -0.321727,0 -0.389459,0.89745 -0.829717,0.91438 -0.541856,0 -0.440258,-3.759122 0.01693,-5.350824 0.01693,-0.118532 0.0508,-0.237063 0.0508,-0.355594 0,-0.592655 -0.541856,-0.84665 -1.35464,-0.829717 -0.660387,0 -1.405439,0.186263 -1.456238,0.643454 -0.118531,0.965182 -0.220129,2.167425 -0.220129,2.997142 0.0508,2.539949 0.643454,5.181499 2.438352,5.147629 z" />
      <path
         id="path4568"
         style="fill:#d6b3b4;fill-opacity:1;stroke:#181744;stroke-width:2.32066035;stroke-miterlimit:4;stroke-dasharray:none;stroke-opacity:1;paint-order:stroke markers fill"
         d="m 101.41206,104.2186 c 0.74505,-0.0339 1.4901,-0.88052 1.79489,-2.15049 0.1524,-0.76199 -0.0508,-1.32078 -0.23706,-1.30384 -0.33866,0 -0.45719,0.93131 -0.84665,0.93131 -0.50799,-0.0169 -0.69425,-6.16361 -0.22013,-6.180543 0.44026,-0.01693 1.26998,0 1.49011,-0.01693 0.22013,-0.01693 0.25399,-0.135464 0.30479,-0.50799 0.11853,-1.134511 0.0339,-1.422372 -1.28691,-1.388506 -0.23706,0.03387 -0.33866,-0.152397 -0.35559,-0.406392 -0.0169,-0.694253 0.52492,-1.100645 0.49106,-1.456238 0,-0.389459 -0.60959,-0.541856 -1.28691,-0.50799 -1.06678,0.03387 -1.591704,0.592655 -1.659436,1.913429 -0.03387,0.694253 -0.101598,0.440258 -1.01598,0.491057 -0.372526,0.01693 -0.541856,0.524923 -0.524923,0.795851 0.03387,0.558789 0.558789,1.083712 0.728119,1.083712 0.135464,0 0.50799,-0.118531 0.423325,0.711186 -0.03387,0.372527 -0.135464,2.455286 -0.08467,3.894584 0.118531,2.18436 0.778918,4.16552 2.285955,4.09779 z" />
      <path
         id="path4570"
         style="fill:#d6b3b4;fill-opacity:1;stroke:#181744;stroke-width:2.32066035;stroke-miterlimit:4;stroke-dasharray:none;stroke-opacity:1;paint-order:stroke markers fill"
         d="m 106.21256,104.08314 c 0.18626,0.0508 0.33866,0.0847 0.47412,0.0847 0.4064,0 0.62653,-0.27093 0.71119,-0.82972 0.13546,-0.72812 0.64345,-3.538993 0.89745,-3.505127 0.25399,0.0508 -0.44026,4.317917 1.4901,4.317917 0.93132,0 1.67637,-0.94825 1.67637,-1.91343 0,-0.44026 -0.18626,-1.01598 -0.40639,-1.01598 -0.18626,0 -0.3048,0.96518 -0.72812,0.71118 -0.40639,-0.25399 0.0508,-4.165513 0.33866,-5.096828 0.0508,-0.118531 0.0508,-0.237062 0.0508,-0.321728 0,-0.67732 -1.06678,-0.914382 -1.98116,-0.829717 -0.98212,0.135464 -1.77797,2.218224 -2.20129,3.708328 -0.1016,-0.03387 -0.13547,-0.355593 -0.13547,-0.880516 0,-1.828764 0.47413,-5.858819 0.49106,-5.994283 0.0339,-0.118531 0.0339,-0.237062 0.0339,-0.321727 0,-0.67732 -0.72812,-0.948248 -1.40544,-0.948248 -0.94825,0 -1.25304,0.16933 -1.32078,1.032913 -0.0339,0.999047 -0.16933,3.860724 -0.16933,5.46936 0,0.321727 0,0.592655 0.0169,0.795851 0.0169,0.609588 0,1.219176 0.0677,1.828765 0.0847,0.81278 0.11853,1.6425 0.38946,2.43835 0.0847,0.28786 0.15239,0.60959 0.47412,0.74505 0.40639,0.18627 0.81279,0.38946 1.23611,0.52493 z" />
      <path
         id="path4572"
         style="fill:#d6b3b4;fill-opacity:1;stroke:#181744;stroke-width:2.32066035;stroke-miterlimit:4;stroke-dasharray:none;stroke-opacity:1;paint-order:stroke markers fill"
         d="m 119.71848,100.71347 c -0.40639,0 -0.40639,0.93131 -0.82972,0.93131 -0.55878,0 -0.49105,-2.607678 0.0677,-5.333892 0.11853,-0.592655 -0.55879,-0.880516 -1.25305,-0.880516 -0.69425,0 -1.5409,0.186263 -1.5917,0.812784 -0.30479,3.403534 -0.96518,5.401624 -1.35464,5.333894 -0.55879,-0.1016 -0.20319,-3.843789 0.33866,-4.859769 0.1016,-0.169331 0.13547,-0.321728 0.13547,-0.457192 0,-0.592655 -0.84665,-0.829717 -1.65944,-0.829717 -1.3377,0 -1.77796,2.031961 -1.77796,4.250184 0,2.099694 0.45719,4.538044 2.76008,4.538044 0.86358,0 1.50703,-1.06678 1.93036,-2.13356 0.16933,0.93132 0.64345,2.15049 1.89649,2.15049 1.54091,0 1.98117,-3.52206 1.33771,-3.52206 z" />
      <path
         id="path4574"
         style="fill:#d6b3b4;fill-opacity:1;stroke:#181744;stroke-width:2.32066035;stroke-miterlimit:4;stroke-dasharray:none;stroke-opacity:1;paint-order:stroke markers fill"
         d="m 125.45718,95.633568 c -1.4393,0 -2.20129,1.659435 -2.50608,2.523018 0.1016,-1.456238 0.67732,-4.571911 1.08371,-5.875752 0.11853,-0.440258 -0.77892,-0.592655 -1.32077,-0.609588 -0.71119,0.01693 -1.33771,0.253995 -1.45624,0.897449 -0.62652,2.523017 -0.96518,7.382789 -0.38946,10.041265 0.25399,1.08372 1.7441,1.81184 3.5898,1.82877 1.93036,0 3.3358,-2.45529 3.3358,-5.164566 0,-2.015027 -0.66039,-3.640596 -2.33676,-3.640596 z m -1.18531,6.637732 c -0.71118,0.0847 -0.62652,-4.368709 0.45719,-4.453374 0.60959,-0.03387 0.45719,4.402584 -0.45719,4.453374 z m -1.47317,-3.606724 c 0,0.01693 0,0.01693 0,0 z" />
      <path
         id="path4576"
         style="fill:#d6b3b4;fill-opacity:1;stroke:#181744;stroke-width:2.32066035;stroke-miterlimit:4;stroke-dasharray:none;stroke-opacity:1;paint-order:stroke markers fill"
         d="m 86.171561,122.75894 c 0,-0.50799 -0.795851,-0.96518 -1.456238,-1.10064 -0.33866,-0.0508 -0.694253,-0.0847 -0.829717,0.20319 -0.304794,0.67732 -0.524923,1.21918 -0.694253,1.76103 -0.135464,0.45719 0.829717,1.18531 1.439305,1.18531 0.660387,0 1.540903,-1.2869 1.540903,-2.04889 z" />
      <path
         id="path4578"
         style="fill:#d6b3b4;fill-opacity:1;stroke:#181744;stroke-width:2.32066035;stroke-miterlimit:4;stroke-dasharray:none;stroke-opacity:1;paint-order:stroke markers fill"
         d="m 87.500802,112.6838 c 0,1.15145 0.491057,1.6933 1.557836,1.6933 0.220129,0 0.372526,-0.0847 0.423325,-0.35559 l 0.575722,-2.15049 c 0.118531,-0.45719 -0.84665,-0.82972 -1.540903,-0.82972 -0.440258,0 -0.84665,0.0677 -0.897449,0.32173 -0.101598,0.45719 -0.118531,0.88052 -0.118531,1.32077 z m 1.86263,11.26045 c 1.083712,-0.0169 1.727166,-0.98211 1.710233,-2.42142 -0.01693,-0.67732 -0.16933,-0.74505 -0.355593,-0.74505 -0.321727,0 -0.389459,0.89745 -0.829717,0.91438 -0.541856,0 -0.440258,-3.75913 0.01693,-5.35083 0.01693,-0.11853 0.0508,-0.23706 0.0508,-0.35559 0,-0.59266 -0.541856,-0.84665 -1.35464,-0.82972 -0.660387,0 -1.405439,0.18627 -1.456238,0.64346 -0.118531,0.96518 -0.220129,2.16742 -0.220129,2.99714 0.0508,2.53995 0.643454,5.1815 2.438352,5.14763 z" />
      <path
         id="path4580"
         style="fill:#d6b3b4;fill-opacity:1;stroke:#181744;stroke-width:2.32066035;stroke-miterlimit:4;stroke-dasharray:none;stroke-opacity:1;paint-order:stroke markers fill"
         d="m 91.405181,119.8126 c 0.03387,2.77701 0.982114,4.38565 3.911523,4.33485 1.710233,-0.0339 2.37062,-3.16647 2.252089,-5.57096 -0.06773,-1.55784 -0.33866,-3.03101 -2.133558,-3.25114 -0.50799,-0.0339 -0.304794,-0.16933 -0.778918,-0.30479 -0.118531,-0.0508 -0.321727,-0.0508 -0.474124,-0.0508 -1.930362,0.0508 -2.810878,2.50608 -2.777012,4.84284 z m 3.420466,-2.59075 c 0.237062,0 0.423325,0.67732 0.423325,1.5409 0,1.40544 -0.372526,3.26807 -0.84665,3.26807 -0.220129,0 -0.440258,-0.84665 -0.440258,-1.8457 0,-1.35464 0.321727,-2.96327 0.863583,-2.96327 z" />
    </g>
    <g
       transform="translate(-0.371857,-0.371864)"
       id="text18"
       style="line-height:6.61458349px;fill:#f00000;fill-opacity:0;stroke:none;stroke-opacity:0"
       aria-label="yobeets.github.io">
      <path
         id="path4583"
         style="fill:#f00000;fill-opacity:0;stroke:none;stroke-opacity:0"
         d="m 88.202852,93.867627 c 2.489151,-0.03387 2.743146,-3.251136 2.743146,-6.688535 0,-1.845697 -0.118531,-3.04794 -0.118531,-4.521111 0,-0.457191 0.01693,-0.880516 0.03387,-1.269975 0.0508,-0.711187 -0.491057,-0.812785 -1.253042,-0.812785 -0.761985,0 -1.35464,0.169331 -1.405439,1.032914 -0.135464,2.03196 -0.778918,4.080853 -1.269975,4.080853 -0.457191,0 0.06773,-3.335801 0.355593,-4.216317 0.270928,-0.863584 -0.728119,-1.015981 -1.405439,-1.015981 -1.100645,0 -1.473171,0.38946 -1.473171,0.660388 0,0.0508 0.01693,0.101598 0.0508,0.16933 0.03387,0.06773 0.03387,0.16933 0.03387,0.321727 0,0.643454 -0.186263,2.87861 -0.186263,3.572863 0,2.133558 0.491057,3.115672 1.930362,3.115672 1.18531,0 2.03196,-2.269022 2.20129,-2.793945 0.03387,-0.101598 0.253995,0.423325 0.253995,0.897449 0,0.33866 -0.0508,0.711186 -0.287861,0.914382 -1.473171,1.540903 -2.167424,3.200337 -2.167424,4.453379 0,1.253042 0.694253,2.116625 1.964228,2.099692 z m 0.06773,-1.52397 c -0.237062,-0.0508 -0.321727,-0.406392 -0.321727,-0.863583 0,-0.880516 0.372526,-2.150491 0.931315,-2.065826 0.101598,0.03387 0.118531,0.186263 0.118531,0.423325 0,0.812784 -0.423325,2.53995 -0.728119,2.506084 z" />
      <path
         id="path4585"
         style="fill:#f00000;fill-opacity:0;stroke:none;stroke-opacity:0"
         d="m 91.909327,84.927003 c 0.03387,2.777012 0.982114,4.385647 3.911523,4.334848 1.710233,-0.03387 2.37062,-3.166471 2.252089,-5.570957 -0.06773,-1.557836 -0.33866,-3.031008 -2.133558,-3.251137 -0.50799,-0.03387 -0.304794,-0.16933 -0.778918,-0.304794 -0.118531,-0.0508 -0.321727,-0.0508 -0.474124,-0.0508 -1.930362,0.0508 -2.810878,2.506085 -2.777012,4.842839 z m 3.420466,-2.590749 c 0.237062,0 0.423325,0.67732 0.423325,1.540903 0,1.405439 -0.372526,3.268069 -0.84665,3.268069 -0.220129,0 -0.440258,-0.84665 -0.440258,-1.845697 0,-1.35464 0.321727,-2.963275 0.863583,-2.963275 z" />
      <path
         id="path4587"
         style="fill:#f00000;fill-opacity:0;stroke:none;stroke-opacity:0"
         d="m 103.73676,80.45669 c -1.4393,0 -2.20129,1.659435 -2.50608,2.523018 0.1016,-1.456238 0.67732,-4.571911 1.08371,-5.875752 0.11853,-0.440258 -0.77892,-0.592655 -1.32077,-0.609588 -0.71119,0.01693 -1.337709,0.253995 -1.45624,0.897449 -0.626521,2.523017 -0.965181,7.382789 -0.389459,10.04127 0.253995,1.083712 1.744099,1.811831 3.589799,1.828764 1.93036,0 3.3358,-2.455285 3.3358,-5.164565 0,-2.015027 -0.66039,-3.640596 -2.33676,-3.640596 z m -1.18531,6.637737 c -0.71118,0.08467 -0.62652,-4.368714 0.45719,-4.453379 0.60959,-0.03387 0.4572,4.40258 -0.45719,4.453379 z m -1.47317,-3.606729 c 0,0.01693 0,0.01693 0,0 z" />
      <path
         id="path4589"
         style="fill:#f00000;fill-opacity:0;stroke:none;stroke-opacity:0"
         d="m 106.72491,84.40208 c 0.0169,3.505131 2.15049,4.808972 3.52206,4.808972 1.87957,0 3.4882,-1.981161 2.06583,-2.87861 -0.0339,-0.03387 -0.0847,-0.01693 -0.1016,0.03387 -0.25399,0.524923 -0.82972,0.880516 -1.38851,0.880516 -0.66038,0 -1.16837,-0.728119 -1.13451,-1.52397 0.0169,-0.08467 0.0508,-0.101598 0.11853,-0.0508 0.16933,0.16933 0.55879,0.474124 0.94825,0.474124 1.77797,0 2.0489,-1.896496 2.0489,-3.149538 0,-1.473171 -0.44026,-2.997142 -2.13356,-2.997142 -0.59266,0 -0.93132,0.237062 -1.37158,0.287861 -1.94729,0.237062 -2.55688,1.557837 -2.57381,4.11472 z m 3.03101,0.03387 c -0.66039,0 -0.4064,-2.319821 0.28786,-2.319821 0.69425,0 0.40639,2.319821 -0.28786,2.319821 z" />
      <path
         id="path4591"
         style="fill:#f00000;fill-opacity:0;stroke:none;stroke-opacity:0"
         d="m 113.37243,84.40208 c 0.0169,3.505131 2.15049,4.808972 3.52207,4.808972 1.87956,0 3.4882,-1.981161 2.06582,-2.87861 -0.0339,-0.03387 -0.0847,-0.01693 -0.10159,0.03387 -0.254,0.524923 -0.82972,0.880516 -1.38851,0.880516 -0.66039,0 -1.16838,-0.728119 -1.13451,-1.52397 0.0169,-0.08467 0.0508,-0.101598 0.11853,-0.0508 0.16933,0.16933 0.55879,0.474124 0.94825,0.474124 1.77796,0 2.04889,-1.896496 2.04889,-3.149538 0,-1.473171 -0.44026,-2.997142 -2.13356,-2.997142 -0.59265,0 -0.93131,0.237062 -1.37157,0.287861 -1.9473,0.237062 -2.55688,1.557837 -2.57382,4.11472 z m 3.03101,0.03387 c -0.66039,0 -0.40639,-2.319821 0.28786,-2.319821 0.69426,0 0.40639,2.319821 -0.28786,2.319821 z" />
      <path
         id="path4593"
         style="fill:#f00000;fill-opacity:0;stroke:none;stroke-opacity:0"
         d="m 122.81787,89.041722 c 0.74506,-0.03387 1.49011,-0.880516 1.7949,-2.150491 0.1524,-0.761985 -0.0508,-1.320774 -0.23706,-1.303841 -0.33866,0 -0.45719,0.931315 -0.84665,0.931315 -0.50799,-0.01693 -0.69425,-6.163613 -0.22013,-6.180546 0.44026,-0.01693 1.26998,0 1.4901,-0.01693 0.22013,-0.01693 0.254,-0.135464 0.3048,-0.50799 0.11853,-1.134511 0.0339,-1.422372 -1.28691,-1.388506 -0.23706,0.03387 -0.33866,-0.152397 -0.35559,-0.406392 -0.0169,-0.694253 0.52492,-1.100645 0.49105,-1.456238 0,-0.389459 -0.60958,-0.541856 -1.2869,-0.50799 -1.06678,0.03387 -1.59171,0.592655 -1.65944,1.913429 -0.0339,0.694253 -0.1016,0.440258 -1.01598,0.491057 -0.37252,0.01693 -0.54185,0.524923 -0.52492,0.795851 0.0339,0.558789 0.55879,1.083712 0.72812,1.083712 0.13546,0 0.50799,-0.118531 0.42332,0.711187 -0.0339,0.372526 -0.13546,2.455285 -0.0847,3.89459 0.11853,2.184357 0.77892,4.165518 2.28595,4.097786 z" />
      <path
         id="path4595"
         style="fill:#f00000;fill-opacity:0;stroke:none;stroke-opacity:0"
         d="m 127.66918,83.927956 c -0.13547,-0.0508 -0.23707,-0.186263 -0.23707,-0.304794 0,-0.152397 0.3048,-0.931315 0.74506,-1.253042 0.16933,0.982114 0.64345,1.490104 1.4393,1.490104 0.3048,0 0.82972,-0.08467 0.82972,-0.372526 0,-0.253995 -0.22013,-0.321727 -0.22013,-0.84665 0,-2.031961 -0.30479,-2.556884 -1.62557,-2.556884 -0.1524,0 -0.30479,0.01693 -0.45719,0.08467 -0.23706,-0.03387 -0.27093,-0.06773 -0.47412,-0.06773 -1.26998,0 -2.67542,2.218224 -2.67542,3.589797 0,1.303841 3.25114,1.879563 3.25114,2.53995 0,0.304794 -0.50799,0.745052 -1.18531,0.745052 -0.64346,0 -0.45719,-0.999047 -0.96518,-0.914382 -0.33866,0.0508 -0.74505,0.67732 -0.74505,1.083712 0,0.778918 1.11757,2.218223 2.62461,2.218223 1.03291,0 2.98021,-1.117578 2.98021,-2.70928 0,-1.507037 -1.50704,-1.981161 -3.285,-2.726213 z" />
      <path
         id="path4597"
         style="fill:#f00000;fill-opacity:0;stroke:none;stroke-opacity:0"
         d="m 86.543418,103.42208 c 0,-0.50799 -0.795851,-0.96518 -1.456238,-1.10065 -0.33866,-0.0508 -0.694253,-0.0847 -0.829717,0.2032 -0.304794,0.67732 -0.524923,1.21918 -0.694253,1.76103 -0.135464,0.45719 0.829717,1.18531 1.439305,1.18531 0.660387,0 1.540903,-1.28691 1.540903,-2.04889 z" />
      <path
         id="path4599"
         style="fill:#f00000;fill-opacity:0;stroke:none;stroke-opacity:0"
         d="m 93.951606,96.716611 c 0,-0.643454 -0.728119,-1.117578 -1.320774,-1.117578 -0.220129,0 -0.423325,0.118531 -0.643454,0.118531 -0.270928,0 -1.659434,-0.186263 -1.998094,-0.186263 -2.302889,0 -2.624616,2.963275 -2.624616,5.232299 0,1.77796 0.795851,3.04794 1.811831,3.16647 -0.643454,0.77892 -1.236109,1.77796 -1.236109,2.74315 0,0.30479 0.0508,0.62652 0.16933,0.98211 0.474124,1.33771 1.693301,1.81183 3.047941,1.81183 1.981161,0 2.70928,-0.86358 2.70928,-2.96327 0,-1.37158 -0.270928,-3.23421 -0.270928,-5.50323 0,-1.930362 0.355593,-3.792992 0.355593,-4.284049 z m -3.21727,0.880516 c 0.897449,0 0.406392,4.436443 -0.372526,4.385643 -0.897449,-0.0677 -0.643454,-4.385643 0.372526,-4.385643 z m 0.06773,10.430733 c -0.440258,0 -0.728119,-0.69426 -0.728119,-1.59171 0,-0.76198 0.931315,-2.60768 1.303841,-2.42142 0.101598,0.0508 0.220129,0.69426 0.220129,1.49011 0,0.76198 -0.186263,2.52302 -0.795851,2.52302 z" />
      <path
         id="path4601"
         style="fill:#f00000;fill-opacity:0;stroke:none;stroke-opacity:0"
         d="m 95.280847,93.346944 c 0,1.151444 0.491057,1.6933 1.557836,1.6933 0.220129,0 0.372526,-0.08467 0.423325,-0.355593 L 97.83773,92.53416 c 0.118531,-0.457191 -0.84665,-0.829717 -1.540903,-0.829717 -0.440258,0 -0.84665,0.06773 -0.897449,0.321727 -0.101598,0.457191 -0.118531,0.880516 -0.118531,1.320774 z m 1.86263,11.260446 c 1.083712,-0.0169 1.727166,-0.98211 1.710233,-2.42142 -0.01693,-0.67732 -0.16933,-0.74505 -0.355593,-0.74505 -0.321727,0 -0.389459,0.89745 -0.829717,0.91438 -0.541856,0 -0.440258,-3.759126 0.01693,-5.350828 0.01693,-0.118531 0.0508,-0.237062 0.0508,-0.355593 0,-0.592655 -0.541856,-0.84665 -1.35464,-0.829717 -0.660387,0 -1.405439,0.186263 -1.456238,0.643454 -0.118531,0.965181 -0.220129,2.167424 -0.220129,2.997141 0.0508,2.539953 0.643454,5.181503 2.438352,5.147633 z" />
      <path
         id="path4603"
         style="fill:#f00000;fill-opacity:0;stroke:none;stroke-opacity:0"
         d="m 101.78391,104.59046 c 0.74505,-0.0339 1.49011,-0.88052 1.7949,-2.15049 0.1524,-0.76199 -0.0508,-1.32078 -0.23706,-1.30385 -0.33866,0 -0.45719,0.93132 -0.84665,0.93132 -0.50799,-0.0169 -0.69425,-6.163613 -0.22013,-6.180546 0.44026,-0.01693 1.26997,0 1.4901,-0.01693 0.22013,-0.01693 0.254,-0.135464 0.3048,-0.50799 0.11853,-1.134511 0.0339,-1.422372 -1.28691,-1.388506 -0.23706,0.03387 -0.33866,-0.152397 -0.35559,-0.406392 -0.0169,-0.694253 0.52492,-1.100645 0.49105,-1.456238 0,-0.389459 -0.60958,-0.541856 -1.2869,-0.50799 -1.06678,0.03387 -1.59171,0.592655 -1.659439,1.913429 -0.03387,0.694253 -0.101598,0.440258 -1.01598,0.491057 -0.372526,0.01693 -0.541856,0.524923 -0.524923,0.795851 0.03387,0.558789 0.558789,1.083712 0.728119,1.083712 0.135464,0 0.50799,-0.118531 0.423325,0.711186 -0.03387,0.372526 -0.135464,2.455285 -0.08467,3.894587 0.118531,2.18436 0.778928,4.16552 2.285958,4.09779 z" />
      <path
         id="path4605"
         style="fill:#f00000;fill-opacity:0;stroke:none;stroke-opacity:0"
         d="m 106.58442,104.45499 c 0.18626,0.0508 0.33866,0.0847 0.47412,0.0847 0.40639,0 0.62652,-0.27093 0.71119,-0.82972 0.13546,-0.72812 0.64345,-3.539 0.89745,-3.50513 0.25399,0.0508 -0.44026,4.31791 1.4901,4.31791 0.93132,0 1.67637,-0.94824 1.67637,-1.91342 0,-0.44026 -0.18627,-1.01598 -0.40639,-1.01598 -0.18627,0 -0.3048,0.96518 -0.72812,0.71118 -0.4064,-0.25399 0.0508,-4.165517 0.33866,-5.096832 0.0508,-0.118531 0.0508,-0.237062 0.0508,-0.321727 0,-0.67732 -1.06678,-0.914382 -1.98117,-0.829717 -0.98211,0.135464 -1.77796,2.218223 -2.20129,3.708327 -0.10159,-0.03387 -0.13546,-0.355593 -0.13546,-0.880516 0,-1.828764 0.47412,-5.858818 0.49106,-5.994282 0.0339,-0.118531 0.0339,-0.237062 0.0339,-0.321727 0,-0.67732 -0.72812,-0.948248 -1.40544,-0.948248 -0.94824,0 -1.25304,0.16933 -1.32077,1.032913 -0.0339,0.999047 -0.16933,3.860724 -0.16933,5.469359 0,0.321727 0,0.592655 0.0169,0.795851 0.0169,0.609588 0,1.219179 0.0677,1.828769 0.0847,0.81278 0.11853,1.6425 0.38945,2.43835 0.0847,0.28786 0.1524,0.60959 0.47413,0.74505 0.40639,0.18626 0.81278,0.38946 1.23611,0.52492 z" />
      <path
         id="path4607"
         style="fill:#f00000;fill-opacity:0;stroke:none;stroke-opacity:0"
         d="m 120.09034,101.08533 c -0.40639,0 -0.40639,0.93131 -0.82972,0.93131 -0.55879,0 -0.49106,-2.607682 0.0677,-5.333895 0.11853,-0.592655 -0.55879,-0.880516 -1.25304,-0.880516 -0.69425,0 -1.5409,0.186263 -1.5917,0.812784 -0.30479,3.403537 -0.96518,5.401627 -1.35464,5.333897 -0.55879,-0.1016 -0.2032,-3.843793 0.33866,-4.859773 0.1016,-0.16933 0.13546,-0.321727 0.13546,-0.457191 0,-0.592655 -0.84665,-0.829717 -1.65943,-0.829717 -1.33771,0 -1.77797,2.03196 -1.77797,4.250181 0,2.09969 0.4572,4.53805 2.76008,4.53805 0.86359,0 1.50704,-1.06678 1.93037,-2.13356 0.16933,0.93131 0.64345,2.15049 1.89649,2.15049 1.5409,0 1.98116,-3.52206 1.33771,-3.52206 z" />
      <path
         id="path4609"
         style="fill:#f00000;fill-opacity:0;stroke:none;stroke-opacity:0"
         d="m 125.82904,96.005425 c -1.43931,0 -2.20129,1.659434 -2.50608,2.523017 0.10159,-1.456238 0.67732,-4.57191 1.08371,-5.875751 0.11853,-0.440258 -0.77892,-0.592655 -1.32078,-0.609588 -0.71118,0.01693 -1.3377,0.253995 -1.45623,0.897449 -0.62653,2.523017 -0.96519,7.382788 -0.38946,10.041268 0.25399,1.08371 1.7441,1.81183 3.58979,1.82877 1.93036,0 3.3358,-2.45529 3.3358,-5.16457 0,-2.015027 -0.66038,-3.640595 -2.33675,-3.640595 z m -1.18531,6.637735 c -0.71119,0.0847 -0.62652,-4.368713 0.45719,-4.453378 0.60959,-0.03387 0.45719,4.402578 -0.45719,4.453378 z m -1.47317,-3.606728 c 0,0.01693 0,0.01693 0,0 z" />
      <path
         id="path4611"
         style="fill:#f00000;fill-opacity:0;stroke:none;stroke-opacity:0"
         d="m 86.543418,123.13082 c 0,-0.50799 -0.795851,-0.96518 -1.456238,-1.10065 -0.33866,-0.0508 -0.694253,-0.0847 -0.829717,0.2032 -0.304794,0.67732 -0.524923,1.21918 -0.694253,1.76103 -0.135464,0.45719 0.829717,1.18531 1.439305,1.18531 0.660387,0 1.540903,-1.28691 1.540903,-2.04889 z" />
      <path
         id="path4613"
         style="fill:#f00000;fill-opacity:0;stroke:none;stroke-opacity:0"
         d="m 87.872658,113.05568 c 0,1.15145 0.491057,1.6933 1.557836,1.6933 0.22013,0 0.372527,-0.0847 0.423326,-0.35559 l 0.575722,-2.15049 c 0.118531,-0.45719 -0.84665,-0.82972 -1.540904,-0.82972 -0.440258,0 -0.84665,0.0677 -0.897449,0.32173 -0.101598,0.45719 -0.118531,0.88052 -0.118531,1.32077 z m 1.862631,11.26045 c 1.083712,-0.0169 1.727166,-0.98211 1.710233,-2.42142 -0.01693,-0.67732 -0.16933,-0.74505 -0.355593,-0.74505 -0.321727,0 -0.389459,0.89745 -0.829717,0.91438 -0.541856,0 -0.440258,-3.75913 0.01693,-5.35083 0.01693,-0.11853 0.0508,-0.23706 0.0508,-0.35559 0,-0.59266 -0.541856,-0.84665 -1.354641,-0.82972 -0.660387,0 -1.405439,0.18627 -1.456238,0.64346 -0.118531,0.96518 -0.220129,2.16742 -0.220129,2.99714 0.0508,2.53995 0.643454,5.1815 2.438353,5.14763 z" />
      <path
         id="path4615"
         style="fill:#f00000;fill-opacity:0;stroke:none;stroke-opacity:0"
         d="m 91.777038,120.18448 c 0.03387,2.77701 0.982114,4.38564 3.911523,4.33485 1.710233,-0.0339 2.37062,-3.16648 2.252089,-5.57096 -0.06773,-1.55784 -0.33866,-3.03101 -2.133558,-3.25114 -0.50799,-0.0339 -0.304794,-0.16933 -0.778918,-0.30479 -0.118531,-0.0508 -0.321727,-0.0508 -0.474124,-0.0508 -1.930362,0.0508 -2.810878,2.50608 -2.777012,4.84284 z m 3.420466,-2.59075 c 0.237062,0 0.423325,0.67732 0.423325,1.5409 0,1.40544 -0.372526,3.26807 -0.84665,3.26807 -0.220129,0 -0.440258,-0.84665 -0.440258,-1.8457 0,-1.35464 0.321727,-2.96327 0.863583,-2.96327 z" />
    </g>
    <g
       transform="translate(-0.37186,-0.371863)"
       id="text18-6"
       style="font-size:16.93300056px;line-height:6.61458349px;font-family:Signorita;letter-spacing:0px;word-spacing:0px;fill:#d6b3b4;fill-opacity:1;stroke:none;stroke-opacity:0"
       aria-label="yobeets.github.io">
      <path
         id="path4583-8"
         style="fill:#d6b3b4;fill-opacity:1;stroke:none;stroke-opacity:0"
         d="m 88.202852,93.867627 c 2.489151,-0.03387 2.743146,-3.251136 2.743146,-6.688535 0,-1.845697 -0.118531,-3.04794 -0.118531,-4.521111 0,-0.457191 0.01693,-0.880516 0.03387,-1.269975 0.0508,-0.711187 -0.491057,-0.812785 -1.253042,-0.812785 -0.761985,0 -1.35464,0.169331 -1.405439,1.032914 -0.135464,2.03196 -0.778918,4.080853 -1.269975,4.080853 -0.457191,0 0.06773,-3.335801 0.355593,-4.216317 0.270928,-0.863584 -0.728119,-1.015981 -1.405439,-1.015981 -1.100645,0 -1.473171,0.38946 -1.473171,0.660388 0,0.0508 0.01693,0.101598 0.0508,0.16933 0.03387,0.06773 0.03387,0.16933 0.03387,0.321727 0,0.643454 -0.186263,2.87861 -0.186263,3.572863 0,2.133558 0.491057,3.115672 1.930362,3.115672 1.18531,0 2.03196,-2.269022 2.20129,-2.793945 0.03387,-0.101598 0.253995,0.423325 0.253995,0.897449 0,0.33866 -0.0508,0.711186 -0.287861,0.914382 -1.473171,1.540903 -2.167424,3.200337 -2.167424,4.453379 0,1.253042 0.694253,2.116625 1.964228,2.099692 z m 0.06773,-1.52397 c -0.237062,-0.0508 -0.321727,-0.406392 -0.321727,-0.863583 0,-0.880516 0.372526,-2.150491 0.931315,-2.065826 0.101598,0.03387 0.118531,0.186263 0.118531,0.423325 0,0.812784 -0.423325,2.53995 -0.728119,2.506084 z" />
      <path
         id="path4585-9"
         style="fill:#d6b3b4;fill-opacity:1;stroke:none;stroke-opacity:0"
         d="m 91.909327,84.927003 c 0.03387,2.777012 0.982114,4.385647 3.911523,4.334848 1.710233,-0.03387 2.37062,-3.166471 2.252089,-5.570957 -0.06773,-1.557836 -0.33866,-3.031008 -2.133558,-3.251137 -0.50799,-0.03387 -0.304794,-0.16933 -0.778918,-0.304794 -0.118531,-0.0508 -0.321727,-0.0508 -0.474124,-0.0508 -1.930362,0.0508 -2.810878,2.506085 -2.777012,4.842839 z m 3.420466,-2.590749 c 0.237062,0 0.423325,0.67732 0.423325,1.540903 0,1.405439 -0.372526,3.268069 -0.84665,3.268069 -0.220129,0 -0.440258,-0.84665 -0.440258,-1.845697 0,-1.35464 0.321727,-2.963275 0.863583,-2.963275 z" />
      <path
         id="path4587-5"
         style="fill:#d6b3b4;fill-opacity:1;stroke:none;stroke-opacity:0"
         d="m 103.73676,80.45669 c -1.4393,0 -2.20129,1.659435 -2.50608,2.523018 0.1016,-1.456238 0.67732,-4.571911 1.08371,-5.875752 0.11853,-0.440258 -0.77892,-0.592655 -1.32077,-0.609588 -0.71119,0.01693 -1.337709,0.253995 -1.45624,0.897449 -0.626521,2.523017 -0.965181,7.382789 -0.389459,10.04127 0.253995,1.083712 1.744099,1.811831 3.589799,1.828764 1.93036,0 3.3358,-2.455285 3.3358,-5.164565 0,-2.015027 -0.66039,-3.640596 -2.33676,-3.640596 z m -1.18531,6.637737 c -0.71118,0.08467 -0.62652,-4.368714 0.45719,-4.453379 0.60959,-0.03387 0.4572,4.40258 -0.45719,4.453379 z m -1.47317,-3.606729 c 0,0.01693 0,0.01693 0,0 z" />
      <path
         id="path4589-4"
         style="fill:#d6b3b4;fill-opacity:1;stroke:none;stroke-opacity:0"
         d="m 106.72491,84.40208 c 0.0169,3.505131 2.15049,4.808972 3.52206,4.808972 1.87957,0 3.4882,-1.981161 2.06583,-2.87861 -0.0339,-0.03387 -0.0847,-0.01693 -0.1016,0.03387 -0.25399,0.524923 -0.82972,0.880516 -1.38851,0.880516 -0.66038,0 -1.16837,-0.728119 -1.13451,-1.52397 0.0169,-0.08467 0.0508,-0.101598 0.11853,-0.0508 0.16933,0.16933 0.55879,0.474124 0.94825,0.474124 1.77797,0 2.0489,-1.896496 2.0489,-3.149538 0,-1.473171 -0.44026,-2.997142 -2.13356,-2.997142 -0.59266,0 -0.93132,0.237062 -1.37158,0.287861 -1.94729,0.237062 -2.55688,1.557837 -2.57381,4.11472 z m 3.03101,0.03387 c -0.66039,0 -0.4064,-2.319821 0.28786,-2.319821 0.69425,0 0.40639,2.319821 -0.28786,2.319821 z" />
      <path
         id="path4591-1"
         style="fill:#d6b3b4;fill-opacity:1;stroke:none;stroke-opacity:0"
         d="m 113.37243,84.40208 c 0.0169,3.505131 2.15049,4.808972 3.52207,4.808972 1.87956,0 3.4882,-1.981161 2.06582,-2.87861 -0.0339,-0.03387 -0.0847,-0.01693 -0.10159,0.03387 -0.254,0.524923 -0.82972,0.880516 -1.38851,0.880516 -0.66039,0 -1.16838,-0.728119 -1.13451,-1.52397 0.0169,-0.08467 0.0508,-0.101598 0.11853,-0.0508 0.16933,0.16933 0.55879,0.474124 0.94825,0.474124 1.77796,0 2.04889,-1.896496 2.04889,-3.149538 0,-1.473171 -0.44026,-2.997142 -2.13356,-2.997142 -0.59265,0 -0.93131,0.237062 -1.37157,0.287861 -1.9473,0.237062 -2.55688,1.557837 -2.57382,4.11472 z m 3.03101,0.03387 c -0.66039,0 -0.40639,-2.319821 0.28786,-2.319821 0.69426,0 0.40639,2.319821 -0.28786,2.319821 z" />
      <path
         id="path4593-6"
         style="fill:#d6b3b4;fill-opacity:1;stroke:none;stroke-opacity:0"
         d="m 122.81787,89.041722 c 0.74506,-0.03387 1.49011,-0.880516 1.7949,-2.150491 0.1524,-0.761985 -0.0508,-1.320774 -0.23706,-1.303841 -0.33866,0 -0.45719,0.931315 -0.84665,0.931315 -0.50799,-0.01693 -0.69425,-6.163613 -0.22013,-6.180546 0.44026,-0.01693 1.26998,0 1.4901,-0.01693 0.22013,-0.01693 0.254,-0.135464 0.3048,-0.50799 0.11853,-1.134511 0.0339,-1.422372 -1.28691,-1.388506 -0.23706,0.03387 -0.33866,-0.152397 -0.35559,-0.406392 -0.0169,-0.694253 0.52492,-1.100645 0.49105,-1.456238 0,-0.389459 -0.60958,-0.541856 -1.2869,-0.50799 -1.06678,0.03387 -1.59171,0.592655 -1.65944,1.913429 -0.0339,0.694253 -0.1016,0.440258 -1.01598,0.491057 -0.37252,0.01693 -0.54185,0.524923 -0.52492,0.795851 0.0339,0.558789 0.55879,1.083712 0.72812,1.083712 0.13546,0 0.50799,-0.118531 0.42332,0.711187 -0.0339,0.372526 -0.13546,2.455285 -0.0847,3.89459 0.11853,2.184357 0.77892,4.165518 2.28595,4.097786 z" />
      <path
         id="path4595-2"
         style="fill:#d6b3b4;fill-opacity:1;stroke:none;stroke-opacity:0"
         d="m 127.66918,83.927956 c -0.13547,-0.0508 -0.23707,-0.186263 -0.23707,-0.304794 0,-0.152397 0.3048,-0.931315 0.74506,-1.253042 0.16933,0.982114 0.64345,1.490104 1.4393,1.490104 0.3048,0 0.82972,-0.08467 0.82972,-0.372526 0,-0.253995 -0.22013,-0.321727 -0.22013,-0.84665 0,-2.031961 -0.30479,-2.556884 -1.62557,-2.556884 -0.1524,0 -0.30479,0.01693 -0.45719,0.08467 -0.23706,-0.03387 -0.27093,-0.06773 -0.47412,-0.06773 -1.26998,0 -2.67542,2.218224 -2.67542,3.589797 0,1.303841 3.25114,1.879563 3.25114,2.53995 0,0.304794 -0.50799,0.745052 -1.18531,0.745052 -0.64346,0 -0.45719,-0.999047 -0.96518,-0.914382 -0.33866,0.0508 -0.74505,0.67732 -0.74505,1.083712 0,0.778918 1.11757,2.218223 2.62461,2.218223 1.03291,0 2.98021,-1.117578 2.98021,-2.70928 0,-1.507037 -1.50704,-1.981161 -3.285,-2.726213 z" />
      <path
         id="path4597-1"
         style="fill:#52d48c;fill-opacity:1;stroke:none;stroke-opacity:0"
         d="m 86.543418,103.42208 c 0,-0.50799 -0.795851,-0.96518 -1.456238,-1.10065 -0.33866,-0.0508 -0.694253,-0.0847 -0.829717,0.2032 -0.304794,0.67732 -0.524923,1.21918 -0.694253,1.76103 -0.135464,0.45719 0.829717,1.18531 1.439305,1.18531 0.660387,0 1.540903,-1.28691 1.540903,-2.04889 z" />
      <path
         id="path4599-1"
         style="fill:#d6b3b4;fill-opacity:1;stroke:none;stroke-opacity:0"
         d="m 93.951606,96.716611 c 0,-0.643454 -0.728119,-1.117578 -1.320774,-1.117578 -0.220129,0 -0.423325,0.118531 -0.643454,0.118531 -0.270928,0 -1.659434,-0.186263 -1.998094,-0.186263 -2.302889,0 -2.624616,2.963275 -2.624616,5.232299 0,1.77796 0.795851,3.04794 1.811831,3.16647 -0.643454,0.77892 -1.236109,1.77796 -1.236109,2.74315 0,0.30479 0.0508,0.62652 0.16933,0.98211 0.474124,1.33771 1.693301,1.81183 3.047941,1.81183 1.981161,0 2.70928,-0.86358 2.70928,-2.96327 0,-1.37158 -0.270928,-3.23421 -0.270928,-5.50323 0,-1.930362 0.355593,-3.792992 0.355593,-4.284049 z m -3.21727,0.880516 c 0.897449,0 0.406392,4.436443 -0.372526,4.385643 -0.897449,-0.0677 -0.643454,-4.385643 0.372526,-4.385643 z m 0.06773,10.430733 c -0.440258,0 -0.728119,-0.69426 -0.728119,-1.59171 0,-0.76198 0.931315,-2.60768 1.303841,-2.42142 0.101598,0.0508 0.220129,0.69426 0.220129,1.49011 0,0.76198 -0.186263,2.52302 -0.795851,2.52302 z" />
      <path
         id="path4601-9"
         style="fill:#d6b3b4;fill-opacity:1;stroke:none;stroke-opacity:0"
         d="m 95.280847,93.346944 c 0,1.151444 0.491057,1.6933 1.557836,1.6933 0.220129,0 0.372526,-0.08467 0.423325,-0.355593 L 97.83773,92.53416 c 0.118531,-0.457191 -0.84665,-0.829717 -1.540903,-0.829717 -0.440258,0 -0.84665,0.06773 -0.897449,0.321727 -0.101598,0.457191 -0.118531,0.880516 -0.118531,1.320774 z m 1.86263,11.260446 c 1.083712,-0.0169 1.727166,-0.98211 1.710233,-2.42142 -0.01693,-0.67732 -0.16933,-0.74505 -0.355593,-0.74505 -0.321727,0 -0.389459,0.89745 -0.829717,0.91438 -0.541856,0 -0.440258,-3.759126 0.01693,-5.350828 0.01693,-0.118531 0.0508,-0.237062 0.0508,-0.355593 0,-0.592655 -0.541856,-0.84665 -1.35464,-0.829717 -0.660387,0 -1.405439,0.186263 -1.456238,0.643454 -0.118531,0.965181 -0.220129,2.167424 -0.220129,2.997141 0.0508,2.539953 0.643454,5.181503 2.438352,5.147633 z" />
      <path
         id="path4603-9"
         style="fill:#d6b3b4;fill-opacity:1;stroke:none;stroke-opacity:0"
         d="m 101.78391,104.59046 c 0.74505,-0.0339 1.49011,-0.88052 1.7949,-2.15049 0.1524,-0.76199 -0.0508,-1.32078 -0.23706,-1.30385 -0.33866,0 -0.45719,0.93132 -0.84665,0.93132 -0.50799,-0.0169 -0.69425,-6.163613 -0.22013,-6.180546 0.44026,-0.01693 1.26997,0 1.4901,-0.01693 0.22013,-0.01693 0.254,-0.135464 0.3048,-0.50799 0.11853,-1.134511 0.0339,-1.422372 -1.28691,-1.388506 -0.23706,0.03387 -0.33866,-0.152397 -0.35559,-0.406392 -0.0169,-0.694253 0.52492,-1.100645 0.49105,-1.456238 0,-0.389459 -0.60958,-0.541856 -1.2869,-0.50799 -1.06678,0.03387 -1.59171,0.592655 -1.659439,1.913429 -0.03387,0.694253 -0.101598,0.440258 -1.01598,0.491057 -0.372526,0.01693 -0.541856,0.524923 -0.524923,0.795851 0.03387,0.558789 0.558789,1.083712 0.728119,1.083712 0.135464,0 0.50799,-0.118531 0.423325,0.711186 -0.03387,0.372526 -0.135464,2.455285 -0.08467,3.894587 0.118531,2.18436 0.778928,4.16552 2.285958,4.09779 z" />
      <path
         id="path4605-6"
         style="fill:#d6b3b4;fill-opacity:1;stroke:none;stroke-opacity:0"
         d="m 106.58442,104.45499 c 0.18626,0.0508 0.33866,0.0847 0.47412,0.0847 0.40639,0 0.62652,-0.27093 0.71119,-0.82972 0.13546,-0.72812 0.64345,-3.539 0.89745,-3.50513 0.25399,0.0508 -0.44026,4.31791 1.4901,4.31791 0.93132,0 1.67637,-0.94824 1.67637,-1.91342 0,-0.44026 -0.18627,-1.01598 -0.40639,-1.01598 -0.18627,0 -0.3048,0.96518 -0.72812,0.71118 -0.4064,-0.25399 0.0508,-4.165517 0.33866,-5.096832 0.0508,-0.118531 0.0508,-0.237062 0.0508,-0.321727 0,-0.67732 -1.06678,-0.914382 -1.98117,-0.829717 -0.98211,0.135464 -1.77796,2.218223 -2.20129,3.708327 -0.10159,-0.03387 -0.13546,-0.355593 -0.13546,-0.880516 0,-1.828764 0.47412,-5.858818 0.49106,-5.994282 0.0339,-0.118531 0.0339,-0.237062 0.0339,-0.321727 0,-0.67732 -0.72812,-0.948248 -1.40544,-0.948248 -0.94824,0 -1.25304,0.16933 -1.32077,1.032913 -0.0339,0.999047 -0.16933,3.860724 -0.16933,5.469359 0,0.321727 0,0.592655 0.0169,0.795851 0.0169,0.609588 0,1.219179 0.0677,1.828769 0.0847,0.81278 0.11853,1.6425 0.38945,2.43835 0.0847,0.28786 0.1524,0.60959 0.47413,0.74505 0.40639,0.18626 0.81278,0.38946 1.23611,0.52492 z" />
      <path
         id="path4607-9"
         style="fill:#d6b3b4;fill-opacity:1;stroke:none;stroke-opacity:0"
         d="m 120.09034,101.08533 c -0.40639,0 -0.40639,0.93131 -0.82972,0.93131 -0.55879,0 -0.49106,-2.607682 0.0677,-5.333895 0.11853,-0.592655 -0.55879,-0.880516 -1.25304,-0.880516 -0.69425,0 -1.5409,0.186263 -1.5917,0.812784 -0.30479,3.403537 -0.96518,5.401627 -1.35464,5.333897 -0.55879,-0.1016 -0.2032,-3.843793 0.33866,-4.859773 0.1016,-0.16933 0.13546,-0.321727 0.13546,-0.457191 0,-0.592655 -0.84665,-0.829717 -1.65943,-0.829717 -1.33771,0 -1.77797,2.03196 -1.77797,4.250181 0,2.09969 0.4572,4.53805 2.76008,4.53805 0.86359,0 1.50704,-1.06678 1.93037,-2.13356 0.16933,0.93131 0.64345,2.15049 1.89649,2.15049 1.5409,0 1.98116,-3.52206 1.33771,-3.52206 z" />
      <path
         id="path4609-6"
         style="fill:#d6b3b4;fill-opacity:1;stroke:none;stroke-opacity:0"
         d="m 125.82904,96.005425 c -1.43931,0 -2.20129,1.659434 -2.50608,2.523017 0.10159,-1.456238 0.67732,-4.57191 1.08371,-5.875751 0.11853,-0.440258 -0.77892,-0.592655 -1.32078,-0.609588 -0.71118,0.01693 -1.3377,0.253995 -1.45623,0.897449 -0.62653,2.523017 -0.96519,7.382788 -0.38946,10.041268 0.25399,1.08371 1.7441,1.81183 3.58979,1.82877 1.93036,0 3.3358,-2.45529 3.3358,-5.16457 0,-2.015027 -0.66038,-3.640595 -2.33675,-3.640595 z m -1.18531,6.637735 c -0.71119,0.0847 -0.62652,-4.368713 0.45719,-4.453378 0.60959,-0.03387 0.45719,4.402578 -0.45719,4.453378 z m -1.47317,-3.606728 c 0,0.01693 0,0.01693 0,0 z" />
      <path
         id="path4611-8"
         style="fill:#d6b3b4;fill-opacity:1;stroke:none;stroke-opacity:0"
         d="m 86.543418,123.13082 c 0,-0.50799 -0.795851,-0.96518 -1.456238,-1.10065 -0.33866,-0.0508 -0.694253,-0.0847 -0.829717,0.2032 -0.304794,0.67732 -0.524923,1.21918 -0.694253,1.76103 -0.135464,0.45719 0.829717,1.18531 1.439305,1.18531 0.660387,0 1.540903,-1.28691 1.540903,-2.04889 z" />
      <path
         id="path4613-5"
         style="fill:#d6b3b4;fill-opacity:1;stroke:none;stroke-opacity:0"
         d="m 87.872658,113.05568 c 0,1.15145 0.491057,1.6933 1.557836,1.6933 0.22013,0 0.372527,-0.0847 0.423326,-0.35559 l 0.575722,-2.15049 c 0.118531,-0.45719 -0.84665,-0.82972 -1.540904,-0.82972 -0.440258,0 -0.84665,0.0677 -0.897449,0.32173 -0.101598,0.45719 -0.118531,0.88052 -0.118531,1.32077 z m 1.862631,11.26045 c 1.083712,-0.0169 1.727166,-0.98211 1.710233,-2.42142 -0.01693,-0.67732 -0.16933,-0.74505 -0.355593,-0.74505 -0.321727,0 -0.389459,0.89745 -0.829717,0.91438 -0.541856,0 -0.440258,-3.75913 0.01693,-5.35083 0.01693,-0.11853 0.0508,-0.23706 0.0508,-0.35559 0,-0.59266 -0.541856,-0.84665 -1.354641,-0.82972 -0.660387,0 -1.405439,0.18627 -1.456238,0.64346 -0.118531,0.96518 -0.220129,2.16742 -0.220129,2.99714 0.0508,2.53995 0.643454,5.1815 2.438353,5.14763 z" />
      <path
         id="path4615-6"
         style="fill:#d6b3b4;fill-opacity:1;stroke:none;stroke-opacity:0"
         d="m 91.777038,120.18448 c 0.03387,2.77701 0.982114,4.38564 3.911523,4.33485 1.710233,-0.0339 2.37062,-3.16648 2.252089,-5.57096 -0.06773,-1.55784 -0.33866,-3.03101 -2.133558,-3.25114 -0.50799,-0.0339 -0.304794,-0.16933 -0.778918,-0.30479 -0.118531,-0.0508 -0.321727,-0.0508 -0.474124,-0.0508 -1.930362,0.0508 -2.810878,2.50608 -2.777012,4.84284 z m 3.420466,-2.59075 c 0.237062,0 0.423325,0.67732 0.423325,1.5409 0,1.40544 -0.372526,3.26807 -0.84665,3.26807 -0.220129,0 -0.440258,-0.84665 -0.440258,-1.8457 0,-1.35464 0.321727,-2.96327 0.863583,-2.96327 z" />
    </g>
    <g
       transform="translate(0.06579678,0.07730515)"
       id="text18-6-7"
       style="font-size:16.93300056px;line-height:6.61458349px;font-family:Signorita;letter-spacing:0px;word-spacing:0px;fill:#d31277;fill-opacity:1;stroke:none;stroke-opacity:0"
       aria-label="yobeets.github.io">
      <path
         id="path4583-8-0"
         style="fill:#f72f65;fill-opacity:1;stroke:none;stroke-opacity:0"
         d="m 88.202852,93.867627 c 2.489151,-0.03387 2.743146,-3.251136 2.743146,-6.688535 0,-1.845697 -0.118531,-3.04794 -0.118531,-4.521111 0,-0.457191 0.01693,-0.880516 0.03387,-1.269975 0.0508,-0.711187 -0.491057,-0.812785 -1.253042,-0.812785 -0.761985,0 -1.35464,0.169331 -1.405439,1.032914 -0.135464,2.03196 -0.778918,4.080853 -1.269975,4.080853 -0.457191,0 0.06773,-3.335801 0.355593,-4.216317 0.270928,-0.863584 -0.728119,-1.015981 -1.405439,-1.015981 -1.100645,0 -1.473171,0.38946 -1.473171,0.660388 0,0.0508 0.01693,0.101598 0.0508,0.16933 0.03387,0.06773 0.03387,0.16933 0.03387,0.321727 0,0.643454 -0.186263,2.87861 -0.186263,3.572863 0,2.133558 0.491057,3.115672 1.930362,3.115672 1.18531,0 2.03196,-2.269022 2.20129,-2.793945 0.03387,-0.101598 0.253995,0.423325 0.253995,0.897449 0,0.33866 -0.0508,0.711186 -0.287861,0.914382 -1.473171,1.540903 -2.167424,3.200337 -2.167424,4.453379 0,1.253042 0.694253,2.116625 1.964228,2.099692 z m 0.06773,-1.52397 c -0.237062,-0.0508 -0.321727,-0.406392 -0.321727,-0.863583 0,-0.880516 0.372526,-2.150491 0.931315,-2.065826 0.101598,0.03387 0.118531,0.186263 0.118531,0.423325 0,0.812784 -0.423325,2.53995 -0.728119,2.506084 z" />
      <path
         id="path4585-9-8"
         style="fill:#d31277;fill-opacity:1;stroke:none;stroke-opacity:0"
         d="m 91.909327,84.927003 c 0.03387,2.777012 0.982114,4.385647 3.911523,4.334848 1.710233,-0.03387 2.37062,-3.166471 2.252089,-5.570957 -0.06773,-1.557836 -0.33866,-3.031008 -2.133558,-3.251137 -0.50799,-0.03387 -0.304794,-0.16933 -0.778918,-0.304794 -0.118531,-0.0508 -0.321727,-0.0508 -0.474124,-0.0508 -1.930362,0.0508 -2.810878,2.506085 -2.777012,4.842839 z m 3.420466,-2.590749 c 0.237062,0 0.423325,0.67732 0.423325,1.540903 0,1.405439 -0.372526,3.268069 -0.84665,3.268069 -0.220129,0 -0.440258,-0.84665 -0.440258,-1.845697 0,-1.35464 0.321727,-2.963275 0.863583,-2.963275 z" />
      <path
         id="path4587-5-0"
         style="fill:#d31277;fill-opacity:1;stroke:none;stroke-opacity:0"
         d="m 103.73676,80.45669 c -1.4393,0 -2.20129,1.659435 -2.50608,2.523018 0.1016,-1.456238 0.67732,-4.571911 1.08371,-5.875752 0.11853,-0.440258 -0.77892,-0.592655 -1.32077,-0.609588 -0.71119,0.01693 -1.337709,0.253995 -1.45624,0.897449 -0.626521,2.523017 -0.965181,7.382789 -0.389459,10.04127 0.253995,1.083712 1.744099,1.811831 3.589799,1.828764 1.93036,0 3.3358,-2.455285 3.3358,-5.164565 0,-2.015027 -0.66039,-3.640596 -2.33676,-3.640596 z m -1.18531,6.637737 c -0.71118,0.08467 -0.62652,-4.368714 0.45719,-4.453379 0.60959,-0.03387 0.4572,4.40258 -0.45719,4.453379 z m -1.47317,-3.606729 c 0,0.01693 0,0.01693 0,0 z" />
      <path
         id="path4589-4-9"
         style="fill:#d31277;fill-opacity:1;stroke:none;stroke-opacity:0"
         d="m 106.72491,84.40208 c 0.0169,3.505131 2.15049,4.808972 3.52206,4.808972 1.87957,0 3.4882,-1.981161 2.06583,-2.87861 -0.0339,-0.03387 -0.0847,-0.01693 -0.1016,0.03387 -0.25399,0.524923 -0.82972,0.880516 -1.38851,0.880516 -0.66038,0 -1.16837,-0.728119 -1.13451,-1.52397 0.0169,-0.08467 0.0508,-0.101598 0.11853,-0.0508 0.16933,0.16933 0.55879,0.474124 0.94825,0.474124 1.77797,0 2.0489,-1.896496 2.0489,-3.149538 0,-1.473171 -0.44026,-2.997142 -2.13356,-2.997142 -0.59266,0 -0.93132,0.237062 -1.37158,0.287861 -1.94729,0.237062 -2.55688,1.557837 -2.57381,4.11472 z m 3.03101,0.03387 c -0.66039,0 -0.4064,-2.319821 0.28786,-2.319821 0.69425,0 0.40639,2.319821 -0.28786,2.319821 z" />
      <path
         id="path4591-1-4"
         style="fill:#d31277;fill-opacity:1;stroke:none;stroke-opacity:0"
         d="m 113.37243,84.40208 c 0.0169,3.505131 2.15049,4.808972 3.52207,4.808972 1.87956,0 3.4882,-1.981161 2.06582,-2.87861 -0.0339,-0.03387 -0.0847,-0.01693 -0.10159,0.03387 -0.254,0.524923 -0.82972,0.880516 -1.38851,0.880516 -0.66039,0 -1.16838,-0.728119 -1.13451,-1.52397 0.0169,-0.08467 0.0508,-0.101598 0.11853,-0.0508 0.16933,0.16933 0.55879,0.474124 0.94825,0.474124 1.77796,0 2.04889,-1.896496 2.04889,-3.149538 0,-1.473171 -0.44026,-2.997142 -2.13356,-2.997142 -0.59265,0 -0.93131,0.237062 -1.37157,0.287861 -1.9473,0.237062 -2.55688,1.557837 -2.57382,4.11472 z m 3.03101,0.03387 c -0.66039,0 -0.40639,-2.319821 0.28786,-2.319821 0.69426,0 0.40639,2.319821 -0.28786,2.319821 z" />
      <path
         id="path4593-6-1"
         style="fill:#d31277;fill-opacity:1;stroke:none;stroke-opacity:0"
         d="m 122.81787,89.041722 c 0.74506,-0.03387 1.49011,-0.880516 1.7949,-2.150491 0.1524,-0.761985 -0.0508,-1.320774 -0.23706,-1.303841 -0.33866,0 -0.45719,0.931315 -0.84665,0.931315 -0.50799,-0.01693 -0.69425,-6.163613 -0.22013,-6.180546 0.44026,-0.01693 1.26998,0 1.4901,-0.01693 0.22013,-0.01693 0.254,-0.135464 0.3048,-0.50799 0.11853,-1.134511 0.0339,-1.422372 -1.28691,-1.388506 -0.23706,0.03387 -0.33866,-0.152397 -0.35559,-0.406392 -0.0169,-0.694253 0.52492,-1.100645 0.49105,-1.456238 0,-0.389459 -0.60958,-0.541856 -1.2869,-0.50799 -1.06678,0.03387 -1.59171,0.592655 -1.65944,1.913429 -0.0339,0.694253 -0.1016,0.440258 -1.01598,0.491057 -0.37252,0.01693 -0.54185,0.524923 -0.52492,0.795851 0.0339,0.558789 0.55879,1.083712 0.72812,1.083712 0.13546,0 0.50799,-0.118531 0.42332,0.711187 -0.0339,0.372526 -0.13546,2.455285 -0.0847,3.89459 0.11853,2.184357 0.77892,4.165518 2.28595,4.097786 z" />
      <path
         id="path4595-2-2"
         style="fill:#d31277;fill-opacity:1;stroke:none;stroke-opacity:0"
         d="m 127.66918,83.927956 c -0.13547,-0.0508 -0.23707,-0.186263 -0.23707,-0.304794 0,-0.152397 0.3048,-0.931315 0.74506,-1.253042 0.16933,0.982114 0.64345,1.490104 1.4393,1.490104 0.3048,0 0.82972,-0.08467 0.82972,-0.372526 0,-0.253995 -0.22013,-0.321727 -0.22013,-0.84665 0,-2.031961 -0.30479,-2.556884 -1.62557,-2.556884 -0.1524,0 -0.30479,0.01693 -0.45719,0.08467 -0.23706,-0.03387 -0.27093,-0.06773 -0.47412,-0.06773 -1.26998,0 -2.67542,2.218224 -2.67542,3.589797 0,1.303841 3.25114,1.879563 3.25114,2.53995 0,0.304794 -0.50799,0.745052 -1.18531,0.745052 -0.64346,0 -0.45719,-0.999047 -0.96518,-0.914382 -0.33866,0.0508 -0.74505,0.67732 -0.74505,1.083712 0,0.778918 1.11757,2.218223 2.62461,2.218223 1.03291,0 2.98021,-1.117578 2.98021,-2.70928 0,-1.507037 -1.50704,-1.981161 -3.285,-2.726213 z" />
      <path
         id="path4597-1-7"
         style="fill:#d31277;fill-opacity:1;stroke:none;stroke-opacity:0"
         d="m 86.543418,103.42208 c 0,-0.50799 -0.795851,-0.96518 -1.456238,-1.10065 -0.33866,-0.0508 -0.694253,-0.0847 -0.829717,0.2032 -0.304794,0.67732 -0.524923,1.21918 -0.694253,1.76103 -0.135464,0.45719 0.829717,1.18531 1.439305,1.18531 0.660387,0 1.540903,-1.28691 1.540903,-2.04889 z" />
      <path
         id="path4599-1-5"
         style="fill:#d31277;fill-opacity:1;stroke:none;stroke-opacity:0"
         d="m 93.951606,96.716611 c 0,-0.643454 -0.728119,-1.117578 -1.320774,-1.117578 -0.220129,0 -0.423325,0.118531 -0.643454,0.118531 -0.270928,0 -1.659434,-0.186263 -1.998094,-0.186263 -2.302889,0 -2.624616,2.963275 -2.624616,5.232299 0,1.77796 0.795851,3.04794 1.811831,3.16647 -0.643454,0.77892 -1.236109,1.77796 -1.236109,2.74315 0,0.30479 0.0508,0.62652 0.16933,0.98211 0.474124,1.33771 1.693301,1.81183 3.047941,1.81183 1.981161,0 2.70928,-0.86358 2.70928,-2.96327 0,-1.37158 -0.270928,-3.23421 -0.270928,-5.50323 0,-1.930362 0.355593,-3.792992 0.355593,-4.284049 z m -3.21727,0.880516 c 0.897449,0 0.406392,4.436443 -0.372526,4.385643 -0.897449,-0.0677 -0.643454,-4.385643 0.372526,-4.385643 z m 0.06773,10.430733 c -0.440258,0 -0.728119,-0.69426 -0.728119,-1.59171 0,-0.76198 0.931315,-2.60768 1.303841,-2.42142 0.101598,0.0508 0.220129,0.69426 0.220129,1.49011 0,0.76198 -0.186263,2.52302 -0.795851,2.52302 z" />
      <path
         id="path4601-9-0"
         style="fill:#d31277;fill-opacity:1;stroke:none;stroke-opacity:0"
         d="m 95.280847,93.346944 c 0,1.151444 0.491057,1.6933 1.557836,1.6933 0.220129,0 0.372526,-0.08467 0.423325,-0.355593 L 97.83773,92.53416 c 0.118531,-0.457191 -0.84665,-0.829717 -1.540903,-0.829717 -0.440258,0 -0.84665,0.06773 -0.897449,0.321727 -0.101598,0.457191 -0.118531,0.880516 -0.118531,1.320774 z m 1.86263,11.260446 c 1.083712,-0.0169 1.727166,-0.98211 1.710233,-2.42142 -0.01693,-0.67732 -0.16933,-0.74505 -0.355593,-0.74505 -0.321727,0 -0.389459,0.89745 -0.829717,0.91438 -0.541856,0 -0.440258,-3.759126 0.01693,-5.350828 0.01693,-0.118531 0.0508,-0.237062 0.0508,-0.355593 0,-0.592655 -0.541856,-0.84665 -1.35464,-0.829717 -0.660387,0 -1.405439,0.186263 -1.456238,0.643454 -0.118531,0.965181 -0.220129,2.167424 -0.220129,2.997141 0.0508,2.539953 0.643454,5.181503 2.438352,5.147633 z" />
      <path
         id="path4603-9-7"
         style="fill:#d31277;fill-opacity:1;stroke:none;stroke-opacity:0"
         d="m 101.78391,104.59046 c 0.74505,-0.0339 1.49011,-0.88052 1.7949,-2.15049 0.1524,-0.76199 -0.0508,-1.32078 -0.23706,-1.30385 -0.33866,0 -0.45719,0.93132 -0.84665,0.93132 -0.50799,-0.0169 -0.69425,-6.163613 -0.22013,-6.180546 0.44026,-0.01693 1.26997,0 1.4901,-0.01693 0.22013,-0.01693 0.254,-0.135464 0.3048,-0.50799 0.11853,-1.134511 0.0339,-1.422372 -1.28691,-1.388506 -0.23706,0.03387 -0.33866,-0.152397 -0.35559,-0.406392 -0.0169,-0.694253 0.52492,-1.100645 0.49105,-1.456238 0,-0.389459 -0.60958,-0.541856 -1.2869,-0.50799 -1.06678,0.03387 -1.59171,0.592655 -1.659439,1.913429 -0.03387,0.694253 -0.101598,0.440258 -1.01598,0.491057 -0.372526,0.01693 -0.541856,0.524923 -0.524923,0.795851 0.03387,0.558789 0.558789,1.083712 0.728119,1.083712 0.135464,0 0.50799,-0.118531 0.423325,0.711186 -0.03387,0.372526 -0.135464,2.455285 -0.08467,3.894587 0.118531,2.18436 0.778928,4.16552 2.285958,4.09779 z" />
      <path
         id="path4605-6-2"
         style="fill:#d31277;fill-opacity:1;stroke:none;stroke-opacity:0"
         d="m 106.58442,104.45499 c 0.18626,0.0508 0.33866,0.0847 0.47412,0.0847 0.40639,0 0.62652,-0.27093 0.71119,-0.82972 0.13546,-0.72812 0.64345,-3.539 0.89745,-3.50513 0.25399,0.0508 -0.44026,4.31791 1.4901,4.31791 0.93132,0 1.67637,-0.94824 1.67637,-1.91342 0,-0.44026 -0.18627,-1.01598 -0.40639,-1.01598 -0.18627,0 -0.3048,0.96518 -0.72812,0.71118 -0.4064,-0.25399 0.0508,-4.165517 0.33866,-5.096832 0.0508,-0.118531 0.0508,-0.237062 0.0508,-0.321727 0,-0.67732 -1.06678,-0.914382 -1.98117,-0.829717 -0.98211,0.135464 -1.77796,2.218223 -2.20129,3.708327 -0.10159,-0.03387 -0.13546,-0.355593 -0.13546,-0.880516 0,-1.828764 0.47412,-5.858818 0.49106,-5.994282 0.0339,-0.118531 0.0339,-0.237062 0.0339,-0.321727 0,-0.67732 -0.72812,-0.948248 -1.40544,-0.948248 -0.94824,0 -1.25304,0.16933 -1.32077,1.032913 -0.0339,0.999047 -0.16933,3.860724 -0.16933,5.469359 0,0.321727 0,0.592655 0.0169,0.795851 0.0169,0.609588 0,1.219179 0.0677,1.828769 0.0847,0.81278 0.11853,1.6425 0.38945,2.43835 0.0847,0.28786 0.1524,0.60959 0.47413,0.74505 0.40639,0.18626 0.81278,0.38946 1.23611,0.52492 z" />
      <path
         id="path4607-9-0"
         style="fill:#d31277;fill-opacity:1;stroke:none;stroke-opacity:0"
         d="m 120.09034,101.08533 c -0.40639,0 -0.40639,0.93131 -0.82972,0.93131 -0.55879,0 -0.49106,-2.607682 0.0677,-5.333895 0.11853,-0.592655 -0.55879,-0.880516 -1.25304,-0.880516 -0.69425,0 -1.5409,0.186263 -1.5917,0.812784 -0.30479,3.403537 -0.96518,5.401627 -1.35464,5.333897 -0.55879,-0.1016 -0.2032,-3.843793 0.33866,-4.859773 0.1016,-0.16933 0.13546,-0.321727 0.13546,-0.457191 0,-0.592655 -0.84665,-0.829717 -1.65943,-0.829717 -1.33771,0 -1.77797,2.03196 -1.77797,4.250181 0,2.09969 0.4572,4.53805 2.76008,4.53805 0.86359,0 1.50704,-1.06678 1.93037,-2.13356 0.16933,0.93131 0.64345,2.15049 1.89649,2.15049 1.5409,0 1.98116,-3.52206 1.33771,-3.52206 z" />
      <path
         id="path4609-6-8"
         style="fill:#d31277;fill-opacity:1;stroke:none;stroke-opacity:0"
         d="m 125.82904,96.005425 c -1.43931,0 -2.20129,1.659434 -2.50608,2.523017 0.10159,-1.456238 0.67732,-4.57191 1.08371,-5.875751 0.11853,-0.440258 -0.77892,-0.592655 -1.32078,-0.609588 -0.71118,0.01693 -1.3377,0.253995 -1.45623,0.897449 -0.62653,2.523017 -0.96519,7.382788 -0.38946,10.041268 0.25399,1.08371 1.7441,1.81183 3.58979,1.82877 1.93036,0 3.3358,-2.45529 3.3358,-5.16457 0,-2.015027 -0.66038,-3.640595 -2.33675,-3.640595 z m -1.18531,6.637735 c -0.71119,0.0847 -0.62652,-4.368713 0.45719,-4.453378 0.60959,-0.03387 0.45719,4.402578 -0.45719,4.453378 z m -1.47317,-3.606728 c 0,0.01693 0,0.01693 0,0 z" />
      <path
         id="path4611-8-4"
         style="fill:#d31277;fill-opacity:1;stroke:none;stroke-opacity:0"
         d="m 86.543418,123.13082 c 0,-0.50799 -0.795851,-0.96518 -1.456238,-1.10065 -0.33866,-0.0508 -0.694253,-0.0847 -0.829717,0.2032 -0.304794,0.67732 -0.524923,1.21918 -0.694253,1.76103 -0.135464,0.45719 0.829717,1.18531 1.439305,1.18531 0.660387,0 1.540903,-1.28691 1.540903,-2.04889 z" />
      <path
         id="path4613-5-0"
         style="fill:#d31277;fill-opacity:1;stroke:none;stroke-opacity:0"
         d="m 87.872658,113.05568 c 0,1.15145 0.491057,1.6933 1.557836,1.6933 0.22013,0 0.372527,-0.0847 0.423326,-0.35559 l 0.575722,-2.15049 c 0.118531,-0.45719 -0.84665,-0.82972 -1.540904,-0.82972 -0.440258,0 -0.84665,0.0677 -0.897449,0.32173 -0.101598,0.45719 -0.118531,0.88052 -0.118531,1.32077 z m 1.862631,11.26045 c 1.083712,-0.0169 1.727166,-0.98211 1.710233,-2.42142 -0.01693,-0.67732 -0.16933,-0.74505 -0.355593,-0.74505 -0.321727,0 -0.389459,0.89745 -0.829717,0.91438 -0.541856,0 -0.440258,-3.75913 0.01693,-5.35083 0.01693,-0.11853 0.0508,-0.23706 0.0508,-0.35559 0,-0.59266 -0.541856,-0.84665 -1.354641,-0.82972 -0.660387,0 -1.405439,0.18627 -1.456238,0.64346 -0.118531,0.96518 -0.220129,2.16742 -0.220129,2.99714 0.0508,2.53995 0.643454,5.1815 2.438353,5.14763 z" />
      <path
         id="path4615-6-8"
         style="fill:#d31277;fill-opacity:1;stroke:none;stroke-opacity:0"
         d="m 91.777038,120.18448 c 0.03387,2.77701 0.982114,4.38564 3.911523,4.33485 1.710233,-0.0339 2.37062,-3.16648 2.252089,-5.57096 -0.06773,-1.55784 -0.33866,-3.03101 -2.133558,-3.25114 -0.50799,-0.0339 -0.304794,-0.16933 -0.778918,-0.30479 -0.118531,-0.0508 -0.321727,-0.0508 -0.474124,-0.0508 -1.930362,0.0508 -2.810878,2.50608 -2.777012,4.84284 z m 3.420466,-2.59075 c 0.237062,0 0.423325,0.67732 0.423325,1.5409 0,1.40544 -0.372526,3.26807 -0.84665,3.26807 -0.220129,0 -0.440258,-0.84665 -0.440258,-1.8457 0,-1.35464 0.321727,-2.96327 0.863583,-2.96327 z" />
    </g>
  </g>
</svg>
