<?xml version="1.0" encoding="UTF-8"?>
<!-- Created with Inkscape (http://www.inkscape.org/) -->
<svg width="49.727mm" height="51.452mm" version="1.1" viewBox="0 0 49.727032 51.452351" xmlns="http://www.w3.org/2000/svg" xmlns:cc="http://creativecommons.org/ns#" xmlns:dc="http://purl.org/dc/elements/1.1/" xmlns:rdf="http://www.w3.org/1999/02/22-rdf-syntax-ns#">
 <metadata>
  <rdf:RDF>
   <cc:Work rdf:about="">
    <dc:format>image/svg+xml</dc:format>
    <dc:type rdf:resource="http://purl.org/dc/dcmitype/StillImage"/>
    <dc:title/>
   </cc:Work>
  </rdf:RDF>
 </metadata>
 <g transform="translate(-82.016 -74.516)" font-size="16.933px" letter-spacing="0px" word-spacing="0px">
  <g fill="#d6b3b4" stroke="#181744" stroke-width="2.3207" style="paint-order:stroke markers fill" aria-label="yobeets.github.io">
   <path d="m87.831 93.496c2.4892-0.03387 2.7431-3.2511 2.7431-6.6885 0-1.8457-0.11853-3.0479-0.11853-4.5211 0-0.45719 0.01693-0.88052 0.03387-1.27 0.0508-0.71119-0.49106-0.81278-1.253-0.81278s-1.3546 0.16933-1.4054 1.0329c-0.13546 2.032-0.77892 4.0809-1.27 4.0809-0.45719 0 0.06773-3.3358 0.35559-4.2163 0.27093-0.86358-0.72812-1.016-1.4054-1.016-1.1006 0-1.4732 0.38946-1.4732 0.66039 0 0.0508 0.01693 0.1016 0.0508 0.16933 0.03387 0.06773 0.03387 0.16933 0.03387 0.32173 0 0.64345-0.18626 2.8786-0.18626 3.5729 0 2.1336 0.49106 3.1157 1.9304 3.1157 1.1853 0 2.032-2.269 2.2013-2.7939 0.03387-0.1016 0.254 0.42332 0.254 0.89745 0 0.33866-0.0508 0.71119-0.28786 0.91438-1.4732 1.5409-2.1674 3.2003-2.1674 4.4534s0.69425 2.1166 1.9642 2.0997zm0.06773-1.524c-0.23706-0.050799-0.32172-0.40639-0.32172-0.86358 0-0.88052 0.37253-2.1505 0.93132-2.0658 0.1016 0.03387 0.11853 0.18626 0.11853 0.42332 0 0.81278-0.42332 2.54-0.72812 2.5061z" style="paint-order:stroke markers fill"/>
   <path d="m91.537 84.555c0.03387 2.777 0.98211 4.3856 3.9115 4.3348 1.7102-0.03387 2.3706-3.1665 2.2521-5.571-0.06773-1.5578-0.33866-3.031-2.1336-3.2511-0.50799-0.03387-0.30479-0.16933-0.77892-0.30479-0.11853-0.0508-0.32173-0.0508-0.47412-0.0508-1.9304 0.0508-2.8109 2.5061-2.777 4.8428zm3.4205-2.5907c0.23706 0 0.42332 0.67732 0.42332 1.5409 0 1.4054-0.37253 3.2681-0.84665 3.2681-0.22013 0-0.44026-0.84665-0.44026-1.8457 0-1.3546 0.32173-2.9633 0.86358-2.9633z" style="paint-order:stroke markers fill"/>
   <path d="m103.36 80.085c-1.4393 0-2.2013 1.6594-2.5061 2.523 0.1016-1.4562 0.67732-4.5719 1.0837-5.8758 0.11853-0.44026-0.77892-0.59266-1.3208-0.60959-0.71118 0.01693-1.3377 0.254-1.4562 0.89745-0.62652 2.523-0.96518 7.3828-0.38946 10.041 0.254 1.0837 1.7441 1.8118 3.5898 1.8288 1.9304 0 3.3358-2.4553 3.3358-5.1646 0-2.015-0.66039-3.6406-2.3368-3.6406zm-1.1853 6.6377c-0.71119 0.08467-0.62652-4.3687 0.45719-4.4534 0.60959-0.03387 0.45719 4.4026-0.45719 4.4534zm-1.4732-3.6067v0z" style="paint-order:stroke markers fill"/>
   <path d="m106.35 84.03c0.0169 3.5051 2.1505 4.809 3.5221 4.809 1.8796 0 3.4882-1.9812 2.0658-2.8786-0.0339-0.03387-0.0847-0.01693-0.1016 0.03387-0.25399 0.52492-0.82971 0.88052-1.3885 0.88052-0.66039 0-1.1684-0.72812-1.1345-1.524 0.0169-0.08467 0.0508-0.1016 0.11853-0.0508 0.16933 0.16933 0.55879 0.47412 0.94825 0.47412 1.778 0 2.0489-1.8965 2.0489-3.1495 0-1.4732-0.44026-2.9971-2.1336-2.9971-0.59265 0-0.93131 0.23706-1.3716 0.28786-1.9473 0.23706-2.5569 1.5578-2.5738 4.1147zm3.031 0.03387c-0.66039 0-0.40639-2.3198 0.28786-2.3198s0.40639 2.3198-0.28786 2.3198z" style="paint-order:stroke markers fill"/>
   <path d="m113 84.03c0.0169 3.5051 2.1505 4.809 3.5221 4.809 1.8796 0 3.4882-1.9812 2.0658-2.8786-0.0339-0.03387-0.0847-0.01693-0.1016 0.03387-0.254 0.52492-0.82972 0.88052-1.3885 0.88052-0.66038 0-1.1684-0.72812-1.1345-1.524 0.0169-0.08467 0.0508-0.1016 0.11853-0.0508 0.16933 0.16933 0.55879 0.47412 0.94825 0.47412 1.778 0 2.0489-1.8965 2.0489-3.1495 0-1.4732-0.44025-2.9971-2.1336-2.9971-0.59266 0-0.93132 0.23706-1.3716 0.28786-1.9473 0.23706-2.5569 1.5578-2.5738 4.1147zm3.031 0.03387c-0.66038 0-0.40639-2.3198 0.28787-2.3198 0.69425 0 0.40639 2.3198-0.28787 2.3198z" style="paint-order:stroke markers fill"/>
   <path d="m122.45 88.67c0.74505-0.03387 1.4901-0.88052 1.7949-2.1505 0.1524-0.76198-0.0508-1.3208-0.23706-1.3038-0.33866 0-0.45719 0.93132-0.84665 0.93132-0.50799-0.01693-0.69425-6.1636-0.22013-6.1805 0.44026-0.01693 1.27 0 1.4901-0.01693s0.25399-0.13546 0.30479-0.50799c0.11853-1.1345 0.0339-1.4224-1.2869-1.3885-0.23706 0.03387-0.33866-0.1524-0.35559-0.40639-0.0169-0.69425 0.52492-1.1006 0.49106-1.4562 0-0.38946-0.60959-0.54186-1.2869-0.50799-1.0668 0.03387-1.5917 0.59266-1.6594 1.9134-0.0339 0.69425-0.1016 0.44026-1.016 0.49106-0.37253 0.01693-0.54186 0.52492-0.52493 0.79585 0.0339 0.55879 0.55879 1.0837 0.72812 1.0837 0.13547 0 0.50799-0.11853 0.42333 0.71119-0.0339 0.37253-0.13547 2.4553-0.0847 3.8946 0.11853 2.1844 0.77892 4.1655 2.286 4.0978z" style="paint-order:stroke markers fill"/>
   <path d="m127.3 83.556c-0.13546-0.0508-0.23706-0.18626-0.23706-0.30479 0-0.1524 0.30479-0.93132 0.74505-1.253 0.16933 0.98211 0.64345 1.4901 1.4393 1.4901 0.3048 0 0.82972-0.08467 0.82972-0.37253 0-0.254-0.22013-0.32173-0.22013-0.84665 0-2.032-0.30479-2.5569-1.6256-2.5569-0.15239 0-0.30479 0.01693-0.45719 0.08467-0.23706-0.03387-0.27092-0.06773-0.47412-0.06773-1.27 0-2.6754 2.2182-2.6754 3.5898 0 1.3038 3.2511 1.8796 3.2511 2.54 0 0.30479-0.50799 0.74505-1.1853 0.74505-0.64345 0-0.45719-0.99905-0.96518-0.91438-0.33866 0.0508-0.74505 0.67732-0.74505 1.0837 0 0.77892 1.1176 2.2182 2.6246 2.2182 1.0329 0 2.9802-1.1176 2.9802-2.7093 0-1.507-1.507-1.9812-3.285-2.7262z" style="paint-order:stroke markers fill"/>
   <path d="m86.172 103.05c0-0.50799-0.79585-0.96518-1.4562-1.1006-0.33866-0.0508-0.69425-0.0847-0.82972 0.20319-0.30479 0.67732-0.52492 1.2192-0.69425 1.761-0.13546 0.45719 0.82972 1.1853 1.4393 1.1853 0.66039 0 1.5409-1.2869 1.5409-2.0489z" style="paint-order:stroke markers fill"/>
   <path d="m93.58 96.345c0-0.64345-0.72812-1.1176-1.3208-1.1176-0.22013 0-0.42332 0.11853-0.64345 0.11853-0.27093 0-1.6594-0.18626-1.9981-0.18626-2.3029 0-2.6246 2.9633-2.6246 5.2323 0 1.778 0.79585 3.0479 1.8118 3.1665-0.64345 0.77892-1.2361 1.778-1.2361 2.7432 0 0.30479 0.0508 0.62652 0.16933 0.98211 0.47412 1.3377 1.6933 1.8118 3.0479 1.8118 1.9812 0 2.7093-0.86358 2.7093-2.9633 0-1.3716-0.27093-3.2342-0.27093-5.5032 0-1.9304 0.35559-3.793 0.35559-4.284zm-3.2173 0.88052c0.89745 0 0.40639 4.4364-0.37253 4.3856-0.89745-0.0677-0.64345-4.3856 0.37253-4.3856zm0.06773 10.431c-0.44026 0-0.72812-0.69425-0.72812-1.5917 0-0.76199 0.93132-2.6077 1.3038-2.4214 0.1016 0.0508 0.22013 0.69425 0.22013 1.4901 0 0.76199-0.18626 2.523-0.79585 2.523z" style="paint-order:stroke markers fill"/>
   <path d="m94.909 92.975c0 1.1514 0.49106 1.6933 1.5578 1.6933 0.22013 0 0.37253-0.08467 0.42332-0.35559l0.57572-2.1505c0.11853-0.45719-0.84665-0.82972-1.5409-0.82972-0.44026 0-0.84665 0.06773-0.89745 0.32173-0.1016 0.45719-0.11853 0.88052-0.11853 1.3208zm1.8626 11.26c1.0837-0.0169 1.7272-0.98211 1.7102-2.4214-0.01693-0.67732-0.16933-0.74505-0.35559-0.74505-0.32173 0-0.38946 0.89745-0.82972 0.91438-0.54186 0-0.44026-3.7591 0.01693-5.3508 0.01693-0.11853 0.0508-0.23706 0.0508-0.35559 0-0.59266-0.54186-0.84665-1.3546-0.82972-0.66039 0-1.4054 0.18626-1.4562 0.64345-0.11853 0.96518-0.22013 2.1674-0.22013 2.9971 0.0508 2.5399 0.64345 5.1815 2.4384 5.1476z" style="paint-order:stroke markers fill"/>
   <path d="m101.41 104.22c0.74505-0.0339 1.4901-0.88052 1.7949-2.1505 0.1524-0.76199-0.0508-1.3208-0.23706-1.3038-0.33866 0-0.45719 0.93131-0.84665 0.93131-0.50799-0.0169-0.69425-6.1636-0.22013-6.1805 0.44026-0.01693 1.27 0 1.4901-0.01693s0.25399-0.13546 0.30479-0.50799c0.11853-1.1345 0.0339-1.4224-1.2869-1.3885-0.23706 0.03387-0.33866-0.1524-0.35559-0.40639-0.0169-0.69425 0.52492-1.1006 0.49106-1.4562 0-0.38946-0.60959-0.54186-1.2869-0.50799-1.0668 0.03387-1.5917 0.59266-1.6594 1.9134-0.03387 0.69425-0.1016 0.44026-1.016 0.49106-0.37253 0.01693-0.54186 0.52492-0.52492 0.79585 0.03387 0.55879 0.55879 1.0837 0.72812 1.0837 0.13546 0 0.50799-0.11853 0.42332 0.71119-0.03387 0.37253-0.13546 2.4553-0.08467 3.8946 0.11853 2.1844 0.77892 4.1655 2.286 4.0978z" style="paint-order:stroke markers fill"/>
   <path d="m106.21 104.08c0.18626 0.0508 0.33866 0.0847 0.47412 0.0847 0.4064 0 0.62653-0.27093 0.71119-0.82972 0.13546-0.72812 0.64345-3.539 0.89745-3.5051 0.25399 0.0508-0.44026 4.3179 1.4901 4.3179 0.93132 0 1.6764-0.94825 1.6764-1.9134 0-0.44026-0.18626-1.016-0.40639-1.016-0.18626 0-0.3048 0.96518-0.72812 0.71118-0.40639-0.25399 0.0508-4.1655 0.33866-5.0968 0.0508-0.11853 0.0508-0.23706 0.0508-0.32173 0-0.67732-1.0668-0.91438-1.9812-0.82972-0.98212 0.13546-1.778 2.2182-2.2013 3.7083-0.1016-0.03387-0.13547-0.35559-0.13547-0.88052 0-1.8288 0.47413-5.8588 0.49106-5.9943 0.0339-0.11853 0.0339-0.23706 0.0339-0.32173 0-0.67732-0.72812-0.94825-1.4054-0.94825-0.94825 0-1.253 0.16933-1.3208 1.0329-0.0339 0.99905-0.16933 3.8607-0.16933 5.4694 0 0.32173 0 0.59266 0.0169 0.79585 0.0169 0.60959 0 1.2192 0.0677 1.8288 0.0847 0.81278 0.11853 1.6425 0.38946 2.4384 0.0847 0.28786 0.15239 0.60959 0.47412 0.74505 0.40639 0.18627 0.81279 0.38946 1.2361 0.52493z" style="paint-order:stroke markers fill"/>
   <path d="m119.72 100.71c-0.40639 0-0.40639 0.93131-0.82972 0.93131-0.55878 0-0.49105-2.6077 0.0677-5.3339 0.11853-0.59266-0.55879-0.88052-1.253-0.88052-0.69425 0-1.5409 0.18626-1.5917 0.81278-0.30479 3.4035-0.96518 5.4016-1.3546 5.3339-0.55879-0.1016-0.20319-3.8438 0.33866-4.8598 0.1016-0.16933 0.13547-0.32173 0.13547-0.45719 0-0.59266-0.84665-0.82972-1.6594-0.82972-1.3377 0-1.778 2.032-1.778 4.2502 0 2.0997 0.45719 4.538 2.7601 4.538 0.86358 0 1.507-1.0668 1.9304-2.1336 0.16933 0.93132 0.64345 2.1505 1.8965 2.1505 1.5409 0 1.9812-3.5221 1.3377-3.5221z" style="paint-order:stroke markers fill"/>
   <path d="m125.46 95.634c-1.4393 0-2.2013 1.6594-2.5061 2.523 0.1016-1.4562 0.67732-4.5719 1.0837-5.8758 0.11853-0.44026-0.77892-0.59266-1.3208-0.60959-0.71119 0.01693-1.3377 0.254-1.4562 0.89745-0.62652 2.523-0.96518 7.3828-0.38946 10.041 0.25399 1.0837 1.7441 1.8118 3.5898 1.8288 1.9304 0 3.3358-2.4553 3.3358-5.1646 0-2.015-0.66039-3.6406-2.3368-3.6406zm-1.1853 6.6377c-0.71118 0.0847-0.62652-4.3687 0.45719-4.4534 0.60959-0.03387 0.45719 4.4026-0.45719 4.4534zm-1.4732-3.6067v0z" style="paint-order:stroke markers fill"/>
   <path d="m86.172 122.76c0-0.50799-0.79585-0.96518-1.4562-1.1006-0.33866-0.0508-0.69425-0.0847-0.82972 0.20319-0.30479 0.67732-0.52492 1.2192-0.69425 1.761-0.13546 0.45719 0.82972 1.1853 1.4393 1.1853 0.66039 0 1.5409-1.2869 1.5409-2.0489z" style="paint-order:stroke markers fill"/>
   <path d="m87.501 112.68c0 1.1514 0.49106 1.6933 1.5578 1.6933 0.22013 0 0.37253-0.0847 0.42332-0.35559l0.57572-2.1505c0.11853-0.45719-0.84665-0.82972-1.5409-0.82972-0.44026 0-0.84665 0.0677-0.89745 0.32173-0.1016 0.45719-0.11853 0.88052-0.11853 1.3208zm1.8626 11.26c1.0837-0.0169 1.7272-0.98211 1.7102-2.4214-0.01693-0.67732-0.16933-0.74505-0.35559-0.74505-0.32173 0-0.38946 0.89745-0.82972 0.91438-0.54186 0-0.44026-3.7591 0.01693-5.3508 0.01693-0.11853 0.0508-0.23706 0.0508-0.35559 0-0.59266-0.54186-0.84665-1.3546-0.82972-0.66039 0-1.4054 0.18627-1.4562 0.64346-0.11853 0.96518-0.22013 2.1674-0.22013 2.9971 0.0508 2.54 0.64345 5.1815 2.4384 5.1476z" style="paint-order:stroke markers fill"/>
   <path d="m91.405 119.81c0.03387 2.777 0.98211 4.3856 3.9115 4.3348 1.7102-0.0339 2.3706-3.1665 2.2521-5.571-0.06773-1.5578-0.33866-3.031-2.1336-3.2511-0.50799-0.0339-0.30479-0.16933-0.77892-0.30479-0.11853-0.0508-0.32173-0.0508-0.47412-0.0508-1.9304 0.0508-2.8109 2.5061-2.777 4.8428zm3.4205-2.5908c0.23706 0 0.42332 0.67732 0.42332 1.5409 0 1.4054-0.37253 3.2681-0.84665 3.2681-0.22013 0-0.44026-0.84665-0.44026-1.8457 0-1.3546 0.32173-2.9633 0.86358-2.9633z" style="paint-order:stroke markers fill"/>
  </g>
  <g transform="translate(-.37186 -.37186)" fill-opacity="0" aria-label="yobeets.github.io">
   <path d="m88.203 93.868c2.4892-0.03387 2.7431-3.2511 2.7431-6.6885 0-1.8457-0.11853-3.0479-0.11853-4.5211 0-0.45719 0.01693-0.88052 0.03387-1.27 0.0508-0.71119-0.49106-0.81278-1.253-0.81278s-1.3546 0.16933-1.4054 1.0329c-0.13546 2.032-0.77892 4.0809-1.27 4.0809-0.45719 0 0.06773-3.3358 0.35559-4.2163 0.27093-0.86358-0.72812-1.016-1.4054-1.016-1.1006 0-1.4732 0.38946-1.4732 0.66039 0 0.0508 0.01693 0.1016 0.0508 0.16933 0.03387 0.06773 0.03387 0.16933 0.03387 0.32173 0 0.64345-0.18626 2.8786-0.18626 3.5729 0 2.1336 0.49106 3.1157 1.9304 3.1157 1.1853 0 2.032-2.269 2.2013-2.7939 0.03387-0.1016 0.254 0.42332 0.254 0.89745 0 0.33866-0.0508 0.71119-0.28786 0.91438-1.4732 1.5409-2.1674 3.2003-2.1674 4.4534s0.69425 2.1166 1.9642 2.0997zm0.06773-1.524c-0.23706-0.0508-0.32173-0.40639-0.32173-0.86358 0-0.88052 0.37253-2.1505 0.93132-2.0658 0.1016 0.03387 0.11853 0.18626 0.11853 0.42332 0 0.81278-0.42332 2.54-0.72812 2.5061z"/>
   <path d="m91.909 84.927c0.03387 2.777 0.98211 4.3856 3.9115 4.3348 1.7102-0.03387 2.3706-3.1665 2.2521-5.571-0.06773-1.5578-0.33866-3.031-2.1336-3.2511-0.50799-0.03387-0.30479-0.16933-0.77892-0.30479-0.11853-0.0508-0.32173-0.0508-0.47412-0.0508-1.9304 0.0508-2.8109 2.5061-2.777 4.8428zm3.4205-2.5907c0.23706 0 0.42332 0.67732 0.42332 1.5409 0 1.4054-0.37253 3.2681-0.84665 3.2681-0.22013 0-0.44026-0.84665-0.44026-1.8457 0-1.3546 0.32173-2.9633 0.86358-2.9633z"/>
   <path d="m103.74 80.457c-1.4393 0-2.2013 1.6594-2.5061 2.523 0.1016-1.4562 0.67732-4.5719 1.0837-5.8758 0.11853-0.44026-0.77892-0.59266-1.3208-0.60959-0.71119 0.01693-1.3377 0.254-1.4562 0.89745-0.62652 2.523-0.96518 7.3828-0.38946 10.041 0.254 1.0837 1.7441 1.8118 3.5898 1.8288 1.9304 0 3.3358-2.4553 3.3358-5.1646 0-2.015-0.66039-3.6406-2.3368-3.6406zm-1.1853 6.6377c-0.71118 0.08467-0.62652-4.3687 0.45719-4.4534 0.60959-0.03387 0.4572 4.4026-0.45719 4.4534zm-1.4732-3.6067v0z"/>
   <path d="m106.72 84.402c0.0169 3.5051 2.1505 4.809 3.5221 4.809 1.8796 0 3.4882-1.9812 2.0658-2.8786-0.0339-0.03387-0.0847-0.01693-0.1016 0.03387-0.25399 0.52492-0.82972 0.88052-1.3885 0.88052-0.66038 0-1.1684-0.72812-1.1345-1.524 0.0169-0.08467 0.0508-0.1016 0.11853-0.0508 0.16933 0.16933 0.55879 0.47412 0.94825 0.47412 1.778 0 2.0489-1.8965 2.0489-3.1495 0-1.4732-0.44026-2.9971-2.1336-2.9971-0.59266 0-0.93132 0.23706-1.3716 0.28786-1.9473 0.23706-2.5569 1.5578-2.5738 4.1147zm3.031 0.03387c-0.66039 0-0.4064-2.3198 0.28786-2.3198 0.69425 0 0.40639 2.3198-0.28786 2.3198z"/>
   <path d="m113.37 84.402c0.0169 3.5051 2.1505 4.809 3.5221 4.809 1.8796 0 3.4882-1.9812 2.0658-2.8786-0.0339-0.03387-0.0847-0.01693-0.10159 0.03387-0.254 0.52492-0.82972 0.88052-1.3885 0.88052-0.66039 0-1.1684-0.72812-1.1345-1.524 0.0169-0.08467 0.0508-0.1016 0.11853-0.0508 0.16933 0.16933 0.55879 0.47412 0.94825 0.47412 1.778 0 2.0489-1.8965 2.0489-3.1495 0-1.4732-0.44026-2.9971-2.1336-2.9971-0.59265 0-0.93131 0.23706-1.3716 0.28786-1.9473 0.23706-2.5569 1.5578-2.5738 4.1147zm3.031 0.03387c-0.66039 0-0.40639-2.3198 0.28786-2.3198 0.69426 0 0.40639 2.3198-0.28786 2.3198z"/>
   <path d="m122.82 89.042c0.74506-0.03387 1.4901-0.88052 1.7949-2.1505 0.1524-0.76198-0.0508-1.3208-0.23706-1.3038-0.33866 0-0.45719 0.93132-0.84665 0.93132-0.50799-0.01693-0.69425-6.1636-0.22013-6.1805 0.44026-0.01693 1.27 0 1.4901-0.01693 0.22013-0.01693 0.254-0.13546 0.3048-0.50799 0.11853-1.1345 0.0339-1.4224-1.2869-1.3885-0.23706 0.03387-0.33866-0.1524-0.35559-0.40639-0.0169-0.69425 0.52492-1.1006 0.49105-1.4562 0-0.38946-0.60958-0.54186-1.2869-0.50799-1.0668 0.03387-1.5917 0.59266-1.6594 1.9134-0.0339 0.69425-0.1016 0.44026-1.016 0.49106-0.37252 0.01693-0.54185 0.52492-0.52492 0.79585 0.0339 0.55879 0.55879 1.0837 0.72812 1.0837 0.13546 0 0.50799-0.11853 0.42332 0.71119-0.0339 0.37253-0.13546 2.4553-0.0847 3.8946 0.11853 2.1844 0.77892 4.1655 2.286 4.0978z"/>
   <path d="m127.67 83.928c-0.13547-0.0508-0.23707-0.18626-0.23707-0.30479 0-0.1524 0.3048-0.93132 0.74506-1.253 0.16933 0.98211 0.64345 1.4901 1.4393 1.4901 0.3048 0 0.82972-0.08467 0.82972-0.37253 0-0.254-0.22013-0.32173-0.22013-0.84665 0-2.032-0.30479-2.5569-1.6256-2.5569-0.1524 0-0.30479 0.01693-0.45719 0.08467-0.23706-0.03387-0.27093-0.06773-0.47412-0.06773-1.27 0-2.6754 2.2182-2.6754 3.5898 0 1.3038 3.2511 1.8796 3.2511 2.54 0 0.30479-0.50799 0.74505-1.1853 0.74505-0.64346 0-0.45719-0.99905-0.96518-0.91438-0.33866 0.0508-0.74505 0.67732-0.74505 1.0837 0 0.77892 1.1176 2.2182 2.6246 2.2182 1.0329 0 2.9802-1.1176 2.9802-2.7093 0-1.507-1.507-1.9812-3.285-2.7262z"/>
   <path d="m86.543 103.42c0-0.50799-0.79585-0.96518-1.4562-1.1006-0.33866-0.0508-0.69425-0.0847-0.82972 0.2032-0.30479 0.67732-0.52492 1.2192-0.69425 1.761-0.13546 0.45719 0.82972 1.1853 1.4393 1.1853 0.66039 0 1.5409-1.2869 1.5409-2.0489z"/>
   <path d="m93.952 96.717c0-0.64345-0.72812-1.1176-1.3208-1.1176-0.22013 0-0.42332 0.11853-0.64345 0.11853-0.27093 0-1.6594-0.18626-1.9981-0.18626-2.3029 0-2.6246 2.9633-2.6246 5.2323 0 1.778 0.79585 3.0479 1.8118 3.1665-0.64345 0.77892-1.2361 1.778-1.2361 2.7432 0 0.30479 0.0508 0.62652 0.16933 0.98211 0.47412 1.3377 1.6933 1.8118 3.0479 1.8118 1.9812 0 2.7093-0.86358 2.7093-2.9633 0-1.3716-0.27093-3.2342-0.27093-5.5032 0-1.9304 0.35559-3.793 0.35559-4.284zm-3.2173 0.88052c0.89745 0 0.40639 4.4364-0.37253 4.3856-0.89745-0.0677-0.64345-4.3856 0.37253-4.3856zm0.06773 10.431c-0.44026 0-0.72812-0.69426-0.72812-1.5917 0-0.76198 0.93132-2.6077 1.3038-2.4214 0.1016 0.0508 0.22013 0.69426 0.22013 1.4901 0 0.76198-0.18626 2.523-0.79585 2.523z"/>
   <path d="m95.281 93.347c0 1.1514 0.49106 1.6933 1.5578 1.6933 0.22013 0 0.37253-0.08467 0.42332-0.35559l0.57572-2.1505c0.11853-0.45719-0.84665-0.82972-1.5409-0.82972-0.44026 0-0.84665 0.06773-0.89745 0.32173-0.1016 0.45719-0.11853 0.88052-0.11853 1.3208zm1.8626 11.26c1.0837-0.0169 1.7272-0.98211 1.7102-2.4214-0.01693-0.67732-0.16933-0.74505-0.35559-0.74505-0.32173 0-0.38946 0.89745-0.82972 0.91438-0.54186 0-0.44026-3.7591 0.01693-5.3508 0.01693-0.11853 0.0508-0.23706 0.0508-0.35559 0-0.59266-0.54186-0.84665-1.3546-0.82972-0.66039 0-1.4054 0.18626-1.4562 0.64345-0.11853 0.96518-0.22013 2.1674-0.22013 2.9971 0.0508 2.54 0.64345 5.1815 2.4384 5.1476z"/>
   <path d="m101.78 104.59c0.74505-0.0339 1.4901-0.88052 1.7949-2.1505 0.1524-0.76199-0.0508-1.3208-0.23706-1.3038-0.33866 0-0.45719 0.93132-0.84665 0.93132-0.50799-0.0169-0.69425-6.1636-0.22013-6.1805 0.44026-0.01693 1.27 0 1.4901-0.01693s0.254-0.13546 0.3048-0.50799c0.11853-1.1345 0.0339-1.4224-1.2869-1.3885-0.23706 0.03387-0.33866-0.1524-0.35559-0.40639-0.0169-0.69425 0.52492-1.1006 0.49105-1.4562 0-0.38946-0.60958-0.54186-1.2869-0.50799-1.0668 0.03387-1.5917 0.59266-1.6594 1.9134-0.03387 0.69425-0.1016 0.44026-1.016 0.49106-0.37253 0.01693-0.54186 0.52492-0.52492 0.79585 0.03387 0.55879 0.55879 1.0837 0.72812 1.0837 0.13546 0 0.50799-0.11853 0.42332 0.71119-0.03387 0.37253-0.13546 2.4553-0.08467 3.8946 0.11853 2.1844 0.77893 4.1655 2.286 4.0978z"/>
   <path d="m106.58 104.45c0.18626 0.0508 0.33866 0.0847 0.47412 0.0847 0.40639 0 0.62652-0.27093 0.71119-0.82972 0.13546-0.72812 0.64345-3.539 0.89745-3.5051 0.25399 0.0508-0.44026 4.3179 1.4901 4.3179 0.93132 0 1.6764-0.94824 1.6764-1.9134 0-0.44026-0.18627-1.016-0.40639-1.016-0.18627 0-0.3048 0.96518-0.72812 0.71118-0.4064-0.25399 0.0508-4.1655 0.33866-5.0968 0.0508-0.11853 0.0508-0.23706 0.0508-0.32173 0-0.67732-1.0668-0.91438-1.9812-0.82972-0.98211 0.13546-1.778 2.2182-2.2013 3.7083-0.10159-0.03387-0.13546-0.35559-0.13546-0.88052 0-1.8288 0.47412-5.8588 0.49106-5.9943 0.0339-0.11853 0.0339-0.23706 0.0339-0.32173 0-0.67732-0.72812-0.94825-1.4054-0.94825-0.94824 0-1.253 0.16933-1.3208 1.0329-0.0339 0.99905-0.16933 3.8607-0.16933 5.4694 0 0.32173 0 0.59266 0.0169 0.79585 0.0169 0.60959 0 1.2192 0.0677 1.8288 0.0847 0.81278 0.11853 1.6425 0.38945 2.4384 0.0847 0.28786 0.1524 0.60959 0.47413 0.74505 0.40639 0.18626 0.81278 0.38946 1.2361 0.52492z"/>
   <path d="m120.09 101.09c-0.40639 0-0.40639 0.93131-0.82972 0.93131-0.55879 0-0.49106-2.6077 0.0677-5.3339 0.11853-0.59266-0.55879-0.88052-1.253-0.88052s-1.5409 0.18626-1.5917 0.81278c-0.30479 3.4035-0.96518 5.4016-1.3546 5.3339-0.55879-0.1016-0.2032-3.8438 0.33866-4.8598 0.1016-0.16933 0.13546-0.32173 0.13546-0.45719 0-0.59266-0.84665-0.82972-1.6594-0.82972-1.3377 0-1.778 2.032-1.778 4.2502 0 2.0997 0.4572 4.538 2.7601 4.538 0.86359 0 1.507-1.0668 1.9304-2.1336 0.16933 0.93131 0.64345 2.1505 1.8965 2.1505 1.5409 0 1.9812-3.5221 1.3377-3.5221z"/>
   <path d="m125.83 96.005c-1.4393 0-2.2013 1.6594-2.5061 2.523 0.10159-1.4562 0.67732-4.5719 1.0837-5.8758 0.11853-0.44026-0.77892-0.59266-1.3208-0.60959-0.71118 0.01693-1.3377 0.254-1.4562 0.89745-0.62653 2.523-0.96519 7.3828-0.38946 10.041 0.25399 1.0837 1.7441 1.8118 3.5898 1.8288 1.9304 0 3.3358-2.4553 3.3358-5.1646 0-2.015-0.66038-3.6406-2.3368-3.6406zm-1.1853 6.6377c-0.71119 0.0847-0.62652-4.3687 0.45719-4.4534 0.60959-0.03387 0.45719 4.4026-0.45719 4.4534zm-1.4732-3.6067v0z"/>
   <path d="m86.543 123.13c0-0.50799-0.79585-0.96518-1.4562-1.1006-0.33866-0.0508-0.69425-0.0847-0.82972 0.2032-0.30479 0.67732-0.52492 1.2192-0.69425 1.761-0.13546 0.45719 0.82972 1.1853 1.4393 1.1853 0.66039 0 1.5409-1.2869 1.5409-2.0489z"/>
   <path d="m87.873 113.06c0 1.1514 0.49106 1.6933 1.5578 1.6933 0.22013 0 0.37253-0.0847 0.42333-0.35559l0.57572-2.1505c0.11853-0.45719-0.84665-0.82972-1.5409-0.82972-0.44026 0-0.84665 0.0677-0.89745 0.32173-0.1016 0.45719-0.11853 0.88052-0.11853 1.3208zm1.8626 11.26c1.0837-0.0169 1.7272-0.98211 1.7102-2.4214-0.01693-0.67732-0.16933-0.74505-0.35559-0.74505-0.32173 0-0.38946 0.89745-0.82972 0.91438-0.54186 0-0.44026-3.7591 0.01693-5.3508 0.01693-0.11853 0.0508-0.23706 0.0508-0.35559 0-0.59266-0.54186-0.84665-1.3546-0.82972-0.66039 0-1.4054 0.18627-1.4562 0.64346-0.11853 0.96518-0.22013 2.1674-0.22013 2.9971 0.0508 2.54 0.64345 5.1815 2.4384 5.1476z"/>
   <path d="m91.777 120.18c0.03387 2.777 0.98211 4.3856 3.9115 4.3348 1.7102-0.0339 2.3706-3.1665 2.2521-5.571-0.06773-1.5578-0.33866-3.031-2.1336-3.2511-0.50799-0.0339-0.30479-0.16933-0.77892-0.30479-0.11853-0.0508-0.32173-0.0508-0.47412-0.0508-1.9304 0.0508-2.8109 2.5061-2.777 4.8428zm3.4205-2.5908c0.23706 0 0.42332 0.67732 0.42332 1.5409 0 1.4054-0.37253 3.2681-0.84665 3.2681-0.22013 0-0.44026-0.84665-0.44026-1.8457 0-1.3546 0.32173-2.9633 0.86358-2.9633z"/>
  </g>
  <g transform="translate(-.37186 -.37186)" aria-label="yobeets.github.io">
   <g fill="#d6b3b4">
    <path d="m88.203 93.868c2.4892-0.03387 2.7431-3.2511 2.7431-6.6885 0-1.8457-0.11853-3.0479-0.11853-4.5211 0-0.45719 0.01693-0.88052 0.03387-1.27 0.0508-0.71119-0.49106-0.81278-1.253-0.81278s-1.3546 0.16933-1.4054 1.0329c-0.13546 2.032-0.77892 4.0809-1.27 4.0809-0.45719 0 0.06773-3.3358 0.35559-4.2163 0.27093-0.86358-0.72812-1.016-1.4054-1.016-1.1006 0-1.4732 0.38946-1.4732 0.66039 0 0.0508 0.01693 0.1016 0.0508 0.16933 0.03387 0.06773 0.03387 0.16933 0.03387 0.32173 0 0.64345-0.18626 2.8786-0.18626 3.5729 0 2.1336 0.49106 3.1157 1.9304 3.1157 1.1853 0 2.032-2.269 2.2013-2.7939 0.03387-0.1016 0.254 0.42332 0.254 0.89745 0 0.33866-0.0508 0.71119-0.28786 0.91438-1.4732 1.5409-2.1674 3.2003-2.1674 4.4534s0.69425 2.1166 1.9642 2.0997zm0.06773-1.524c-0.23706-0.0508-0.32173-0.40639-0.32173-0.86358 0-0.88052 0.37253-2.1505 0.93132-2.0658 0.1016 0.03387 0.11853 0.18626 0.11853 0.42332 0 0.81278-0.42332 2.54-0.72812 2.5061z"/>
    <path d="m91.909 84.927c0.03387 2.777 0.98211 4.3856 3.9115 4.3348 1.7102-0.03387 2.3706-3.1665 2.2521-5.571-0.06773-1.5578-0.33866-3.031-2.1336-3.2511-0.50799-0.03387-0.30479-0.16933-0.77892-0.30479-0.11853-0.0508-0.32173-0.0508-0.47412-0.0508-1.9304 0.0508-2.8109 2.5061-2.777 4.8428zm3.4205-2.5907c0.23706 0 0.42332 0.67732 0.42332 1.5409 0 1.4054-0.37253 3.2681-0.84665 3.2681-0.22013 0-0.44026-0.84665-0.44026-1.8457 0-1.3546 0.32173-2.9633 0.86358-2.9633z"/>
    <path d="m103.74 80.457c-1.4393 0-2.2013 1.6594-2.5061 2.523 0.1016-1.4562 0.67732-4.5719 1.0837-5.8758 0.11853-0.44026-0.77892-0.59266-1.3208-0.60959-0.71119 0.01693-1.3377 0.254-1.4562 0.89745-0.62652 2.523-0.96518 7.3828-0.38946 10.041 0.254 1.0837 1.7441 1.8118 3.5898 1.8288 1.9304 0 3.3358-2.4553 3.3358-5.1646 0-2.015-0.66039-3.6406-2.3368-3.6406zm-1.1853 6.6377c-0.71118 0.08467-0.62652-4.3687 0.45719-4.4534 0.60959-0.03387 0.4572 4.4026-0.45719 4.4534zm-1.4732-3.6067v0z"/>
    <path d="m106.72 84.402c0.0169 3.5051 2.1505 4.809 3.5221 4.809 1.8796 0 3.4882-1.9812 2.0658-2.8786-0.0339-0.03387-0.0847-0.01693-0.1016 0.03387-0.25399 0.52492-0.82972 0.88052-1.3885 0.88052-0.66038 0-1.1684-0.72812-1.1345-1.524 0.0169-0.08467 0.0508-0.1016 0.11853-0.0508 0.16933 0.16933 0.55879 0.47412 0.94825 0.47412 1.778 0 2.0489-1.8965 2.0489-3.1495 0-1.4732-0.44026-2.9971-2.1336-2.9971-0.59266 0-0.93132 0.23706-1.3716 0.28786-1.9473 0.23706-2.5569 1.5578-2.5738 4.1147zm3.031 0.03387c-0.66039 0-0.4064-2.3198 0.28786-2.3198 0.69425 0 0.40639 2.3198-0.28786 2.3198z"/>
    <path d="m113.37 84.402c0.0169 3.5051 2.1505 4.809 3.5221 4.809 1.8796 0 3.4882-1.9812 2.0658-2.8786-0.0339-0.03387-0.0847-0.01693-0.10159 0.03387-0.254 0.52492-0.82972 0.88052-1.3885 0.88052-0.66039 0-1.1684-0.72812-1.1345-1.524 0.0169-0.08467 0.0508-0.1016 0.11853-0.0508 0.16933 0.16933 0.55879 0.47412 0.94825 0.47412 1.778 0 2.0489-1.8965 2.0489-3.1495 0-1.4732-0.44026-2.9971-2.1336-2.9971-0.59265 0-0.93131 0.23706-1.3716 0.28786-1.9473 0.23706-2.5569 1.5578-2.5738 4.1147zm3.031 0.03387c-0.66039 0-0.40639-2.3198 0.28786-2.3198 0.69426 0 0.40639 2.3198-0.28786 2.3198z"/>
    <path d="m122.82 89.042c0.74506-0.03387 1.4901-0.88052 1.7949-2.1505 0.1524-0.76198-0.0508-1.3208-0.23706-1.3038-0.33866 0-0.45719 0.93132-0.84665 0.93132-0.50799-0.01693-0.69425-6.1636-0.22013-6.1805 0.44026-0.01693 1.27 0 1.4901-0.01693 0.22013-0.01693 0.254-0.13546 0.3048-0.50799 0.11853-1.1345 0.0339-1.4224-1.2869-1.3885-0.23706 0.03387-0.33866-0.1524-0.35559-0.40639-0.0169-0.69425 0.52492-1.1006 0.49105-1.4562 0-0.38946-0.60958-0.54186-1.2869-0.50799-1.0668 0.03387-1.5917 0.59266-1.6594 1.9134-0.0339 0.69425-0.1016 0.44026-1.016 0.49106-0.37252 0.01693-0.54185 0.52492-0.52492 0.79585 0.0339 0.55879 0.55879 1.0837 0.72812 1.0837 0.13546 0 0.50799-0.11853 0.42332 0.71119-0.0339 0.37253-0.13546 2.4553-0.0847 3.8946 0.11853 2.1844 0.77892 4.1655 2.286 4.0978z"/>
    <path d="m127.67 83.928c-0.13547-0.0508-0.23707-0.18626-0.23707-0.30479 0-0.1524 0.3048-0.93132 0.74506-1.253 0.16933 0.98211 0.64345 1.4901 1.4393 1.4901 0.3048 0 0.82972-0.08467 0.82972-0.37253 0-0.254-0.22013-0.32173-0.22013-0.84665 0-2.032-0.30479-2.5569-1.6256-2.5569-0.1524 0-0.30479 0.01693-0.45719 0.08467-0.23706-0.03387-0.27093-0.06773-0.47412-0.06773-1.27 0-2.6754 2.2182-2.6754 3.5898 0 1.3038 3.2511 1.8796 3.2511 2.54 0 0.30479-0.50799 0.74505-1.1853 0.74505-0.64346 0-0.45719-0.99905-0.96518-0.91438-0.33866 0.0508-0.74505 0.67732-0.74505 1.0837 0 0.77892 1.1176 2.2182 2.6246 2.2182 1.0329 0 2.9802-1.1176 2.9802-2.7093 0-1.507-1.507-1.9812-3.285-2.7262z"/>
   </g>
   <path d="m86.543 103.42c0-0.50799-0.79585-0.96518-1.4562-1.1006-0.33866-0.0508-0.69425-0.0847-0.82972 0.2032-0.30479 0.67732-0.52492 1.2192-0.69425 1.761-0.13546 0.45719 0.82972 1.1853 1.4393 1.1853 0.66039 0 1.5409-1.2869 1.5409-2.0489z" fill="#52d48c"/>
   <g fill="#d6b3b4">
    <path d="m93.952 96.717c0-0.64345-0.72812-1.1176-1.3208-1.1176-0.22013 0-0.42332 0.11853-0.64345 0.11853-0.27093 0-1.6594-0.18626-1.9981-0.18626-2.3029 0-2.6246 2.9633-2.6246 5.2323 0 1.778 0.79585 3.0479 1.8118 3.1665-0.64345 0.77892-1.2361 1.778-1.2361 2.7432 0 0.30479 0.0508 0.62652 0.16933 0.98211 0.47412 1.3377 1.6933 1.8118 3.0479 1.8118 1.9812 0 2.7093-0.86358 2.7093-2.9633 0-1.3716-0.27093-3.2342-0.27093-5.5032 0-1.9304 0.35559-3.793 0.35559-4.284zm-3.2173 0.88052c0.89745 0 0.40639 4.4364-0.37253 4.3856-0.89745-0.0677-0.64345-4.3856 0.37253-4.3856zm0.06773 10.431c-0.44026 0-0.72812-0.69426-0.72812-1.5917 0-0.76198 0.93132-2.6077 1.3038-2.4214 0.1016 0.0508 0.22013 0.69426 0.22013 1.4901 0 0.76198-0.18626 2.523-0.79585 2.523z"/>
    <path d="m95.281 93.347c0 1.1514 0.49106 1.6933 1.5578 1.6933 0.22013 0 0.37253-0.08467 0.42332-0.35559l0.57572-2.1505c0.11853-0.45719-0.84665-0.82972-1.5409-0.82972-0.44026 0-0.84665 0.06773-0.89745 0.32173-0.1016 0.45719-0.11853 0.88052-0.11853 1.3208zm1.8626 11.26c1.0837-0.0169 1.7272-0.98211 1.7102-2.4214-0.01693-0.67732-0.16933-0.74505-0.35559-0.74505-0.32173 0-0.38946 0.89745-0.82972 0.91438-0.54186 0-0.44026-3.7591 0.01693-5.3508 0.01693-0.11853 0.0508-0.23706 0.0508-0.35559 0-0.59266-0.54186-0.84665-1.3546-0.82972-0.66039 0-1.4054 0.18626-1.4562 0.64345-0.11853 0.96518-0.22013 2.1674-0.22013 2.9971 0.0508 2.54 0.64345 5.1815 2.4384 5.1476z"/>
    <path d="m101.78 104.59c0.74505-0.0339 1.4901-0.88052 1.7949-2.1505 0.1524-0.76199-0.0508-1.3208-0.23706-1.3038-0.33866 0-0.45719 0.93132-0.84665 0.93132-0.50799-0.0169-0.69425-6.1636-0.22013-6.1805 0.44026-0.01693 1.27 0 1.4901-0.01693s0.254-0.13546 0.3048-0.50799c0.11853-1.1345 0.0339-1.4224-1.2869-1.3885-0.23706 0.03387-0.33866-0.1524-0.35559-0.40639-0.0169-0.69425 0.52492-1.1006 0.49105-1.4562 0-0.38946-0.60958-0.54186-1.2869-0.50799-1.0668 0.03387-1.5917 0.59266-1.6594 1.9134-0.03387 0.69425-0.1016 0.44026-1.016 0.49106-0.37253 0.01693-0.54186 0.52492-0.52492 0.79585 0.03387 0.55879 0.55879 1.0837 0.72812 1.0837 0.13546 0 0.50799-0.11853 0.42332 0.71119-0.03387 0.37253-0.13546 2.4553-0.08467 3.8946 0.11853 2.1844 0.77893 4.1655 2.286 4.0978z"/>
    <path d="m106.58 104.45c0.18626 0.0508 0.33866 0.0847 0.47412 0.0847 0.40639 0 0.62652-0.27093 0.71119-0.82972 0.13546-0.72812 0.64345-3.539 0.89745-3.5051 0.25399 0.0508-0.44026 4.3179 1.4901 4.3179 0.93132 0 1.6764-0.94824 1.6764-1.9134 0-0.44026-0.18627-1.016-0.40639-1.016-0.18627 0-0.3048 0.96518-0.72812 0.71118-0.4064-0.25399 0.0508-4.1655 0.33866-5.0968 0.0508-0.11853 0.0508-0.23706 0.0508-0.32173 0-0.67732-1.0668-0.91438-1.9812-0.82972-0.98211 0.13546-1.778 2.2182-2.2013 3.7083-0.10159-0.03387-0.13546-0.35559-0.13546-0.88052 0-1.8288 0.47412-5.8588 0.49106-5.9943 0.0339-0.11853 0.0339-0.23706 0.0339-0.32173 0-0.67732-0.72812-0.94825-1.4054-0.94825-0.94824 0-1.253 0.16933-1.3208 1.0329-0.0339 0.99905-0.16933 3.8607-0.16933 5.4694 0 0.32173 0 0.59266 0.0169 0.79585 0.0169 0.60959 0 1.2192 0.0677 1.8288 0.0847 0.81278 0.11853 1.6425 0.38945 2.4384 0.0847 0.28786 0.1524 0.60959 0.47413 0.74505 0.40639 0.18626 0.81278 0.38946 1.2361 0.52492z"/>
    <path d="m120.09 101.09c-0.40639 0-0.40639 0.93131-0.82972 0.93131-0.55879 0-0.49106-2.6077 0.0677-5.3339 0.11853-0.59266-0.55879-0.88052-1.253-0.88052s-1.5409 0.18626-1.5917 0.81278c-0.30479 3.4035-0.96518 5.4016-1.3546 5.3339-0.55879-0.1016-0.2032-3.8438 0.33866-4.8598 0.1016-0.16933 0.13546-0.32173 0.13546-0.45719 0-0.59266-0.84665-0.82972-1.6594-0.82972-1.3377 0-1.778 2.032-1.778 4.2502 0 2.0997 0.4572 4.538 2.7601 4.538 0.86359 0 1.507-1.0668 1.9304-2.1336 0.16933 0.93131 0.64345 2.1505 1.8965 2.1505 1.5409 0 1.9812-3.5221 1.3377-3.5221z"/>
    <path d="m125.83 96.005c-1.4393 0-2.2013 1.6594-2.5061 2.523 0.10159-1.4562 0.67732-4.5719 1.0837-5.8758 0.11853-0.44026-0.77892-0.59266-1.3208-0.60959-0.71118 0.01693-1.3377 0.254-1.4562 0.89745-0.62653 2.523-0.96519 7.3828-0.38946 10.041 0.25399 1.0837 1.7441 1.8118 3.5898 1.8288 1.9304 0 3.3358-2.4553 3.3358-5.1646 0-2.015-0.66038-3.6406-2.3368-3.6406zm-1.1853 6.6377c-0.71119 0.0847-0.62652-4.3687 0.45719-4.4534 0.60959-0.03387 0.45719 4.4026-0.45719 4.4534zm-1.4732-3.6067v0z"/>
    <path d="m86.543 123.13c0-0.50799-0.79585-0.96518-1.4562-1.1006-0.33866-0.0508-0.69425-0.0847-0.82972 0.2032-0.30479 0.67732-0.52492 1.2192-0.69425 1.761-0.13546 0.45719 0.82972 1.1853 1.4393 1.1853 0.66039 0 1.5409-1.2869 1.5409-2.0489z"/>
    <path d="m87.873 113.06c0 1.1514 0.49106 1.6933 1.5578 1.6933 0.22013 0 0.37253-0.0847 0.42333-0.35559l0.57572-2.1505c0.11853-0.45719-0.84665-0.82972-1.5409-0.82972-0.44026 0-0.84665 0.0677-0.89745 0.32173-0.1016 0.45719-0.11853 0.88052-0.11853 1.3208zm1.8626 11.26c1.0837-0.0169 1.7272-0.98211 1.7102-2.4214-0.01693-0.67732-0.16933-0.74505-0.35559-0.74505-0.32173 0-0.38946 0.89745-0.82972 0.91438-0.54186 0-0.44026-3.7591 0.01693-5.3508 0.01693-0.11853 0.0508-0.23706 0.0508-0.35559 0-0.59266-0.54186-0.84665-1.3546-0.82972-0.66039 0-1.4054 0.18627-1.4562 0.64346-0.11853 0.96518-0.22013 2.1674-0.22013 2.9971 0.0508 2.54 0.64345 5.1815 2.4384 5.1476z"/>
    <path d="m91.777 120.18c0.03387 2.777 0.98211 4.3856 3.9115 4.3348 1.7102-0.0339 2.3706-3.1665 2.2521-5.571-0.06773-1.5578-0.33866-3.031-2.1336-3.2511-0.50799-0.0339-0.30479-0.16933-0.77892-0.30479-0.11853-0.0508-0.32173-0.0508-0.47412-0.0508-1.9304 0.0508-2.8109 2.5061-2.777 4.8428zm3.4205-2.5908c0.23706 0 0.42332 0.67732 0.42332 1.5409 0 1.4054-0.37253 3.2681-0.84665 3.2681-0.22013 0-0.44026-0.84665-0.44026-1.8457 0-1.3546 0.32173-2.9633 0.86358-2.9633z"/>
   </g>
  </g>
  <g transform="translate(.065797 .077305)" aria-label="yobeets.github.io">
   <path d="m88.203 93.868c2.4892-0.03387 2.7431-3.2511 2.7431-6.6885 0-1.8457-0.11853-3.0479-0.11853-4.5211 0-0.45719 0.01693-0.88052 0.03387-1.27 0.0508-0.71119-0.49106-0.81278-1.253-0.81278s-1.3546 0.16933-1.4054 1.0329c-0.13546 2.032-0.77892 4.0809-1.27 4.0809-0.45719 0 0.06773-3.3358 0.35559-4.2163 0.27093-0.86358-0.72812-1.016-1.4054-1.016-1.1006 0-1.4732 0.38946-1.4732 0.66039 0 0.0508 0.01693 0.1016 0.0508 0.16933 0.03387 0.06773 0.03387 0.16933 0.03387 0.32173 0 0.64345-0.18626 2.8786-0.18626 3.5729 0 2.1336 0.49106 3.1157 1.9304 3.1157 1.1853 0 2.032-2.269 2.2013-2.7939 0.03387-0.1016 0.254 0.42332 0.254 0.89745 0 0.33866-0.0508 0.71119-0.28786 0.91438-1.4732 1.5409-2.1674 3.2003-2.1674 4.4534s0.69425 2.1166 1.9642 2.0997zm0.06773-1.524c-0.23706-0.0508-0.32173-0.40639-0.32173-0.86358 0-0.88052 0.37253-2.1505 0.93132-2.0658 0.1016 0.03387 0.11853 0.18626 0.11853 0.42332 0 0.81278-0.42332 2.54-0.72812 2.5061z" fill="#f72f65"/>
   <g fill="#d31277">
    <path d="m91.909 84.927c0.03387 2.777 0.98211 4.3856 3.9115 4.3348 1.7102-0.03387 2.3706-3.1665 2.2521-5.571-0.06773-1.5578-0.33866-3.031-2.1336-3.2511-0.50799-0.03387-0.30479-0.16933-0.77892-0.30479-0.11853-0.0508-0.32173-0.0508-0.47412-0.0508-1.9304 0.0508-2.8109 2.5061-2.777 4.8428zm3.4205-2.5907c0.23706 0 0.42332 0.67732 0.42332 1.5409 0 1.4054-0.37253 3.2681-0.84665 3.2681-0.22013 0-0.44026-0.84665-0.44026-1.8457 0-1.3546 0.32173-2.9633 0.86358-2.9633z"/>
    <path d="m103.74 80.457c-1.4393 0-2.2013 1.6594-2.5061 2.523 0.1016-1.4562 0.67732-4.5719 1.0837-5.8758 0.11853-0.44026-0.77892-0.59266-1.3208-0.60959-0.71119 0.01693-1.3377 0.254-1.4562 0.89745-0.62652 2.523-0.96518 7.3828-0.38946 10.041 0.254 1.0837 1.7441 1.8118 3.5898 1.8288 1.9304 0 3.3358-2.4553 3.3358-5.1646 0-2.015-0.66039-3.6406-2.3368-3.6406zm-1.1853 6.6377c-0.71118 0.08467-0.62652-4.3687 0.45719-4.4534 0.60959-0.03387 0.4572 4.4026-0.45719 4.4534zm-1.4732-3.6067v0z"/>
    <path d="m106.72 84.402c0.0169 3.5051 2.1505 4.809 3.5221 4.809 1.8796 0 3.4882-1.9812 2.0658-2.8786-0.0339-0.03387-0.0847-0.01693-0.1016 0.03387-0.25399 0.52492-0.82972 0.88052-1.3885 0.88052-0.66038 0-1.1684-0.72812-1.1345-1.524 0.0169-0.08467 0.0508-0.1016 0.11853-0.0508 0.16933 0.16933 0.55879 0.47412 0.94825 0.47412 1.778 0 2.0489-1.8965 2.0489-3.1495 0-1.4732-0.44026-2.9971-2.1336-2.9971-0.59266 0-0.93132 0.23706-1.3716 0.28786-1.9473 0.23706-2.5569 1.5578-2.5738 4.1147zm3.031 0.03387c-0.66039 0-0.4064-2.3198 0.28786-2.3198 0.69425 0 0.40639 2.3198-0.28786 2.3198z"/>
    <path d="m113.37 84.402c0.0169 3.5051 2.1505 4.809 3.5221 4.809 1.8796 0 3.4882-1.9812 2.0658-2.8786-0.0339-0.03387-0.0847-0.01693-0.10159 0.03387-0.254 0.52492-0.82972 0.88052-1.3885 0.88052-0.66039 0-1.1684-0.72812-1.1345-1.524 0.0169-0.08467 0.0508-0.1016 0.11853-0.0508 0.16933 0.16933 0.55879 0.47412 0.94825 0.47412 1.778 0 2.0489-1.8965 2.0489-3.1495 0-1.4732-0.44026-2.9971-2.1336-2.9971-0.59265 0-0.93131 0.23706-1.3716 0.28786-1.9473 0.23706-2.5569 1.5578-2.5738 4.1147zm3.031 0.03387c-0.66039 0-0.40639-2.3198 0.28786-2.3198 0.69426 0 0.40639 2.3198-0.28786 2.3198z"/>
    <path d="m122.82 89.042c0.74506-0.03387 1.4901-0.88052 1.7949-2.1505 0.1524-0.76198-0.0508-1.3208-0.23706-1.3038-0.33866 0-0.45719 0.93132-0.84665 0.93132-0.50799-0.01693-0.69425-6.1636-0.22013-6.1805 0.44026-0.01693 1.27 0 1.4901-0.01693 0.22013-0.01693 0.254-0.13546 0.3048-0.50799 0.11853-1.1345 0.0339-1.4224-1.2869-1.3885-0.23706 0.03387-0.33866-0.1524-0.35559-0.40639-0.0169-0.69425 0.52492-1.1006 0.49105-1.4562 0-0.38946-0.60958-0.54186-1.2869-0.50799-1.0668 0.03387-1.5917 0.59266-1.6594 1.9134-0.0339 0.69425-0.1016 0.44026-1.016 0.49106-0.37252 0.01693-0.54185 0.52492-0.52492 0.79585 0.0339 0.55879 0.55879 1.0837 0.72812 1.0837 0.13546 0 0.50799-0.11853 0.42332 0.71119-0.0339 0.37253-0.13546 2.4553-0.0847 3.8946 0.11853 2.1844 0.77892 4.1655 2.286 4.0978z"/>
    <path d="m127.67 83.928c-0.13547-0.0508-0.23707-0.18626-0.23707-0.30479 0-0.1524 0.3048-0.93132 0.74506-1.253 0.16933 0.98211 0.64345 1.4901 1.4393 1.4901 0.3048 0 0.82972-0.08467 0.82972-0.37253 0-0.254-0.22013-0.32173-0.22013-0.84665 0-2.032-0.30479-2.5569-1.6256-2.5569-0.1524 0-0.30479 0.01693-0.45719 0.08467-0.23706-0.03387-0.27093-0.06773-0.47412-0.06773-1.27 0-2.6754 2.2182-2.6754 3.5898 0 1.3038 3.2511 1.8796 3.2511 2.54 0 0.30479-0.50799 0.74505-1.1853 0.74505-0.64346 0-0.45719-0.99905-0.96518-0.91438-0.33866 0.0508-0.74505 0.67732-0.74505 1.0837 0 0.77892 1.1176 2.2182 2.6246 2.2182 1.0329 0 2.9802-1.1176 2.9802-2.7093 0-1.507-1.507-1.9812-3.285-2.7262z"/>
    <path d="m86.543 103.42c0-0.50799-0.79585-0.96518-1.4562-1.1006-0.33866-0.0508-0.69425-0.0847-0.82972 0.2032-0.30479 0.67732-0.52492 1.2192-0.69425 1.761-0.13546 0.45719 0.82972 1.1853 1.4393 1.1853 0.66039 0 1.5409-1.2869 1.5409-2.0489z"/>
    <path d="m93.952 96.717c0-0.64345-0.72812-1.1176-1.3208-1.1176-0.22013 0-0.42332 0.11853-0.64345 0.11853-0.27093 0-1.6594-0.18626-1.9981-0.18626-2.3029 0-2.6246 2.9633-2.6246 5.2323 0 1.778 0.79585 3.0479 1.8118 3.1665-0.64345 0.77892-1.2361 1.778-1.2361 2.7432 0 0.30479 0.0508 0.62652 0.16933 0.98211 0.47412 1.3377 1.6933 1.8118 3.0479 1.8118 1.9812 0 2.7093-0.86358 2.7093-2.9633 0-1.3716-0.27093-3.2342-0.27093-5.5032 0-1.9304 0.35559-3.793 0.35559-4.284zm-3.2173 0.88052c0.89745 0 0.40639 4.4364-0.37253 4.3856-0.89745-0.0677-0.64345-4.3856 0.37253-4.3856zm0.06773 10.431c-0.44026 0-0.72812-0.69426-0.72812-1.5917 0-0.76198 0.93132-2.6077 1.3038-2.4214 0.1016 0.0508 0.22013 0.69426 0.22013 1.4901 0 0.76198-0.18626 2.523-0.79585 2.523z"/>
    <path d="m95.281 93.347c0 1.1514 0.49106 1.6933 1.5578 1.6933 0.22013 0 0.37253-0.08467 0.42332-0.35559l0.57572-2.1505c0.11853-0.45719-0.84665-0.82972-1.5409-0.82972-0.44026 0-0.84665 0.06773-0.89745 0.32173-0.1016 0.45719-0.11853 0.88052-0.11853 1.3208zm1.8626 11.26c1.0837-0.0169 1.7272-0.98211 1.7102-2.4214-0.01693-0.67732-0.16933-0.74505-0.35559-0.74505-0.32173 0-0.38946 0.89745-0.82972 0.91438-0.54186 0-0.44026-3.7591 0.01693-5.3508 0.01693-0.11853 0.0508-0.23706 0.0508-0.35559 0-0.59266-0.54186-0.84665-1.3546-0.82972-0.66039 0-1.4054 0.18626-1.4562 0.64345-0.11853 0.96518-0.22013 2.1674-0.22013 2.9971 0.0508 2.54 0.64345 5.1815 2.4384 5.1476z"/>
    <path d="m101.78 104.59c0.74505-0.0339 1.4901-0.88052 1.7949-2.1505 0.1524-0.76199-0.0508-1.3208-0.23706-1.3038-0.33866 0-0.45719 0.93132-0.84665 0.93132-0.50799-0.0169-0.69425-6.1636-0.22013-6.1805 0.44026-0.01693 1.27 0 1.4901-0.01693s0.254-0.13546 0.3048-0.50799c0.11853-1.1345 0.0339-1.4224-1.2869-1.3885-0.23706 0.03387-0.33866-0.1524-0.35559-0.40639-0.0169-0.69425 0.52492-1.1006 0.49105-1.4562 0-0.38946-0.60958-0.54186-1.2869-0.50799-1.0668 0.03387-1.5917 0.59266-1.6594 1.9134-0.03387 0.69425-0.1016 0.44026-1.016 0.49106-0.37253 0.01693-0.54186 0.52492-0.52492 0.79585 0.03387 0.55879 0.55879 1.0837 0.72812 1.0837 0.13546 0 0.50799-0.11853 0.42332 0.71119-0.03387 0.37253-0.13546 2.4553-0.08467 3.8946 0.11853 2.1844 0.77893 4.1655 2.286 4.0978z"/>
    <path d="m106.58 104.45c0.18626 0.0508 0.33866 0.0847 0.47412 0.0847 0.40639 0 0.62652-0.27093 0.71119-0.82972 0.13546-0.72812 0.64345-3.539 0.89745-3.5051 0.25399 0.0508-0.44026 4.3179 1.4901 4.3179 0.93132 0 1.6764-0.94824 1.6764-1.9134 0-0.44026-0.18627-1.016-0.40639-1.016-0.18627 0-0.3048 0.96518-0.72812 0.71118-0.4064-0.25399 0.0508-4.1655 0.33866-5.0968 0.0508-0.11853 0.0508-0.23706 0.0508-0.32173 0-0.67732-1.0668-0.91438-1.9812-0.82972-0.98211 0.13546-1.778 2.2182-2.2013 3.7083-0.10159-0.03387-0.13546-0.35559-0.13546-0.88052 0-1.8288 0.47412-5.8588 0.49106-5.9943 0.0339-0.11853 0.0339-0.23706 0.0339-0.32173 0-0.67732-0.72812-0.94825-1.4054-0.94825-0.94824 0-1.253 0.16933-1.3208 1.0329-0.0339 0.99905-0.16933 3.8607-0.16933 5.4694 0 0.32173 0 0.59266 0.0169 0.79585 0.0169 0.60959 0 1.2192 0.0677 1.8288 0.0847 0.81278 0.11853 1.6425 0.38945 2.4384 0.0847 0.28786 0.1524 0.60959 0.47413 0.74505 0.40639 0.18626 0.81278 0.38946 1.2361 0.52492z"/>
    <path d="m120.09 101.09c-0.40639 0-0.40639 0.93131-0.82972 0.93131-0.55879 0-0.49106-2.6077 0.0677-5.3339 0.11853-0.59266-0.55879-0.88052-1.253-0.88052s-1.5409 0.18626-1.5917 0.81278c-0.30479 3.4035-0.96518 5.4016-1.3546 5.3339-0.55879-0.1016-0.2032-3.8438 0.33866-4.8598 0.1016-0.16933 0.13546-0.32173 0.13546-0.45719 0-0.59266-0.84665-0.82972-1.6594-0.82972-1.3377 0-1.778 2.032-1.778 4.2502 0 2.0997 0.4572 4.538 2.7601 4.538 0.86359 0 1.507-1.0668 1.9304-2.1336 0.16933 0.93131 0.64345 2.1505 1.8965 2.1505 1.5409 0 1.9812-3.5221 1.3377-3.5221z"/>
    <path d="m125.83 96.005c-1.4393 0-2.2013 1.6594-2.5061 2.523 0.10159-1.4562 0.67732-4.5719 1.0837-5.8758 0.11853-0.44026-0.77892-0.59266-1.3208-0.60959-0.71118 0.01693-1.3377 0.254-1.4562 0.89745-0.62653 2.523-0.96519 7.3828-0.38946 10.041 0.25399 1.0837 1.7441 1.8118 3.5898 1.8288 1.9304 0 3.3358-2.4553 3.3358-5.1646 0-2.015-0.66038-3.6406-2.3368-3.6406zm-1.1853 6.6377c-0.71119 0.0847-0.62652-4.3687 0.45719-4.4534 0.60959-0.03387 0.45719 4.4026-0.45719 4.4534zm-1.4732-3.6067v0z"/>
    <path d="m86.543 123.13c0-0.50799-0.79585-0.96518-1.4562-1.1006-0.33866-0.0508-0.69425-0.0847-0.82972 0.2032-0.30479 0.67732-0.52492 1.2192-0.69425 1.761-0.13546 0.45719 0.82972 1.1853 1.4393 1.1853 0.66039 0 1.5409-1.2869 1.5409-2.0489z"/>
    <path d="m87.873 113.06c0 1.1514 0.49106 1.6933 1.5578 1.6933 0.22013 0 0.37253-0.0847 0.42333-0.35559l0.57572-2.1505c0.11853-0.45719-0.84665-0.82972-1.5409-0.82972-0.44026 0-0.84665 0.0677-0.89745 0.32173-0.1016 0.45719-0.11853 0.88052-0.11853 1.3208zm1.8626 11.26c1.0837-0.0169 1.7272-0.98211 1.7102-2.4214-0.01693-0.67732-0.16933-0.74505-0.35559-0.74505-0.32173 0-0.38946 0.89745-0.82972 0.91438-0.54186 0-0.44026-3.7591 0.01693-5.3508 0.01693-0.11853 0.0508-0.23706 0.0508-0.35559 0-0.59266-0.54186-0.84665-1.3546-0.82972-0.66039 0-1.4054 0.18627-1.4562 0.64346-0.11853 0.96518-0.22013 2.1674-0.22013 2.9971 0.0508 2.54 0.64345 5.1815 2.4384 5.1476z"/>
    <path d="m91.777 120.18c0.03387 2.777 0.98211 4.3856 3.9115 4.3348 1.7102-0.0339 2.3706-3.1665 2.2521-5.571-0.06773-1.5578-0.33866-3.031-2.1336-3.2511-0.50799-0.0339-0.30479-0.16933-0.77892-0.30479-0.11853-0.0508-0.32173-0.0508-0.47412-0.0508-1.9304 0.0508-2.8109 2.5061-2.777 4.8428zm3.4205-2.5908c0.23706 0 0.42332 0.67732 0.42332 1.5409 0 1.4054-0.37253 3.2681-0.84665 3.2681-0.22013 0-0.44026-0.84665-0.44026-1.8457 0-1.3546 0.32173-2.9633 0.86358-2.9633z"/>
   </g>
  </g>
 </g>
</svg>
